<?xml version="1.0" encoding="UTF-8"?>
<svg id="_レイヤー_2" data-name="レイヤー 2" xmlns="http://www.w3.org/2000/svg" viewBox="0 0 377.4951172 20.4450073">
  <defs>
    <style>
      .cls-1 {
        fill: #231815;
        stroke-width: 0px;
      }
    </style>
  </defs>
  <g id="_レイヤー_1-2" data-name="レイヤー 1">
    <g>
      <path class="cls-1" d="m0,19.920105c2.9492188-.8747559,4.8237305-2.1994629,5.5986328-3.9489746.5246582-1.1247559.7998047-2.7243652.824707-4.7738647,1.4746094.0999756,2.2243652.2999268,2.2243652.5998535,0,.1749878-.2998047.374939-.8745117.5748901-.1501465,2.9242554-1.0749512,5.0237427-2.7495117,6.2484131-1.0996094.8248291-2.6992188,1.449707-4.8237305,1.824585l-.1999512-.5249023Zm17.1706543-10.4224243l.875-1.0997314c1.0996094.9747925,1.6494141,1.574646,1.6494141,1.7995605,0,.124939-.0998535.2249146-.3498535.2749634l-.6999512.1749268c-.6748047.7998047-1.4494629,1.5246582-2.2492676,2.1994629l-.4499512-.3499146c.5249023-.7748413.949707-1.574646,1.2746582-2.4243774H3.1242676c-.0500488,1.0496826-.2749023,1.8995361-.6748047,2.5993652-.375.6248169-.7998047.9247437-1.2248535.9247437-.5498047,0-.824707-.2749634-.824707-.7998047,0-.2249146.1750488-.4998779.5498047-.8247681.8996582-.7998047,1.449707-1.8995361,1.6247559-3.3991699l.5498047.1499023c.0249023.2249756.0249023.4749146.0249023.7748413h14.0214844Zm-7.9228516-2.7493286v-2.774292H.8498535l-.2250977-.5748901h8.6230469V.1749878c1.5744629.0249634,2.3742676.1999512,2.3742676.5248413,0,.1999512-.3498535.3999023-1.0495605.6248169v2.0745239h6.0732422l1.199707-1.574646c.5500488.4998779,1.0498047,1.0747681,1.574707,1.7246094l-.2248535.4249268h-8.6228027v2.774292h4.4987793l1.0998535-1.3996582.3999023.3249512c.3999023.3498535.7746582.7747803,1.1745605,1.2246704l-.25.4248657H2.4243164l-.1999512-.5748291h7.0234375Zm9.6474609,8.0230713v1.1746826c0,1.0247803.0751953,1.6745605.2250977,1.9744873.125.1749878.3498535.2749634.7246094.2999268-.074707.7748413-.4248047,1.2247314-1.074707,1.3746948-.574707.124939-1.7246094.1749878-3.4741211.1749878-2.0744629,0-3.2990723-.0999756-3.6240234-.3249512-.2998047-.2249756-.4499512-.6248779-.4499512-1.2496948v-7.0232544c1.5246582.0499268,2.2495117.2749023,2.2495117.5748291,0,.1749268-.3000488.3748779-.9248047.5998535v5.3736572c0,.374939.0998535.5998535.3249512.6748657.2749023.0750122.9746094.124939,2.1245117.124939,1.5495605,0,2.3994141-.1999512,2.6242676-.5748291.2749023-.4998779.5249023-1.5996094.6999512-3.3491821l.574707.1749878Z"/>
      <path class="cls-1" d="m38.0222168,12.2720337v6.2484131h6.0737305l1.2746582-1.699585c.6247559.5748901,1.1745605,1.1747437,1.6245117,1.7995605l-.2749023.4499512h-18.3955078l-.2497559-.5499268h8.5227051v-6.2484131h-6.2233887l-.2749023-.5748901h6.498291v-5.4486694h-7.7980957l-.2749023-.5748291h14.9213867l1.2246094-1.5996094c.6499023.6248169,1.199707,1.1746826,1.6496582,1.7245483l-.3000488.4498901h-7.9980469v5.4486694h4.1240234l1.125-1.5245972c.5246582.4248657,1.0495605.9747314,1.5493164,1.6245728l-.2497559.4749146h-6.548584ZM34.0483398.374939c1.3747559.5498047,2.4743652,1.2246704,3.3242188,1.9995117.7497559.6748047,1.1247559,1.2746582,1.1247559,1.8245239s-.25.8497925-.7998047.8497925c-.3249512,0-.5998535-.249939-.824707-.7498169-.6000977-1.2996826-1.6499023-2.4744263-3.0993652-3.4741821l.2749023-.4498291Z"/>
      <path class="cls-1" d="m59.848877,6.0485229v5.3486938c1.3496094-.374939,2.4992676-.6748657,3.4489746-.9997559l.0749512.5748901c-1.449707.5748291-2.5991211,1.0247192-3.4492188,1.3496094l-.1499023.0500488v7.9980469h-1.2746582v-7.5482178c-.824707.2749634-1.6496582.5249023-2.4243164.7498779-.0749512.5498047-.1999512.7998047-.3999023.7998047-.2749023,0-.6247559-.6499023-.9748535-1.9245605,1.324707-.2249756,2.6245117-.4498901,3.8740234-.7498169v-5.6486206h-1.7993164c-.3500977,1.7995605-.8500977,3.3991699-1.4997559,4.8238525l-.5249023-.1999512c.7248535-2.5744019,1.1247559-5.5986328,1.1247559-9.1727905,1.3496094.0499878,2.0244141.2749634,2.0244141.5498657,0,.1749268-.2248535.3499146-.7246094.5249023-.1000977,1.199707-.1750488,2.1494141-.3251953,2.899292h1.7246094V.1999512c1.4248047,0,2.1494141.1999512,2.1494141.4998779,0,.1999512-.2998047.3999023-.8745117.6498413v4.1240234h1.1745605l.9499512-1.449707c.4248047.4749146.8496094,1.0247803,1.2246094,1.6246338l-.25.3999023h-3.0991211Zm11.3222656-.6748047c-.3999023,2.6993408-1,4.9987793-1.8996582,6.9232788-1.3498535,2.9492798-3.6491699,5.4486694-6.8483887,7.4231567l-.3999023-.4248657c4.3740234-3.149231,6.9733887-7.7980957,7.8481445-13.9215698h-1.699707c-.949707,4.2489014-3.0991211,7.5731201-6.4482422,9.9725342l-.3999023-.3999023c2.7993164-2.4494019,4.6489258-5.6486206,5.548584-9.5726318h-1.8244629c-.6999512,1.6495361-1.6748047,3.2491455-2.9243164,4.7738037l-.4750977-.2999268c1.7998047-2.7493286,2.9743652-5.9985352,3.4741211-9.6976318,1.3747559.249939,2.074707.5249023,2.074707.8497925,0,.1749878-.3000488.3248901-.8498535.4749146-.3498535,1.324646-.6999512,2.4243774-1.074707,3.3491211h7.3481445l.7998047-1.0496826c.9248047.6998291,1.3747559,1.1746826,1.3747559,1.4246216,0,.124939-.0751953.2249146-.25.3248901l-.5.2999268c-.0249023,6.5484619-.3999023,10.7973633-1.0996094,12.7219238-.4499512,1.1497192-1.3496094,1.699585-2.7744141,1.6745605.0251465-.4498291-.2248535-.7497559-.7497559-.949707-.4248047-.1749878-1.199707-.374939-2.3493652-.5998535v-.5998535c1.2246094.1999512,2.2993164.2999268,3.1992188.2999268.824707,0,1.3496094-.3499756,1.574707-.9997559.6247559-1.949585.8996582-5.9486084.9248047-11.9970703h-1.5996094Z"/>
      <path class="cls-1" d="m87.4987793,7.37323c0,.1749268-.3000488.3748779-.8999023.5498047v12.4470215h-1.324707v-11.4971924c-.8996582,1.5245972-1.8745117,2.899292-2.9492188,4.1739502l-.449707-.3499146c2.3994141-3.4741821,4.1987305-7.6231079,5.423584-12.4969482,1.4494629.3248901,2.1745605.6748657,2.1745605,1.0247192,0,.2249756-.3500977.374939-1.0749512.4749146-.5498047,1.7745972-1.199707,3.4491577-1.9995117,5.0737915.7497559.1749268,1.0998535.3498535,1.0998535.5998535Zm8.3730469-.7248535v5.7485962h3.8989258l1.199707-1.6245728c.574707.5248413,1.074707,1.1246948,1.5495605,1.7495117l-.2749023.4499512h-6.373291v7.3981934h-1.3498535v-7.3981934h-6.5234375l-.2248535-.5748901h6.748291v-5.7485962h-3.2492676c-.6499023,1.8995361-1.4746094,3.5491333-2.4743652,4.9487915l-.4748535-.2999268c1.2746582-2.5993652,2.1494141-5.7736206,2.5993652-9.522644,1.449707.2749023,2.1745605.5748291,2.1745605.8997803,0,.1999512-.3000488.3748779-.9248047.5248413-.25,1.2747192-.5,2.1994629-.699707,2.8743286h3.0490723V.3999023c1.574707.0499878,2.3493652.249939,2.3493652.6248169,0,.1999512-.324707.4249268-.9995117.6499023v4.3989258h3.1489258l1.0998535-1.5496826c.5249023.4499512,1.0246582,1.0247803,1.574707,1.699585l-.25.4249268h-5.5734863Z"/>
      <path class="cls-1" d="m112.0495605,11.1723022c.125-1.1747437.324707-2.0994873.5996094-3.3742065.2749023-1.324646.5-1.9244995.6499023-2.7243042.125-.8248291.0249023-1.5996094-.1999512-1.949585-.2248535-.2999268-.3999023-.6998291-.1999512-.8747559.2749023-.1999512.7749023.0749512,1.1247559.4249268.3249512.3748779.5998535.9247437.6748047,1.574585.0500488.6248779-.1999512,1.4246826-.3747559,1.8745117-.1750488.4749146-.5498047,1.449707-.75,2.1245117-.2248535.6498413-.3747559,1.449646-.4997559,2.1245117-.125.7247925-.1750488,1.2496338-.1999512,1.7745361-.0249023.4249268,0,.7248535.1000977.7248535.1247559,0,.199707-.25.2998047-.4749146.25-.5248413.6247559-1.1246948.7998047-1.3496704.1748047-.2249756.3249512-.3499146.4748535-.2749023.1499023.0999756.0998535.2999268-.0251465.4998779-.1748047.2999268-.5498047,1.3496094-.5498047,2.4493408s.2001953,1.949585.5,2.7993164c.1999512.6499023.1748047,1.5246582-.2250977,1.6746216-.3999023.1749878-.9248047-.1749878-1.2744141-.6748657-.3500977-.4748535-.6499023-1.1496582-.8500977-2.5743408-.199707-1.4246826-.199707-2.6243896-.074707-3.7740479Zm7.9228516,3.1992188c.375.2999268.8249512.5248413,1.3999023.7497559.5498047.2249756,1.6245117.2749634,2.6992188.1999512,1.0996094-.0749512,2.0996094-.4248657,2.6242676-.4248657.5500488.0249634,1.1247559.0999756,1.2998047.5998535.1999512.4749146-.4748535.8748169-1.3498535,1.0997314-.8996582.1999512-1.9743652.249939-2.9243164.1749878-.9245605-.0750122-1.9243164-.3499756-2.6491699-.6748657-.6999512-.3248901-1.3996582-.9497681-1.6994629-1.2996826-.3251953-.374939-.4250488-.7748413-.2250977-.8748169.2749023-.1749268.5498047.25.824707.4499512Zm0-9.7226562c-.3498535-.1499634-.6499023-.3499146-.5498047-.5748291.1000977-.2249756.4248047-.1749878.9748535,0,.5498047.1749268,1.3244629.1749268,2.0244141.1499023.6999512-.0249634,1.3996582-.2249146,2.1745605-.4748535.574707-.1999512,1.1748047-.1749268,1.3496094.1499634.1999512.3499146-.1000977.8497925-.824707,1.0997314-.7248535.249939-1.8496094.3499146-2.7495117.249939-.8996582-.0999756-1.5244141-.249939-2.3994141-.5998535Z"/>
      <path class="cls-1" d="m154.1708984,9.4476929c.0249023-.6498413-.0500488-1.5996094-.7248535-2.2744141-.7248535-.7248535-1.3745117-.9997559-2.2744141-1.0997314-.7749023-.0750122-1.6745605.124939-2.2495117.3999023-.6247559.2749023-1.6245117.8997803-2.2243652,1.3746338-.6499023.4498901-1.574707,1.2496948-2.2746582,1.824585-.7495117.6248169-1.6743164.9747314-2.4492188.949707-.7749023,0-1.5996094-.4248657-2.0244141-.7747803-.4250488-.3499146-.6499023-.7998047-.5-.9747314.1999512-.25.5-.1500244.7248535-.0999756.3747559.0999756.824707.1749268,1.3496094.1749268.5249023-.0250244.9997559-.3748779,1.4245605-.5748291.4250488-.1999512,1.8745117-1.0247803,2.4995117-1.3996582.625-.3499756,1.4995117-.7998047,2.3994141-1.1747437.9248047-.3999023,1.9746094-.7748413,3.1491699-.7998047,1.2248535,0,2.4494629.5498657,3.2741699,1.324646.75.6998291,1.199707,1.5496826,1.324707,2.7993164.125,1.199707-.1748047,2.2994385-.9248047,3.3742065-.7497559,1.0497437-2.0244141,1.8495483-3.0241699,2.3244019-.9748535.4499512-2.0993652.9498291-3.2243652,1.2247314-.8745117.1999512-1.6245117.2749023-1.8994141.2749023-.2749023-.0249634-.449707-.0999756-.449707-.2249146s.1247559-.2749634.3999023-.2999268c.2497559-.0249634.5246582.0249634,1.5744629-.2749634,1.074707-.2749023,2.2744141-.8497314,3.1491699-1.324646.824707-.4498901,1.7746582-1.4246216,2.2495117-2.1244507.4748535-.6748657.699707-1.8496094.7248535-2.6243896Z"/>
      <path class="cls-1" d="m171.123291,1.3746948c.125-.1999512.4501953-.125.6999512-.0999756.3000488.0249634.8747559.1499023,1.4997559.4498291.574707.25.8747559.8748169,1.1745605,1.4746704.125.2749634.3000488.6498413.4499512,1.0747681.4748535-.1999512.8747559-.3999023,1.0996094-.4998779.3500977-.1500244.8498535-.2749634,1.4248047,0,.5998535.2498779.3249512.6748047-.1000977.949707-.2248535.1749878-.699707.374939-1.2746582.5748901.1750488.0750122.3498535.124939.5.1749878.2998047.0749512,1.7995605.3999023,2.3994141.4998779s1.4245605.2498779,2.0244141.4498291c.5998535.1749878.5749512.7748413.0251465,1.199707-.5249023.374939-1.3999023.7998047-2.5996094,1.199707-.449707.1500244-.8996582.2999268-1.3496094.4249268.4248047.9747314,1.2749023,2.8742676,1.449707,3.2991943.2250977.4998779.4248047,1.0247803.3249512,1.3996582-.125.3999023-.5249023.7498169-.9997559.8997803-.4499512.1499634-1.0498047-.0749512-1.7495117-.4998779-.6748047-.4249268-1.324707-.6748047-2.3745117-.7498169-1.074707-.0750122-2.1245117.0999756-3.0244141.6248169-.6496582.3999023-.9245605,1.1747437-.7495117,1.8995361.199707.7248535.7495117,1.0747681,1.5996094,1.3497314.824707.2498779,1.9492188.2749023,2.6242676.2498779.6748047-.0499268,1.5996094-.1999512,2.0744629-.2749023.449707-.0749512.9248047.0499878,1.3496094.3249512.4499512.2999268.5.7247925.3249512.9247437s-.5749512.3499146-1.449707.4248657c-.8747559.0999756-2.4243164.0999756-3.6491699-.0749512-1.2744141-.1999512-2.5244141-.6748047-3.1240234-1.3746338-.6000977-.7248535-.75-1.824585-.4499512-2.774353.3249512-.9497681,1.1496582-1.4246216,1.9995117-1.7245483s2.1245117-.4249268,3.0241699-.374939c.8999023.0249634,1.9746094.249939,2.1994629.3248901.1999512.0750122.3999023.2249756.6247559.0500488.1750488-.1500244,0-.6248779-.1247559-1.0498047-.1000977-.3498535-.5998535-1.6495361-.9748535-2.5743408-.3249512.0999756-.6499023.1499634-.8747559.2249756-.7248535.1999512-1.8745117.4248657-2.6994629.4248657-.824707,0-1.5996094-.1499634-2.2243652-.374939-.6247559-.2249146-1.0998535-.4998779-1.3996582-.7747803-.2749023-.249939-.2998047-.5998535-.1999512-.7248535.1999512-.1749268.4499512,0,.6499023.1500244.4499512.3248901,1.3996582.6998291,2.0744629.7497559.699707.0750122,1.7246094,0,2.4995117-.1499023.574707-.0999756,1.2246094-.2999268,1.7993164-.4749146-.324707-.7498169-.6496582-1.5245972-.949707-2.1744995-.0998535-.2249146-.1999512-.4498291-.2749023-.6748047-.9746094.1999512-1.7744141.249939-2.4492188.1999512-.6999512-.0499878-1.3498535-.2999268-1.7497559-.4748535-.3999023-.1749878-.4997559-.4249268-.3249512-.6499023.125-.1749268.4248047-.124939.6999512.0250244.2749023.125.7497559.2249756,1.3747559.249939.5498047,0,1.3244629-.1749878,1.9743652-.3999023-.125-.2249146-.1750488-.3999023-.2248535-.4998779-.1750488-.3999023-.6000977-.9247437-1.0998535-1.324646-.3747559-.2999268-.7248535-.5499268-1.1247559-.7498779-.4248047-.1999512-.4748535-.5248413-.375-.7497559Zm4.3740234,4.1239624h-.0498047c.074707.0999756.0998535.2249146.125.3248901.2248535.4749146.6748047,1.5996094,1.074707,2.4494629.9248047-.3249512,1.6494141-.6499023,1.9494629-.7998047.2497559-.125.6247559-.3249512.5749512-.4749146-.050293-.124939-.5-.249939-.9748535-.4248657-.5-.1749878-1.4245605-.5499268-1.7995605-.6998291-.2250977-.0750122-.625-.25-.8999023-.374939Z"/>
      <path class="cls-1" d="m196.473877,6.2234497c.7248535.125,1.074707.2999268,1.074707.5499268,0,.1749268-.2998047.3999023-.8996582.5998535v12.9968262h-1.324707v-11.7471924c-.824707,1.574646-1.7495117,3.0493164-2.7993164,4.473938l-.4997559-.3499146c2.2744141-3.7990723,3.9238281-8.0480347,4.9238281-12.7468872,1.4995117.2999268,2.2492676.6248169,2.2492676.9747925,0,.1999512-.3747559.3748779-1.074707.5248413-.4248047,1.5996094-.8747559,3.149231-1.5996094,4.5739136l-.0500488.1499023Zm8.2729492-.7247925V.4749146c1.5498047.0499268,2.324707.2498779,2.324707.5998535,0,.1999512-.3251953.3999023-.9748535.6248169v3.7990723h4.098877l.8999023-1.0997314c.949707.7498169,1.3996582,1.2246704,1.3996582,1.4246216,0,.0999756-.0749512.1749878-.2248535.2749634l-.5249023.3999023v7.37323h-1.2998047v-1.2497559h-4.348877v7.7481689h-1.3498535v-7.7481689h-4.1240234v1.6746216h-1.3244629V4.7988281c.5749512.1999512,1.0495605.4248657,1.5246582.6998291h3.9238281Zm-4.1240234.5498657v6.0235596h4.1240234v-6.0235596h-4.1240234Zm9.8227539,6.0235596v-6.0235596h-4.348877v6.0235596h4.348877Z"/>
      <path class="cls-1" d="m230.4475098,1.5245972c.0498047.0250244.074707.0750122.0998535.0999756,2.2744141,3.024292,5.3986816,5.3237305,9.2478027,6.8483887-.5.3498535-.9248047.7998047-1.1748047,1.324646-3.7990723-1.9495239-6.6733398-4.5739136-8.5979004-7.7980957l-.0998535.1749878c-2.1245117,3.7240601-5.3486328,6.4984131-9.3728027,8.3979492l-.3498535-.4749146c3.9238281-2.2744751,6.9731445-5.5986328,9.1225586-9.9475708,1.3747559.2749023,2.0498047.5498657,2.0498047.8248291,0,.1749268-.3500977.3498535-1,.4498291.0251465,0,.0500488.0500488.0751953.0999756Zm-8.8730469,18.4205322c2.8493652-1.574585,4.2739258-4.0490112,4.2739258-7.4731445v-3.9990234c1.5498047.0499268,2.2995605.2749023,2.2995605.5998535,0,.1999512-.3000488.3999023-.949707.6248169v2.7493286c0,2.3743896-.5500488,4.2489624-1.699707,5.6236572-.7746582.9247437-1.9743652,1.699585-3.5490723,2.3493652l-.375-.4748535Zm11.3222656.1499634v-11.7221069c1.5246582.0749512,2.2995605.2749023,2.2995605.5998535,0,.2249146-.3249512.4248657-.9748535.6497803v10.4724731h-1.324707Z"/>
      <path class="cls-1" d="m258.2722168,7.9980469v3.8990479h6.4484863l1.2497559-1.699585c.6499023.5748901,1.2246094,1.199707,1.699707,1.8245239l-.3000488.4499512h-9.0979004v5.8735352c0,1.0997314-.8496094,1.6495972-2.5493164,1.6246338-.0249023-.5249023-.3249512-.8997803-.8999023-1.0997314-.4746094-.1500244-1.3244629-.3249512-2.5742188-.5249023v-.6248779c1.4995117.1749878,2.7492676.25,3.7990723.25.5749512,0,.8498535-.2249756.8498535-.6998291v-4.7988281h-9.1977539l-.25-.5748901h9.4477539v-3.8990479h-7.9230957l-.25-.5748901h8.1730957v-3.9990234c-2.074707.3249512-4.598877.5748901-7.5483398.7998047l-.2248535-.5748291c5.6984863-.6248779,10.2724609-1.574585,13.6467285-2.8243408,1.1247559.6248779,1.6745605,1.0997314,1.6745605,1.3996582,0,.125-.1499023.2249756-.4997559.2249756-.1750488,0-.4750977-.0499878-.8999023-.125-1.5246582.3499756-3.1242676.6748657-4.7739258.8997803v4.1989746h5.1738281l1.199707-1.5996094c.5.4499512,1.0498047,1.0247803,1.5996094,1.699585l-.25.4749146h-7.7231445Z"/>
      <path class="cls-1" d="m277.1745605,16.1960449c-.1750488.249939-.2751465.4498901-.375.5748901l-1.074707-.4998779c.7497559-1.1497803,1.3994141-2.3244629,1.9494629-3.4991455h-2.7744141l-.2248535-.5748901h3.2490234c.25-.5498657.5249023-1.2496948.8500977-2.0994873,1.1494141.3999023,1.7495117.6998291,1.7495117.9247437,0,.1749878-.3000488.2749634-.8999023.3499756l-.3498535.8247681h4.223877l.8498535-1.0747681c.5249023.4499512.9748535.8748169,1.324707,1.2497559l-.25.3999023h-1.9494629c0,.0249634-.0249023.0499268-.0249023.0999756-.0500488.1499023-.0500488.2498779-.0751953.3248901-.2749023,1.2496948-.7497559,2.3494263-1.4245605,3.3491821,1.3496094.6498413,1.9995117,1.2247314,1.9995117,1.7745361,0,.4249268-.1999512.6499023-.6499023.6499023-.1750488,0-.3747559-.0750122-.5498047-.25-.5249023-.4748535-.9997559-.8997803-1.449707-1.199707-1.2497559,1.3996582-3.2741699,2.3494873-6.0234375,2.7993164l-.3000488-.5248413c2.3994141-.5248413,4.1489258-1.5245972,5.2988281-2.9492798-.8999023-.4748535-1.7995605-.8997803-2.7243652-1.2496948-.0749512.124939-.1999512.3248901-.3747559.5998535Zm2.5241699-11.2972412V.1999512c1.3498535.0499878,2.0246582.2249146,2.0246582.4998779,0,.1749878-.25.3499146-.7998047.4998779v3.6990967h2.6494141l.9245605-1.2747192c.4748535.5249023.8249512.9747925,1.0749512,1.3746948l-.25.4498901h-4.3989258v.8248291c2.4243164.5248413,3.6240234,1.199707,3.6240234,2.0494385,0,.4749146-.1999512.7248535-.5998535.7248535-.25,0-.4748535-.125-.6999512-.3999023-.5996094-.6998291-1.3745117-1.324707-2.3242188-1.7745361v3.2741699h-1.2248535v-3.4241943c-1.2246094,1.3497314-2.7243652,2.4744263-4.5739746,3.3742065l-.3496094-.4749146c1.8994141-1.1746826,3.3989258-2.5743408,4.5236816-4.1739502h-4.1740723l-.1748047-.5498657h4.7487793Zm-3.8239746-4.0239868c1.6245117.8997803,2.4243164,1.7995605,2.4243164,2.6993408,0,.5748291-.25.8497314-.7749023.8497314-.2998047,0-.5498047-.2498779-.6496582-.7747803-.1501465-.7747803-.5998535-1.574585-1.3747559-2.3743896l.375-.3999023Zm4.9987793,15.1712646c.5749512-.9747314.9748535-2.0494995,1.2497559-3.2741699h-3.0993652c-.3249512.7747803-.7248535,1.574585-1.199707,2.3493652.9499512.1749878,1.9494629.4998779,3.0493164.9248047Zm1.0246582-11.7971191c.6748047-1.074707,1.2246094-2.2494507,1.699707-3.4991455,1.0996094.4748535,1.6745605.8497925,1.6745605,1.1247559,0,.1999512-.3000488.2999268-.8747559.2999268-.4499512.6497803-1.1499023,1.4246216-2.0996094,2.3244019l-.3999023-.249939Zm13.6467285,14.49646c-.4250488.3748779-.7746582.7998047-1.0498047,1.2996826-1.9995117-1.4246826-3.5490723-2.9243164-4.6237793-4.473877-1.5996094,2.1744385-3.7241211,3.7240601-6.4233398,4.7487793l-.3500977-.4998779c2.6494141-1.2996826,4.6489258-3.0992432,6.048584-5.3986816-1.0246582-1.8245239-1.8244629-4.2489014-2.3742676-7.2481689-.5749512,1.2496338-1.2998047,2.3994141-2.1745605,3.4741211l-.4748535-.3249512c1.5495605-2.524353,2.6494141-5.8985596,3.2990723-10.1224976,1.3747559.2749634,2.0744629.5748901,2.0744629.8497925,0,.1999512-.2998047.3499146-.9248047.4748535-.2998047,1.324707-.574707,2.4494629-.8996582,3.3742065h5.298584l1-1.4246216c.574707.5498047,1.074707,1.0496826,1.4746094,1.574585l-.2250977.3999023h-2.2993164l-.0251465.2749023c-.2998047,3.4991455-1.074707,6.4234619-2.3493652,8.7728882,1.2746582,1.6746216,2.9243164,3.0742798,4.9987793,4.2489624Zm-4.0490723-13.0717773l.0249023-.2249756h-4.0488281c-.0249023.0250244-.0500488.125-.1000977.2249756-.0498047.1749268-.0998535.2999268-.125.3748779.5500488,2.9992676,1.4248047,5.4237061,2.5495605,7.2982178.9245605-2.2244873,1.4245605-4.7988281,1.6994629-7.6730957Z"/>
      <path class="cls-1" d="m306.2990723,12.421936c-.9248047,1.949585-2.2495117,3.7990723-3.8491211,5.5487061l-.4499512-.4249268c1.9746094-2.5244141,3.3991699-5.1987305,4.2490234-7.9730225h-3.7241211l-.2248535-.5748901h3.9990234V.2249146c1.449707,0,2.1743164.1749878,2.1743164.4749146,0,.1999512-.2998047.3999023-.8996582.6248169v7.6731567h1.8493652l.9748535-1.4996338c.4250488.4498901.8747559.9997559,1.324707,1.6495972l-.2497559.4249268h-3.8991699v1.7995605c2.5493164.9247437,3.8239746,1.9244995,3.8239746,3.0742188,0,.5249023-.2248535.7998047-.699707.7998047-.2749023,0-.5249023-.2249756-.7248535-.6498413-.4748535-.9497681-1.2746582-1.8245239-2.3994141-2.6243286v8.3979492h-1.2746582v-7.9481201Zm-3.3991699-10.3224487c1.5996094,1.5996094,2.3994141,3.149231,2.3994141,4.6738892,0,.7247925-.25,1.074707-.7749023,1.074707-.3498535,0-.5498047-.249939-.5749512-.7248535-.0998535-1.7495117-.574707-3.2991943-1.4746094-4.6738281l.4250488-.3499146Zm5.3737793,5.5986328c.7998047-1.8995361,1.3994141-3.8240356,1.7993164-5.7235718,1.2248535.3748779,1.8496094.6998291,1.8496094.9747314,0,.1749268-.25.2999268-.7749023.3748779-.6496582,1.5246582-1.4746094,3.0742798-2.4243164,4.6239014l-.449707-.249939Zm9.9724121,6.0985107V.4749146c1.4746094.0749512,2.2243652.2498779,2.2243652.5748291,0,.1499634-.2998047.3499146-.8496094.5498657v11.8721313l.9248047-.25.6748047-1.7995605.25.25c.4248047.3999023.7998047.7998047,1.1494141,1.199707l-.1247559.4998779-2.7993164.6998291v6.2984619h-1.3747559v-5.9735718l-6.6733398,1.699585-.375-.4998779,6.9733887-1.7995605Zm-6.1984863-6.3734741c1.3996582.6248779,2.3994141,1.2996826,3.0991211,2.0495605.5249023.5748291.7749023,1.074707.7749023,1.5245972,0,.5248413-.25.7998047-.7497559.7998047-.3249512,0-.5500488-.1999512-.6999512-.5748901-.3999023-1.1746826-1.2746582-2.2994385-2.6743164-3.3741455l.25-.4249268Zm1.0249023-4.9237671c1.3244629.4998779,2.2492676,1.0497437,2.8991699,1.6746216.5749512.5748291.8747559,1.074707.8747559,1.574585,0,.5249023-.1999512.7998047-.6499023.7998047-.3999023,0-.6748047-.2749023-.8996582-.7998047-.375-.9997559-1.199707-1.9495239-2.4743652-2.8493042l.25-.3999023Z"/>
      <path class="cls-1" d="m341.7722168,3.2241821c-.7250977,1.4746704-1.3747559,2.6243896-1.9248047,3.4741821,1.0998535.0499878,1.6247559.249939,1.6247559.4998779,0,.1999512-.2749023.4248657-.9248047.6248169v12.5469971h-1.3496094V7.6481323c-2.1745605,3.0742188-4.973877,5.6486206-8.447998,7.7231445l-.375-.4998779c4.4240723-3.0493164,7.6733398-6.9233398,9.7226562-11.6472168h-9.4477539l-.199707-.5498047h16.1210938l1.2744141-1.5996094c.625.4998779,1.199707,1.074707,1.699707,1.6745605l-.2250977.4748535h-7.5478516Zm.7246094,4.598877c4.5739746,2.1495361,6.8232422,3.9490967,6.8232422,5.4237061,0,.5498657-.2248535.8248291-.7246094.8248291-.2749023,0-.625-.2999268-.9748535-.8498535-.9997559-1.5996094-2.7993164-3.2491455-5.423584-4.9237671l.2998047-.4749146Z"/>
      <path class="cls-1" d="m361.9238281,17.145813l-1.199707-.4748535c1.1496582-1.199707,2.1994629-2.4494629,3.1743164-3.7241211h-6.2233887l-.2001953-.5748291h6.8483887l.0998535-.125c.5249023-.7998047,1.0498047-1.574585,1.4748535-2.3743896,1.199707.3748779,1.7995605.6748047,1.7995605.8997803,0,.1999512-.3249512.3248901-1.0249023.3748779-.2248535.3999023-.4997559.8248291-.7998047,1.2247314h8.8479004l1.199707-1.3746948c.5500488.4498901,1.0998535.9247437,1.574707,1.4746704l-.2248535.4748535h-4.6489258c-.7248535,1.4246826-1.6748047,2.7243652-2.8493652,3.8990479.0749512.0250244.1750488.0749512.3249512.0999756.2248535.0499878.375.0999756.4248047.125,3.8740234.8997803,5.798584,1.7495117,5.798584,2.4993896,0,.4748535-.1999512.6998291-.6247559.6998291-.1999512,0-.5749512-.1500244-1.1748047-.4499512-1.3745117-.6748047-3.2490234-1.3996582-5.5737305-2.1244507-2.1494141,1.7245483-5.7236328,2.6243286-10.7722168,2.6993408l-.25-.5748901c4.4240723-.2749023,7.6481934-1.1246948,9.6726074-2.524353-1.3745117-.4248657-2.9492188-.7998047-4.7236328-1.1497192-.3500977.3499146-.6750488.6998291-.9499512.9997559Zm2.4494629-12.1470337v-2.6243286h-6.4484863l-.2749023-.5748901h16.8708496l1.199707-1.4746704c.5998535.4749146,1.1748047.9997559,1.7746582,1.6246338l-.2248535.4249268h-7.0734863v2.6243286h3.2993164l.824707-.9747925c.9248047.6748657,1.3747559,1.1497803,1.3747559,1.3497314,0,.0999756-.0751953.1999512-.2250977.2999268l-.5249023.3248901v4.7238159h-1.2744141v-1.0496826h-12.597168v1.2746582h-1.2495117v-6.5484009c.3999023.124939.8996582.3248901,1.4746094.5998535h3.0742188Zm-3.2993164.5748901v3.5490723h3.2993164v-3.5490723h-3.2993164Zm7.3481445,10.9973145c1.0498047-1.0747681,1.9248047-2.2994385,2.6245117-3.6241455h-5.5737305c-.699707.9497681-1.4245605,1.8745117-2.1743164,2.7243652,1.7495117.2249146,3.4492188.4998779,5.1235352.8997803Zm-2.7993164-11.5722046h3.3242188v-2.6243286h-3.3242188v2.6243286Zm0,.5748901v3.5490723h3.3242188v-3.5490723h-3.3242188Zm8.0483398,3.5490723v-3.5490723h-3.4743652v3.5490723h3.4743652Z"/>
    </g>
  </g>
</svg>