<?xml version="1.0" encoding="UTF-8"?>
<svg id="_レイヤー_2" data-name="レイヤー 2" xmlns="http://www.w3.org/2000/svg" viewBox="0 0 422.1766607 111.8084717">
  <defs>
    <style>
      .cls-1 {
        stroke: #231815;
        stroke-width: .7579525px;
      }

      .cls-1, .cls-2 {
        fill: #231815;
      }

      .cls-2 {
        stroke-width: 0px;
      }
    </style>
  </defs>
  <g id="_レイヤー_3" data-name="レイヤー 3">
    <g>
      <path class="cls-2" d="m23.385018,5.4611816v-3.2806396h-5.2811279l-.1800537-.460083h13.7429199l1.0002441-1.2403564.2000732.1800537c.3800049.3601074.7401123.7202148,1.0802002,1.1402588l-.1800537.380127h-5.9613037v3.2806396h3.520752l.7202148-.880127c.7601318.6201172,1.1402588,1.0001221,1.1402588,1.1601562,0,.0800781-.0600586.1401367-.1601562.2200928l-.4799805.3000488v9.9020996h-1.0402832v-1.5202637h-11.2424316v1.5202637h-1.0601807V4.9211426c.3400879.1400146.7401123.3200684,1.2202148.5400391h2.9606934Zm-3.1207275.4400635v8.3018799h11.2424316V5.9012451h-3.7008057v4.020874c0,.3601074.2800293.5401611.8602295.5401611.5001221,0,.8201904-.2000732.920166-.5802002.1400146-.5400391.2200928-1.3201904.3000488-2.3204346l.4801025.1600342c0,1.0601807.0600586,1.7803955.1600342,2.1204834.0800781.3000488.2800293.4400635.5601807.4400635-.0200195.5600586-.2200928.8602295-.6202393.9602051-.3200684.0800781-.8601074.1400146-1.7403564.1400146-.7200928,0-1.2202148-.0799561-1.5002441-.2000732-.3000488-.1400146-.460083-.5-.460083-1.0401611v-4.2409668h-2.3205566c-.0600586,2.9206543-1.2202148,5.0811768-3.4406738,6.4614258l-.3000488-.4000244c1.7003174-1.340332,2.4404297-3.3007812,2.6605225-5.8613281l.0200195-.2000732h-3.1207275Zm6.5014648-.4400635v-3.2806396h-2.3205566v3.2806396h2.3205566Z"/>
      <path class="cls-2" d="m50.8061606,5.2811279c.2600098,3.1806641.9401855,5.7213135,2.1204834,7.581665.6201172.9602051,1.0401611,1.4403076,1.2802734,1.4403076.3000488,0,.5800781-1.1402588.8400879-3.4608154l.4801025.2200928c-.1199951,1.2802734-.1600342,2.2004395-.1600342,2.7806396,0,.920166.2000732,1.4603271.5802002,1.6003418-.1199951.5600586-.3601074.8201904-.7601318.8201904-.7001953,0-1.5604248-.6002197-2.5006104-1.8204346-1.5603027-1.9804688-2.5405273-5.0211182-2.9605713-9.0618896h-9.5820312l-.2000732-.460083h9.7420654c-.0800781-.9802246-.1600342-2.5605469-.1800537-4.7410889,1.2003174.0600586,1.7803955.2200928,1.7803955.460083,0,.1400146-.2200928.2800293-.6801758.4401855.0200195,1.7203369.0800781,2.9805908.1400146,3.7607422h3.0806885l.84021-1.1402588.460083.4801025c.2399902.2200928.460083.4801025.6601562.7601318l-.1800537.3400879h-4.8010254Zm-4.5009766,8.2818604c1.2202148-.2200928,2.5605469-.5201416,4.020874-.8602295v.5600586l-.920166.2801514c-2.9206543.8400879-5.5812988,1.4802246-8.041748,1.9404297-.0800781.460083-.1800537.7000732-.3400879.7000732-.2200928,0-.5401611-.5600586-.880127-1.7003174,1.3201904-.1600342,1.9803467-.2401123,2.0003662-.2401123v-6.5814209c1.1602783.1000977,1.7403564.2601318,1.7403564.4801025,0,.1400146-.2399902.2801514-.7200928.4401855v5.5211182c.9801025-.1600342,1.6802979-.2600098,2.1403809-.3601074v-7.6816406c1.1002197.1000977,1.6604004.2601318,1.6604004.4801025,0,.1600342-.2000732.3001709-.6601562.4401855v2.4205322h1.5402832l.84021-1.2403564c.380127.420166.6801758.8001709.9001465,1.1602783l.1201172.2000732-.1800537.3200684h-3.2207031v3.7208252Zm.1600342-11.3824463l.8602295-1.1402588c.4200439.4200439.7801514.8201904,1.1202393,1.2802734l-.2200928.3000488h-6.5413818l-.1800537-.4400635h4.9610596Zm5.401123-1.1602783c1.5603027.5400391,2.3005371,1.2001953,2.3005371,1.9804688,0,.460083-.2000732.6600342-.6201172.6600342-.3000488,0-.4801025-.1600342-.5802002-.460083-.2199707-.7601318-.6401367-1.380249-1.3201904-1.8803711l.2199707-.3000488Z"/>
      <path class="cls-2" d="m62.1839682,4.4210205c1.5202637.5200195,2.260498,1.2202148,2.260498,2.0203857,0,.460083-.1801758.6601562-.5603027.6601562-.3200684,0-.5200195-.2000732-.6201172-.6601562-.119873-.5800781-.5400391-1.1602783-1.300293-1.7003174l.2202148-.3200684Zm4.9609375-.8201904l-2.5405273,7.9816895c-.1999512.5800781-.3000488,1.0202637-.3000488,1.2802734,0,.1400146.0200195.3400879.1000977.6601562.1599121.7401123.2399902,1.2802734.2399902,1.6602783,0,.7602539-.2600098,1.1602783-.8200684,1.1602783-.4001465,0-.6003418-.2000732-.6003418-.6000977,0-.1000977.0400391-.5001221.1401367-1.1802979.0400391-.3000488.0400391-.6201172.0400391-.9001465,0-1.1602783-.4401855-1.7803955-1.340332-1.9003906v-.4801025c.2399902.0400391.4401855.0599365.6000977.0599365.5202637,0,.9001465-.1999512,1.1003418-.6201172.920166-1.7803955,1.9003906-4.2608643,2.9206543-7.4215088l.4599609.3000488Zm-3.9008789-3.0806885c1.6003418.5001221,2.4206543,1.1602783,2.4206543,1.9404297,0,.460083-.2202148.6801758-.6401367.6801758-.2202148,0-.380127-.1201172-.4602051-.380127-.2399902-.7601318-.7399902-1.380249-1.5402832-1.9003906l.2199707-.3400879Zm8.3417969,5.3411865l-2.6206055.920166v7.2814941c0,.3200684.1401367.5001221.380127.5601807.4001465.0799561,1.3803711.1400146,2.9406738.1400146,2.5205078,0,3.8608398-.1600342,4.0808105-.460083.2402344-.3000488.4001465-1.2203369.5002441-2.7606201l.5.1800537c0,1.4202881.0600586,2.260498.1801758,2.5205078.0998535.2000732.2800293.3000488.5600586.3000488-.1000977.5601807-.3400879.880249-.7802734.9802246-.5.1400146-2.0803223.2000732-4.6809082.2000732-2.3205566,0-3.6809082-.0600586-4.0407715-.2000732-.420166-.1400146-.6401367-.5800781-.6401367-1.3201904v-7.081543l-1.5803223.5600586-.2602539-.4400635,1.8405762-.6601562V1.5803223c1.1601562.0200195,1.7402344.1600342,1.7402344.420166,0,.1199951-.2199707.2800293-.7402344.4801025v3.7607422l2.6206055-.920166V.2200928c1.1604004.0200195,1.7404785.1800537,1.7404785.4200439,0,.1600342-.2399902.3200684-.7602539.5201416v3.8007812l2.6806641-.9401855.6801758-.9401855c.7600098.5401611,1.1401367.9001465,1.1401367,1.0802002,0,.0600586-.0400391.1400146-.1398926.2200928l-.4401855.3200684v5.5611572c0,.9602051-.5400391,1.4202881-1.6403809,1.4002686-.0200195-.5400391-.5400391-.880127-1.5803223-1.0401611v-.460083c.5400391.0799561,1.0803223.1199951,1.5603027.1199951.4401855,0,.6601562-.1600342.6601562-.5001221v-5.2611084l-2.9206543,1.0002441v7.1414795h-.9802246v-6.8013916Z"/>
      <path class="cls-2" d="m92.7655112,9.4420166c.5402832,1.1402588,1.2602539,2.1405029,2.2004395,2.9206543.840332-.7401123,1.5805664-1.6003418,2.2404785-2.5805664.9401855.5401611,1.4003906.9002686,1.4003906,1.0802002,0,.1401367-.1799316.2000732-.5400391.2000732-.1000977,0-.2202148-.0200195-.3000488-.0200195-.6601562.5802002-1.4404297,1.1202393-2.4006348,1.6604004,1.340332,1.0401611,2.9606934,1.7803955,4.861084,2.2404785-.3601074.2800293-.6401367.6801758-.8601074,1.1402588-3.7009277-1.2402344-6.0812988-3.4407959-7.1616211-6.6414795-.7202148.7202148-1.6203613,1.3803711-2.6806641,2.0004883v3.1206055c2.0205078-.2800293,3.5808105-.5400391,4.7011719-.7801514l.119873.460083c-2.6403809.7402344-5.1809082,1.300293-7.621582,1.7004395-.0800781.4400635-.1799316.6600342-.3400879.6600342-.2800293,0-.5400391-.5600586-.8200684-1.6602783.9602051-.0600586,1.9404297-.1400146,2.9406738-.2601318v-2.7005615c-1.300293.6601562-2.8208008,1.1802979-4.5810547,1.6003418l-.2399902-.4400635c3.0004883-.8601074,5.3210449-2.1004639,7.0014648-3.7008057h-6.581543l-.1999512-.4400635h7.4416504v-2.3804932c1.2001953.0400391,1.7802734.1800537,1.7802734.4400635,0,.1400146-.2399902.3000488-.7402344.4801025v1.4603271h5.4414062l.9401855-.84021c.5200195.3601074.9602051.6801758,1.2602539.9602051l-.1801758.3200684h-7.081543Zm-4.2807617-5.9812012c0,.1400146-.2202148.2600098-.6201172.3800049v4.4609375h-1.0402832V3.8408203c-.9001465.9002686-1.800293,1.5803223-2.7006836,2.1004639l-.2600098-.3400879c1.840332-1.4002686,3.2807617-3.2006836,4.361084-5.401123.9401855.3200684,1.4401855.6000977,1.4401855.8602295,0,.1600342-.2600098.2600098-.7802734.2800293-.3798828.5800781-.8000488,1.1402588-1.2802734,1.7003174.6003418.0800781.8803711.2401123.8803711.420166Zm5.361084.3800049c.8601074,1.2802734,1.9003906,2.180542,3.1806641,2.6806641.3601074.1199951.5800781.1999512.7001953.1999512.3200684,0,.5600586-.7401123.7202148-2.220459l.4399414.2000732c-.0200195.1800537-.0200195.4000244-.0200195.6201172,0,1.1002197.2402344,1.6604004.7001953,1.6802979-.0800781.6202393-.4401855.9403076-1.0603027.9403076-.5800781,0-1.2001953-.1600342-1.840332-.4401855-1.720459-.7601318-3.0205078-1.9403076-3.9208984-3.5806885l-3.8007812.2199707-.2800293-.460083,3.8608398-.2199707c-.4401855-.9602051-.7202148-2.0604248-.880127-3.3007812,1.1601562,0,1.7602539.1199951,1.7602539.3601074,0,.1400146-.1999512.2800293-.6000977.4400635.1401367.9802246.4001465,1.800415.7802734,2.4405518l3.8808594-.2401123.7800293-1.0802002c.4401855.3200684.840332.6801758,1.2802734,1.0802002l-.1799316.3601074-5.5012207.3200684Zm.380127-3.3807373c1.6604004.380127,2.4804688.9202881,2.4804688,1.6403809,0,.4400635-.1999512.6601562-.6201172.6601562-.2399902,0-.4001465-.1600342-.5400391-.460083-.2402344-.5800781-.7802734-1.0603027-1.5405273-1.4803467l.2202148-.3601074Z"/>
      <path class="cls-2" d="m105.643685,14.9632568c.5200195-1.3803711.8200684-3.0206299.9401855-4.9810791,1.0603027.2000732,1.5803223.4200439,1.5803223.6401367,0,.1199951-.1801758.2399902-.5600586.3200684-.3400879,1.760376-.8603516,3.1606445-1.5803223,4.2209473l-.380127-.2000732Zm5.3010254-12.6627197c.9001465.4000244,1.340332.7200928,1.340332,1.0002441,0,.1600342-.2399902.2199707-.7402344.2199707-.9001465,1.4003906-2.0202637,2.7806396-3.4006348,4.2009277,1.2001953-.0999756,2.1203613-.1600342,2.8205566-.2399902-.1398926-.3601074-.4001465-.7802734-.8200684-1.3203125l.2800293-.3000488c1.2802734.9602051,1.9404297,1.8603516,1.9404297,2.7205811,0,.460083-.2001953.6800537-.6000977.6800537-.2600098,0-.420166-.1999512-.4602051-.6601562-.0200195-.1999512-.0800781-.4200439-.1599121-.6401367-.4602051.1000977-.9602051.2000732-1.5205078.3200684v8.1018066h-1.0002441v-7.9217529c-.4799805.0800781-1.1201172.1800537-1.9401855.2601318-.1201172.4000244-.2402344.6000977-.3601074.6000977-.1801758,0-.4001465-.5201416-.6201172-1.5202637.6201172-.0200195,1.2202148-.0400391,1.7802734-.0600586,1.4003906-1.8204346,2.5605469-3.6407471,3.4606934-5.4411621Zm-2.0202637-2.3005371c.9602051.3601074,1.4401855.6601562,1.4401855.880249,0,.1400146-.2199707.2399902-.6601562.2600098-.5400391.8602295-1.1401367,1.7003174-1.8203125,2.5205078.6201172.5401611.9401855,1.0603027.9401855,1.4803467,0,.420166-.2001953.6401367-.5800781.6401367-.2602539,0-.4401855-.2000732-.5800781-.6201172-.2802734-.7801514-.840332-1.5003662-1.6403809-2.1804199l.2199707-.3200684c.4401855.1999512.8601074.4400635,1.2602539.7000732.4799805-.8201904.9401855-1.9603271,1.4204102-3.3607178Zm1.5202637,9.762085c1.1000977,1.1402588,1.6604004,2.220459,1.6604004,3.2407227,0,.5001221-.2001953.7401123-.6000977.7401123-.3203125,0-.4602051-.2399902-.5002441-.7401123-.0400391-1.0002441-.3400879-2.0003662-.880127-3.0406494l.3200684-.2000732Zm4.1208496-.0599365l.6401367-.8001709c.7001953.6401367,1.0603027,1.0401611,1.0603027,1.1801758,0,.1000977-.0800781.1600342-.1801758.2200928l-.420166.2000732c-.7399902,2.300415-2.0803223,3.980835-4.0407715,5.1010742l-.2800293-.3601074c1.6003418-1.2402344,2.6806641-2.9406738,3.3208008-5.1010742h-2.5405273l-.1601562-.4400635h2.6005859Zm2.1203613-2.0804443h-2.340332v.8201904h-1.0202637V2.0405273c.4199219.1799316.8000488.3599854,1.1401367.5400391h1.5004883c.2199707-.7001953.3598633-1.4803467.4599609-2.3404541,1.1601562.1600342,1.7404785.3599854,1.7404785.6000977,0,.1199951-.2402344.2600098-.7202148.3601074-.3601074.6201172-.6601562,1.0802002-.9001465,1.380249h2.9804688l.6601562-.8201904c.7202148.5601807,1.0803223.9401855,1.0803223,1.1002197,0,.0800781-.0400391.1800537-.1799316.2401123l-.420166.2600098v5.0611572h-1.0002441v-.8001709h-1.9604492c.2600098,1.2602539.7402344,2.4205322,1.4204102,3.5007324.6000977-.6801758,1.2001953-1.5404053,1.7802734-2.6005859.7802734.5401611,1.1601562.9001465,1.1601562,1.1402588,0,.1400146-.119873.2199707-.3798828.2199707-.0800781,0-.1801758-.0198975-.3000488-.0599365-.4602051.5001221-1.1203613,1.0601807-1.9804688,1.7003174.8000488,1.1402588,1.8203125,2.1004639,3.0805664,2.9206543-.380127.2600098-.7202148.6000977-.9602051,1.0002441-1.9604492-1.6403809-3.2407227-3.7408447-3.8408203-6.3414307v5.8012695c0,.920166-.5600586,1.3603516-1.6804199,1.340332-.0197754-.3601074-.1999512-.6201172-.5400391-.7402344-.1599121-.0599365-.6201172-.1600342-1.300293-.3200684v-.460083c.7402344.1000977,1.3803711.1400146,1.9404297.1400146.380127,0,.5800781-.1800537.5800781-.5200195v-6.7214355Zm2.9807129-2.8206787v-1.760376h-5.3210449v1.760376h5.3210449Zm0,2.3804932v-1.9204102h-5.3210449v1.9204102h5.3210449Z"/>
      <path class="cls-2" d="m143.4469077.2200928v.7801514h-3.640625v12.1826172h-.800293V.2200928h4.440918Z"/>
      <path class="cls-2" d="m154.504769,5.8813477c0,.1599121-.2402344.3399658-.7001953.5200195v9.9821777h-1.0603027V6.9014893c-.8000488,1.3603516-1.6804199,2.5805664-2.6606445,3.6807861l-.3798828-.3000488c1.9802246-2.640625,3.4606934-5.9412842,4.5209961-9.9221191,1.1401367.3200684,1.7202148.6201172,1.7202148.9001465,0,.1800537-.2600098.2801514-.8200684.3400879-.5202637,1.4403076-1.0603027,2.7205811-1.6003418,3.8608398.6601562.0800781.9802246.2200928.9802246.420166Zm5.0810547-4.4610596c1.2802734.2601318,1.9003906.5401611,1.9003906.8001709,0,.1600342-.2600098.3200684-.800293.4602051-1.0002441,4.2808838-2.1203613,7.9416504-3.3605957,10.9822998,2.5004883-.2601318,4.6008301-.6000977,6.28125-.8201904h.1601562c-.6201172-1.2202148-1.4204102-2.4605713-2.4606934-3.7208252l.3200684-.3200684c1.6403809,1.5203857,2.8408203,2.9406738,3.6008301,4.3009033.420166.7802734.6401367,1.4003906.6401367,1.8804932,0,.5400391-.2199707.8400879-.6601562.8400879-.2800293,0-.4599609-.1600342-.5400391-.5001221-.1601562-.6401367-.380127-1.3201904-.7001953-2.0003662l-.3400879.0799561c-2.4604492.6601562-5.1210938,1.1003418-7.9216309,1.5404053-.1201172.4801025-.2399902.7200928-.380127.7200928-.2399902,0-.5-.5800781-.7602539-1.760376.9404297-.0799561,1.6604004-.1400146,2.1206055-.1800537,1.2602539-3.9407959,2.2404785-8.041626,2.9006348-12.3026123Z"/>
      <path class="cls-2" d="m180.6456381,8.9819336v5.8212891c0,.9401855-.7001953,1.4403076-2.0605469,1.4403076,0-.3400879-.1999512-.6002197-.6201172-.7402344-.3601074-.1400146-1.1201172-.3000488-2.3005371-.5001221v-.4799805c1.5202637.1400146,2.5605469.1999512,3.140625.1999512.4602051,0,.7001953-.1999512.7001953-.5800781v-5.1611328h-7.4814453l-.1601562-.460083h7.5617676v-3.2207031c.3198242.0200195.6201172.0400391.920166.0999756,1.300293-.9401855,2.3603516-1.840332,3.1806641-2.7005615h-9.2419434l-.1801758-.460083h9.4221191l.8200684-.920166c.9001465.7202148,1.3803711,1.2001953,1.3803711,1.4202881,0,.0800781-.0800781.1600342-.2600098.2000732l-.6401367.1800537c-1.1003418.8001709-2.3605957,1.6203613-3.8208008,2.4205322.1799316.0799561.2800293.1600342.2800293.2399902,0,.1199951-.2402344.2800293-.7202148.460083v2.2805176h5.0610352l1.0603027-1.3203125c.4399414.380127.9001465.84021,1.340332,1.4002686l-.2202148.380127h-7.161377Z"/>
      <path class="cls-2" d="m194.4437338,16.2635498v-.7801514h3.6408691V3.3007812h.8000488v12.9627686h-4.440918Z"/>
      <path class="cls-2" d="m217.0040366,11.3225098c.079834.6201172.119873,1.1002197.119873,1.4401855,0,.9602051-.119873,1.7004395-.380127,2.2205811-.1799316.3399658-.3999023.5200195-.6401367.5200195-.3598633,0-.5400391-.1600342-.5400391-.5001221,0-.0999756.0600586-.2600098.1999512-.5.5402832-.84021.8203125-1.8604736.8203125-3.0007324,0-.0799561,0-.1400146-.0200195-.2199707l.4401855.0400391Zm3.4206543-2.0805664h1.1401367l.7202148-.8601074c.6601562.5600586,1.0002441.9001465,1.0002441,1.0601807,0,.0400391-.0400391.0800781-.1000977.1600342l-.4399414.3200684c-.0200195,3.2006836-.3000488,5.1411133-.8203125,5.8012695-.3200684.4200439-.8400879.6201172-1.5603027.6201172-.0200195-.3601074-.2199707-.5800781-.6000977-.7200928-.1799316-.0600586-.6401367-.1400146-1.3603516-.2401123v-.460083c.7202148.0600586,1.3603516.0999756,1.9404297.0999756s.9001465-.2199707,1.0002441-.6800537c.2600098-1.0202637.380127-2.5805664.4001465-4.6610107h-4.0410156v.7801514h-1.0200195V.880249c.3400879.1199951.7199707.3000488,1.1801758.5400391h3.8208008l.8000488-1.0001221c.4602051.4200439.800293.7801514,1.0002441,1.0802002l-.1799316.3601074h-2.8806152v2.0203857h.8000488l.7402344-.9602051c.3200684.3200684.6201172.6801758.9401855,1.1002197l-.1799316.3200684h-2.3005371v2.1605225h.8000488l.7602539-.9802246c.3400879.3800049.6601562.7601318.9602051,1.1202393l-.2199707.3000488h-2.3005371v2.300415Zm-2.5205078,1.9804688c.4599609.9602051.6801758,1.800415.6801758,2.4605713,0,.6000977-.1801758.9001465-.5603027.9001465-.2600098,0-.3798828-.1199951-.3798828-.4000244,0,0,0-.0600586.0200195-.1201172,0-.0799561.0197754-.1400146.0197754-.1999512.0200195-.3000488.0400391-.6002197.0400391-.880249,0-.5001221-.0598145-1.0401611-.1999512-1.6403809l.380127-.1199951Zm-.2001953-7.3415527h1.7404785V1.8604736h-1.7404785v2.0203857Zm1.7404785.460083h-1.7404785v2.1605225h1.7404785v-2.1605225Zm0,4.901001v-2.300415h-1.7404785v2.300415h1.7404785Zm-.5,1.6804199c.7199707.9401855,1.0600586,1.7803955,1.0600586,2.5205078,0,.4001465-.1599121.6000977-.5.6000977-.1601562,0-.3000488-.0799561-.3400879-.2199707,0-.0200195-.0200195-.2401123-.0400391-.6801758-.0200195-.7001953-.1999512-1.4002686-.5600586-2.0604248l.380127-.1600342Zm1-.380127c.8603516.7202148,1.300293,1.4403076,1.300293,2.1204834,0,.380127-.1398926.5601807-.4399414.5601807-.2202148,0-.3601074-.2000732-.380127-.5601807-.0600586-.6601562-.3200684-1.300293-.7602539-1.9204102l.2800293-.2000732Zm10.0021973-8.8417969l.7001953-.880249c.7001953.6000977,1.0402832.9602051,1.0402832,1.1202393,0,.0800781-.0600586.1600342-.1601562.2401123l-.4399414.2800293v6.0412598h-1.0202637v-1.1202393h-2.0805664c.0200195.2200928.0600586.420166.1000977.6601562.4401855,2.8405762,1.840332,5.1611328,4.1608887,6.9415283-.4001465.2800293-.7402344.6201172-1.0202637,1.0601807-2.1604004-2.1405029-3.4206543-5.0211182-3.7807617-8.6618652h-1.9804688c-.0200195,4.1608887-.9001465,7.161499-2.640625,9.0019531l-.3798828-.3000488c1.3200684-1.9604492,1.9602051-4.8811035,1.9602051-8.8218994V1.0803223c.5603027.2600098.9602051.4799805,1.220459.6201172h4.3208008Zm-4.480957.460083v4.7609863h4.6010742V2.1605225h-4.6010742Z"/>
      <path class="cls-2" d="m251.4666831,14.5831299c-.3400879.2800293-.920166-.0999756-1.340332-.3200684s-1.1604004-.6000977-2.0004883-.9001465c-.3601074-.1400146-.7202148-.2601318-1.0603027-.3601074.0400391.460083.0200195,1.0002441-.2199707,1.3602295-.3000488.4802246-.7202148.7802734-1.2402344.9002686s-1.1203613.1600342-1.8203125.1199951c-.7001953-.0200195-1.340332-.2800293-1.9003906-.5600586-.5603027-.3000488-.9204102-.9002686-.9802246-1.340332-.0600586-.4801025.119873-.9802246.6201172-1.340332.5200195-.3599854,1.420166-.6201172,2.2004395-.6401367.6801758-.0200195,1.4802246.0600586,2.2004395.1600342,0-.1199951,0-.2600098-.0200195-.3599854-.0200195-.6201172-.0800781-1.5203857-.0800781-2.1204834,0-.0999756-.0200195-.2000732-.0200195-.3200684-.0998535,0-.1599121.0200195-.2600098,0-.7202148,0-1.5002441-.0999756-2.0402832-.2000732-.5402832-.1199951-1.2404785-.380127-1.7805176-.6601562-.2399902-.1199951-.380127-.4000244-.2199707-.5600586.119873-.1400146.3000488-.1000977.5400391-.0200195.1999512.0799561.4001465.1199951.920166.2600098.5600586.1600342,1.4404297.1800537,2.3005371.2000732h.5c-.0200195-.4400635-.0200195-.8602295-.0200195-1.1402588s0-.7200928.0200195-1.1602783c-.5400391.1000977-1.1601562.2200928-1.5603027.2401123-.6999512.0200195-1.300293-.1199951-1.800293-.3200684-.5002441-.1800537-.920166-.380127-1.300293-.6000977-.3200684-.2000732-.5400391-.5401611-.4001465-.7001953.1801758-.1800537.4401855,0,.7001953.1199951.2800293.1199951.6401367.2801514,1.0603027.380127.4199219.0999756,1.1000977.1800537,1.7602539.1199951.4401855-.0400391,1.0402832-.1199951,1.5603027-.2199707,0-.0400391.0200195-.0800781.0200195-.1201172,0-.6401367-.0600586-1.2602539-.0998535-1.7203369-.0400391-.4801025-.2202148-.84021-.4802246-1.0802002-.2399902-.2401123-.3601074-.5201416-.2199707-.7202148.119873-.1800537.4799805-.1800537.9001465.0400391s.7802734.6401367,1.0002441,1.1002197c.1999512.460083.0400391,1.1402588-.0200195,1.7403564-.0200195.1600342-.0400391.3601074-.0600586.5802002.5600586-.1400146,1.2402344-.3400879,1.6604004-.5001221.5200195-.2000732,1.0402832-.460083,1.4802246-.5201416.420166-.0600586.800293.0600586,1.1003418.3601074.3000488.2800293.0600586.5600586-.2800293.7000732-.3601074.1401367-1.2202148.3200684-1.9604492.4801025-.6801758.1600342-1.5002441.3400879-2.0805664.460083-.0200195.2000732-.0397949.4001465-.0397949.6002197-.0400391.5800781-.0600586,1.2602539-.0800781,1.8203125.2800293-.0198975.5-.039917.7399902-.0599365.4401855-.0400391.9802246-.1600342,1.2802734-.2601318.3200684-.0999756.2602539-.2800293.0400391-.4200439-.2199707-.1199951-.4599609-.2600098-.6801758-.4001465-.3000488-.1799316-.4799805-.4000244-.5600586-.5600586-.0998535-.1800537.0400391-.3601074.3000488-.1800537.3000488.2200928.6601562.4400635,1.2602539.6401367.4602051.1600342.9802246.2800293,1.2802734.3000488s.5402832.1800537.5202637.460083c-.0200195.2801514-.420166.5201416-.8203125.7202148-.4001465.1800537-1.300293.460083-1.9804688.5600586-.3598633.0600586-.880127.1201172-1.3601074.1800537,0,.5401611.0200195,1.1602783.0600586,1.5803223.0397949.420166.119873.9802246.1999512,1.4403076.6000977.1401367,1.2402344.3200684,1.8203125.5001221.7202148.2401123,1.5402832.5001221,2.1804199.8602295.6801758.3601074.9003906,1.1202393.5603027,1.4002686Zm-5.5212402-1.9204102c-.0600586,0-.1201172-.0200195-.1801758-.0400391-.5200195-.1199951-1.2202148-.1800537-1.7001953-.1999512-.4602051-.0200195-.8603516,0-1.300293.0599365-.4602051.0800781-.840332.2800293-.9401855.7001953-.1000977.380127.1398926.8001709.5400391,1.0002441.420166.1999512.9001465.3200684,1.5002441.3000488.5803223,0,1.1003418-.1800537,1.5205078-.460083.4199219-.2801514.5-.6401367.5400391-1.0402832,0-.0999756.0200195-.2000732.0200195-.3200684Z"/>
      <path class="cls-2" d="m261.8040854,5.3011475c-.2600098-.2600098-.4799805-.7401123-.2800293-.9602051.1599121-.2000732.5-.0599365.7602539.0400391.3000488.1199951.6000977.2200928,1.1801758.2000732.6000977,0,1.7402344-.3601074,2.3803711-.5601807.6201172-.1800537,2.0004883-.6201172,3.2407227-.9401855,1.2004395-.3200684,2.5805664-.6601562,3.2207031-.7601318.6201172-.1000977,1.4404297-.0400391,1.7805176.1800537.3200684.1999512.5200195.5600586.3999023.8001709-.1398926.2399902-.3798828.2399902-.6999512.1799316-.3200684-.039917-.7202148-.1400146-1.2004395-.1599121-.4799805,0-1.4001465.1199951-2.220459.2399902-.0400391,0-.079834.0200195-.1398926.0200195-.2600098.2199707-.6801758.5201416-1.0202637.8201904-.4802246.4400635-.8203125.8201904-1.1203613,1.5002441-.2199707.5201416-.3000488,1.260376-.4199219,2.0405273-.1401367.7401123-.2001953,2.0203857-.0600586,3.1606445.0800781.6801758.3200684,1.1402588.7800293,1.5003662.380127.3200684.9802246.4400635,1.6203613.4000244.6801758-.0600586,1.1003418-.0200195,1.4204102.0400391.3200684.0799561.6601562.3400879.8200684.5800781.1601562.2401123-.0200195.5401611-.4399414.5802002-.4602051.039917-1.1604004.0599365-1.9404297,0-.7602539-.0600586-1.5002441-.2401123-2.1604004-.7802734-.5202637-.4200439-.7602539-.9802246-.9003906-1.840332-.1398926-.9001465-.1599121-1.8603516-.0397949-2.8806152.1398926-1.0603027.3200684-1.800415.4599609-2.4205322.1401367-.6401367.4802246-1.2202148.880127-1.6203613.2402344-.2399902.6401367-.6000977.9602051-.8201904-.3400879.0800781-.6801758.1800537-1.0400391.3200684-.7402344.2800293-1.9204102.7801514-2.5405273,1.0202637-.6601562.2399902-1.3803711.5800781-2.0805664.6401367-.7202148.0799561-1.2802734-.2000732-1.6003418-.5201416Zm10.5422363,1.380249c-.2800293-.3000488-.6601562-.6000977-1.1601562-.9401855-.1601562-.1199951-.2600098-.2600098-.1601562-.4000244.0600586-.0800781.2402344-.0800781.3400879-.0600586.3000488,0,.6601562.1000977,1.0803223.2401123.4199219.1400146,1.0202637.460083,1.2001953.8201904.1801758.3200684,0,.6401367-.2800293.7200928-.2800293.0800781-.7202148-.0999756-1.0202637-.380127Zm1.6003418-.8400879c-.3000488-.3601074-.6601562-.5601807-1.2402344-.8201904-.1799316-.0800781-.2600098-.2601318-.1799316-.380127.0598145-.1199951.2199707-.0799561.3398438-.0799561.300293-.0200195.6801758.0400391,1.1003418.1800537.4001465.1199951,1.0002441.4000244,1.2202148.7401123.2001953.3200684.0400391.6601562-.2600098.7401123-.2600098.1000977-.7402344-.0799561-.9802246-.3800049Z"/>
      <path class="cls-2" d="m286.0645835,7.9816895c0,.1201172-.2199707.2601318-.6601562.380127v8.0217285h-1.0002441v-7.8216553c-.7800293.9401855-1.5803223,1.7803955-2.4804688,2.5405273l-.3200684-.3200684c1.800293-1.9003906,3.3208008-4.2608643,4.5410156-7.1414795.920166.3399658,1.380127.6401367,1.380127.920166,0,.1600342-.2199707.2600098-.7199707.2800293-.5603027,1.0802002-1.1003418,2.0004883-1.6403809,2.7406006.6000977.0799561.9001465.2200928.9001465.4000244Zm-4.3208008-2.4204102c1.7602539-1.4603271,3.140625-3.2407227,4.1606445-5.321167.9802246.4000244,1.4604492.7401123,1.4604492,1.0201416,0,.1600342-.2600098.2401123-.7802734.2401123-1.2001953,1.7803955-2.720459,3.2407227-4.6008301,4.4208984l-.2399902-.3599854Zm10.7822266,8.9818115c.8000488.2200928,1.8203125.3200684,3.0605469.3200684.7802734,0,1.6804199-.039917,2.7207031-.1199951-.2800293.380127-.4802246.7801514-.6000977,1.1802979h-1.9204102c-2.5205078,0-4.3811035-.5601807-5.5612793-1.6403809-.6201172-.6000977-1.1203613-1.4202881-1.5202637-2.4605713-.4802246,1.7404785-1.2602539,3.2407227-2.3806152,4.5610352l-.380127-.2800293c1.2004395-1.9003906,1.9204102-4.3609619,2.1806641-7.3615723,1.1201172.2600098,1.6801758.5,1.6801758.7200928,0,.1400146-.2399902.2401123-.7199707.3200684-.0800781.6201172-.1401367,1.0402832-.1801758,1.2402344.6000977,1.4603271,1.4802246,2.5206299,2.5605469,3.100708v-6.7614746h-4.5810547l-.1999512-.460083h4.7810059v-3.0006104h-3.5808105l-.1799316-.4400635h3.7607422V.2200928c1.2202148.0200195,1.8203125.1800537,1.8203125.460083,0,.1800537-.2399902.3400879-.7600098.5001221v2.2805176h2.260498l.880127-1.2203369c.4401855.4001465.8400879.84021,1.2001953,1.2802734l-.1799316.380127h-4.1608887v3.0006104h3.2207031l.9401855-1.2602539c.3601074.3601074.7202148.7801514,1.0800781,1.2202148l.1401367.1800537-.1999512.3200684h-5.1811523v3.0606689h2.3603516l.9003906-1.1402588c.3598633.3200684.6801758.6601562.9602051,1.0402832l.1398926.1999512-.1999512.3400879h-4.1608887v3.6807861Z"/>
      <path class="cls-2" d="m312.6055991,6.701416v4.6409912c0,.880249-.6201172,1.3203125-1.8603516,1.300293,0-.3400879-.1801758-.5800781-.5002441-.7401123-.2600098-.1400146-.7800293-.2800293-1.5803223-.4001465v-.460083c.9802246.1000977,1.7404785.1600342,2.3605957.1600342.3400879,0,.5200195-.1800537.5200195-.5200195v-3.980957h-7.4616699l-.1799316-.460083h3.6008301V1.9003906c1.1801758.0600586,1.7802734.2000732,1.7802734.4401855,0,.1400146-.2600098.3000488-.7402344.4801025v3.4206543h3.0007324V.2401123c1.2402344.0200195,1.8803711.1800537,1.8803711.460083,0,.1600342-.2800293.3400879-.8200684.5001221v1.9603271h3.3007812l.880127-1.2202148c.5600586.5401611.9802246.9802246,1.2202148,1.340332l-.2199707.3400879h-5.1811523v2.6204834h5.2810059l.9401855-1.2202148c.4602051.4000244.9003906.84021,1.2802734,1.3203125l-.1999512.3599854h-7.3015137Zm-8.4418945,5.9412842c1.4804688-1.2402344,2.7207031-2.9205322,3.6809082-5.0410156,1.0400391.4400635,1.5603027.7801514,1.5603027,1.0201416,0,.1600342-.2800293.2601318-.880127.2601318-1.0402832,1.760376-2.4006348,3.1206055-4.0810547,4.1008301l-.2800293-.3400879Zm.0200195,3.3406982c5.2011719-.9401855,9.0219727-2.9805908,11.4423828-6.1212158.9003906.4801025,1.3603516.8601074,1.3603516,1.1202393,0,.1400146-.1599121.2399902-.5.2199707l-.420166-.0400391c-1.8803711,1.9005127-4.0007324,3.2807617-6.3413086,4.0809326-1.4204102.5001221-3.1806641.880249-5.3012695,1.1802979l-.2399902-.4401855Zm11.0224609-8.5817871c1.5202637.6401367,2.6804199,1.340332,3.4206543,2.1405029.5400391.5600586.8000488,1.0401611.8000488,1.4802246,0,.460083-.1999512.7001953-.6201172.7001953-.2600098,0-.4799805-.2200928-.6799316-.6801758-.5402832-1.1402588-1.6003418-2.220459-3.1608887-3.3006592l.2402344-.3400879Z"/>
      <path class="cls-2" d="m331.0645835,14.1030273v-.880127c.9602051-1.2403564,2.2004395-2.640625,3.6606445-4.1809082,1.840332-1.9404297,2.7607422-3.4807129,2.7607422-4.6409912,0-.7202148-.2202148-1.3203125-.6401367-1.8204346-.4602051-.5001221-1.0402832-.7401123-1.7404785-.7401123-.7802734,0-1.4602051.2399902-2.0004883.7401123-.2800293.2600098-.4399414.6000977-.5200195.9802246.420166.2000732.6201172.5001221.6201172.920166,0,.6401367-.3200684.9802246-.9602051.9802246s-.9802246-.3601074-.9802246-1.0802002c0-.7202148.2600098-1.3603516.8000488-1.9204102.7802734-.8001709,1.8005371-1.2003174,3.0808105-1.2003174.7600098,0,1.4602051.1600342,2.0603027.4602051,1.1203613.6000977,1.6604004,1.5402832,1.6604004,2.8005371,0,.8001709-.3200684,1.6403809-.9401855,2.5004883-.380127.5001221-1.1401367,1.2802734-2.3005371,2.3405762-1.6203613,1.4802246-2.760498,2.7205811-3.4807129,3.6607666h4.361084c.9001465,0,1.5202637-.2401123,1.8203125-.7601318.1999512-.3200684.3200684-.8602295.4401855-1.6203613h.4199219v3.4606934h-8.121582Z"/>
      <path class="cls-2" d="m353.0250327,7.121582h1.1003418c.9602051,0,1.6804199-.2800293,2.1804199-.84021.4401855-.4801025.6601562-1.1402588.6601562-1.9604492,0-.6201172-.1601562-1.1602783-.5-1.5803223-.4401855-.6000977-1.0803223-.9001465-1.8806152-.9001465-1.1801758,0-1.9404297.4000244-2.300293,1.2402344.3798828.1600342.5800781.4400635.5800781.84021,0,.6401367-.3200684.9602051-.9401855.9602051-.6601562,0-.9802246-.3400879-.9802246-1.0402832,0-.6000977.3000488-1.1601562.9001465-1.6602783.7402344-.6202393,1.6604004-.9202881,2.7805176-.9202881.8603516,0,1.6003418.1800537,2.2004395.5601807.9802246.5800781,1.4604492,1.4002686,1.4604492,2.5004883,0,1.8604736-1.1203613,2.9406738-3.3808594,3.1806641.9204102.1000977,1.6604004.3001709,2.260498.6601562,1.0202637.6002197,1.5402832,1.5203857,1.5402832,2.7005615,0,1.3203125-.5200195,2.2805176-1.5803223,2.9206543-.7199707.420166-1.5803223.6601562-2.6604004.6601562-1.0803223,0-1.9804688-.2200928-2.7006836-.6801758-.8200684-.5200195-1.2602539-1.1402588-1.2602539-1.8803711,0-.1800537.0600586-.3200684.1201172-.460083.1799316-.3601074.4599609-.5601807.880127-.5601807.6201172,0,.9401855.3200684.9401855.9401855,0,.3400879-.1401367.6002197-.420166.7402344.3200684.8601074,1.1403809,1.3203125,2.4206543,1.3203125.8601074,0,1.5402832-.2801514,2.0603027-.8201904.5402832-.5601807.8203125-1.2802734.8203125-2.2005615,0-1.0802002-.380127-1.8803711-1.1804199-2.4204102-.5200195-.3601074-1.1801758-.5401611-2.0202637-.5401611h-1.1003418v-.7601318Z"/>
      <path class="cls-2" d="m368.9437338,8.7219238c2.4807129-2.0604248,4.2810059-4.7410889,5.4211426-8.041748,1.0803223.380127,1.6203613.6801758,1.6203613.920166,0,.1600342-.2399902.2800293-.7600098.4001465-.9003906,1.8803711-1.8605957,3.4006348-2.9006348,4.5408936-.8203125.880249-1.8205566,1.7403564-3.0808105,2.5406494l-.3000488-.3601074Zm2.9206543-.920166l-.1398926-.4602051h8.2817383l.6801758-.8001709c.6999512.5401611,1.0600586.9002686,1.0600586,1.0803223,0,.0799561-.0600586.1800537-.1799316.2600098l-.380127.2800293c-.0200195,3.5407715-.3000488,5.8413086-.880127,6.9014893-.380127.7202148-1.1003418,1.0802002-2.1005859,1.0802002,0-.3599854-.2399902-.6201172-.6801758-.8001709-.3398438-.1400146-.9799805-.3000488-1.9003906-.4400635v-.4801025c1.2004395.1600342,2.1606445.2401123,2.8208008.2401123.6201172,0,1.0400391-.380127,1.2202148-1.1202393.3000488-1.2602539.4599609-3.1806641.4799805-5.7412109h-4.2807617c-.1801758,2.1604004-.6801758,3.9007568-1.5405273,5.2010498-.920166,1.4202881-2.3603516,2.5205078-4.3408203,3.3406982l-.2600098-.4000244c2.1003418-1.1202393,3.5407715-2.6806641,4.2609863-4.6010742.3999023-1.0601807.6401367-2.260376.7399902-3.5406494h-2.8605957Zm6.701416-7.121582c1.6604004,2.9006348,3.6809082,5.0610352,6.0612793,6.4814453-.3601074.2600098-.6601562.6201172-.9401855,1.1002197-1.7602539-1.3803711-3.2006836-3.0007324-4.2807617-4.8410645-.4001465-.7001953-.840332-1.5404053-1.300293-2.4805908l.4599609-.2600098Z"/>
    </g>
    <line class="cls-1" y1="39.5787354" x2="422.1766607" y2="39.5787354"/>
    <g>
      <path class="cls-2" d="m21.7296836,65.8460693v-3.2806396h-5.2811279l-.1800537-.460083h13.7429199l1.0002441-1.2402344.2000732.1799316c.3800049.3601074.7401123.7202148,1.0802002,1.1402588l-.1800537.380127h-5.9613037v3.2806396h3.520752l.7202148-.880127c.7601318.6201172,1.1402588,1.0002441,1.1402588,1.1602783,0,.0799561-.0600586.1400146-.1601562.2199707l-.4799805.3000488v9.9022217h-1.0402832v-1.5203857h-11.2424316v1.5203857h-1.0601807v-11.2424316c.3400879.1400146.7401123.3200684,1.2202148.5400391h2.9606934Zm-3.1207275.4401855v8.3017578h11.2424316v-8.3017578h-3.7008057v4.020874c0,.3599854.2800293.5400391.8602295.5400391.5001221,0,.8201904-.2000732.920166-.5800781.1400146-.5401611.2200928-1.3203125.3000488-2.3205566l.4801025.1600342c0,1.0603027.0600586,1.7803955.1600342,2.1204834.0800781.3000488.2800293.4400635.5601807.4400635-.0200195.5601807-.2200928.8602295-.6202393.9602051-.3200684.0800781-.8601074.1400146-1.7403564.1400146-.7200928,0-1.2202148-.0799561-1.5002441-.1999512-.3000488-.1400146-.460083-.5001221-.460083-1.0402832v-4.2408447h-2.3205566c-.0600586,2.9205322-1.2202148,5.0810547-3.4406738,6.4613037l-.3000488-.4000244c1.7003174-1.340332,2.4404297-3.3007812,2.6605225-5.8613281l.0200195-.1999512h-3.1207275Zm6.5014648-.4401855v-3.2806396h-2.3205566v3.2806396h2.3205566Z"/>
      <path class="cls-2" d="m49.1508261,65.6661377c.2600098,3.1806641.9401855,5.7211914,2.1204834,7.581543.6201172.9602051,1.0401611,1.4403076,1.2802734,1.4403076.3000488,0,.5800781-1.1402588.8400879-3.4606934l.4801025.2199707c-.1199951,1.2802734-.1600342,2.2005615-.1600342,2.7806396,0,.920166.2000732,1.4603271.5802002,1.6003418-.1199951.5601807-.3601074.8201904-.7601318.8201904-.7001953,0-1.5604248-.6000977-2.5006104-1.8204346-1.5603027-1.9803467-2.5405273-5.0209961-2.9605713-9.0618896h-9.5820312l-.2000732-.460083h9.7420654c-.0800781-.9802246-.1600342-2.5605469-.1800537-4.7410889,1.2003174.0600586,1.7803955.2200928,1.7803955.4602051,0,.1400146-.2200928.2800293-.6801758.4400635.0200195,1.7203369.0800781,2.9805908.1400146,3.7607422h3.0806885l.84021-1.1402588.460083.4801025c.2399902.2200928.460083.4801025.6601562.7602539l-.1800537.3400879h-4.8010254Zm-4.5009766,8.2817383c1.2202148-.2200928,2.5605469-.5201416,4.020874-.8602295v.5601807l-.920166.2800293c-2.9206543.84021-5.5812988,1.4803467-8.041748,1.9404297-.0800781.460083-.1800537.7000732-.3400879.7000732-.2200928,0-.5401611-.5600586-.880127-1.7003174,1.3201904-.1600342,1.9803467-.2399902,2.0003662-.2399902v-6.5814209c1.1602783.0999756,1.7403564.2600098,1.7403564.4801025,0,.1400146-.2399902.2800293-.7200928.4400635v5.5211182c.9801025-.1600342,1.6802979-.2600098,2.1403809-.3599854v-7.6816406c1.1002197.0999756,1.6604004.2600098,1.6604004.4801025,0,.1600342-.2000732.3000488-.6601562.4400635v2.4205322h1.5402832l.84021-1.2402344c.380127.4200439.6801758.8001709.9001465,1.1601562l.1201172.2000732-.1800537.3200684h-3.2207031v3.7208252Zm.1600342-11.3824463l.8602295-1.1402588c.4200439.4200439.7801514.8201904,1.1202393,1.2802734l-.2200928.3000488h-6.5413818l-.1800537-.4400635h4.9610596Zm5.401123-1.1602783c1.5603027.5401611,2.3005371,1.2003174,2.3005371,1.9804688,0,.460083-.2000732.6601562-.6201172.6601562-.3000488,0-.4801025-.1600342-.5802002-.460083-.2199707-.7602539-.6401367-1.3803711-1.3201904-1.8804932l.2199707-.3000488Z"/>
      <path class="cls-2" d="m60.5285117,64.8059082c1.5203857.5201416,2.260498,1.2202148,2.260498,2.0203857,0,.460083-.1800537.6601562-.5600586.6601562-.3200684,0-.5201416-.2000732-.6202393-.6601562-.1199951-.5800781-.5400391-1.1601562-1.3001709-1.7003174l.2199707-.3200684Zm4.9610596-.8201904l-2.5405273,7.9816895c-.2000732.5802002-.3000488,1.0202637-.3000488,1.2802734,0,.1400146.0200195.3400879.0999756.6601562.1600342.7401123.2401123,1.2802734.2401123,1.6604004,0,.7601318-.2600098,1.1601562-.8201904,1.1601562-.4000244,0-.6000977-.1999512-.6000977-.6000977,0-.0999756.039917-.5001221.1400146-1.1801758.0400391-.3001709.0400391-.6202393.0400391-.9002686,0-1.1602783-.4401855-1.7803955-1.340332-1.9003906v-.4801025c.2399902.0400391.4400635.0600586.6000977.0600586.5201416,0,.9002686-.2000732,1.1002197-.6201172.9202881-1.7803955,1.9005127-4.2609863,2.9206543-7.4216309l.460083.3000488Zm-3.9007568-3.0806885c1.6003418.5001221,2.4205322,1.1602783,2.4205322,1.9404297,0,.460083-.2200928.6801758-.6401367.6801758-.2200928,0-.380127-.1199951-.4602051-.380127-.2399902-.7601318-.7401123-1.380249-1.5402832-1.9003906l.2200928-.3400879Zm8.3416748,5.3411865l-2.6204834.920166v7.2816162c0,.3200684.1400146.5001221.3800049.5600586.4001465.0800781,1.3803711.1400146,2.9406738.1400146,2.5205078,0,3.8608398-.1600342,4.0809326-.460083.2399902-.3000488.4000244-1.2202148.5001221-2.7606201l.5.1800537c0,1.4202881.0600586,2.260498.1800537,2.5206299.1000977.1999512.2801514.3000488.5601807.3000488-.1000977.5600586-.3400879.880127-.7801514.9802246-.5001221.1400146-2.0804443.1999512-4.6810303.1999512-2.3205566,0-3.6807861-.0599365-4.0408936-.1999512-.4200439-.1401367-.6401367-.5802002-.6401367-1.3203125v-7.081543l-1.5803223.5601807-.2600098-.4401855,1.840332-.6601562v-5.0009766c1.1602783.0200195,1.7403564.1600342,1.7403564.4200439,0,.1199951-.2199707.2800293-.7401123.4801025v3.7608643l2.6204834-.9202881v-5.1010742c1.1602783.0200195,1.7404785.1800537,1.7404785.420166,0,.1600342-.2401123.3200684-.7602539.5200195v3.8009033l2.6806641-.9403076.6800537-.9401855c.7602539.5401611,1.1402588.9002686,1.1402588,1.0803223,0,.0599365-.0400391.1400146-.1400146.2199707l-.4400635.3200684v5.5611572c0,.9602051-.5401611,1.4204102-1.6403809,1.4003906-.0200195-.5401611-.5400391-.880249-1.5803223-1.0402832v-.460083c.5401611.0800781,1.0802002.1199951,1.5603027.1199951.4401855,0,.6601562-.1600342.6601562-.5001221v-5.2611084l-2.9206543,1.0002441v7.1414795h-.9802246v-6.8013916Z"/>
      <path class="cls-2" d="m91.1104209,69.8270264c.5400391,1.1401367,1.2602539,2.1403809,2.2004395,2.9205322.84021-.7401123,1.5803223-1.6003418,2.2404785-2.5805664.9401855.5401611,1.4002686.9002686,1.4002686,1.0803223,0,.1400146-.1800537.1999512-.5401611.1999512-.0999756,0-.2199707-.0198975-.3000488-.0198975-.6601562.5800781-1.4403076,1.1202393-2.4005127,1.6602783,1.340332,1.0402832,2.9606934,1.7803955,4.861084,2.2404785-.3601074.2800293-.6401367.6801758-.8602295,1.1402588-3.7006836-1.2402344-6.0812988-3.4406738-7.161499-6.6413574-.7200928.7200928-1.6203613,1.380249-2.680542,2.0003662v3.1207275c2.0203857-.2801514,3.5808105-.5401611,4.7009277-.7802734l.1201172.4602051c-2.640625.7401123-5.1811523,1.3001709-7.6217041,1.7003174-.0799561.4400635-.1800537.6601562-.3399658.6601562-.2801514,0-.5401611-.5601807-.8201904-1.6604004.9602051-.0599365,1.9403076-.1400146,2.9405518-.2600098v-2.7005615c-1.300293.6601562-2.8205566,1.1801758-4.5809326,1.6003418l-.2401123-.4401855c3.0007324-.8601074,5.321167-2.1003418,7.0015869-3.7006836h-6.5814209l-.2000732-.4401855h7.4415283v-2.3804932c1.2003174.0400391,1.7803955.1800537,1.7803955.4400635,0,.1401367-.2399902.3001709-.7401123.4801025v1.4603271h5.4411621l.9401855-.8400879c.5201416.3599854.9602051.6800537,1.2602539.9602051l-.1800537.3200684h-7.0814209Zm-4.2810059-5.9813232c0,.1400146-.2199707.2600098-.6201172.380127v4.4609375h-1.0401611v-4.4609375c-.9002686.9001465-1.800415,1.5803223-2.7005615,2.1003418l-.2601318-.3399658c1.8404541-1.4003906,3.2807617-3.2006836,4.3609619-5.4012451.9401855.3200684,1.4403076.6002197,1.4403076.8602295,0,.1600342-.2600098.2600098-.7801514.2800293-.380127.5802002-.8001709,1.1402588-1.2802734,1.7004395.6000977.0799561.880127.2399902.880127.4200439Zm5.3612061.380127c.8602295,1.2802734,1.9003906,2.1804199,3.1806641,2.680542.3601074.1199951.5800781.2000732.7001953.2000732.3200684,0,.5600586-.7402344.7200928-2.2205811l.4400635.2000732c-.0198975.1800537-.0198975.4001465-.0198975.6201172,0,1.1002197.2399902,1.6604004.7000732,1.6804199-.0799561.6201172-.4400635.9401855-1.0601807.9401855-.5802002,0-1.2003174-.1600342-1.8404541-.4400635-1.7203369-.7602539-3.0206299-1.9404297-3.9207764-3.5808105l-3.8007812.2200928-.2801514-.460083,3.8608398-.2200928c-.4400635-.9602051-.7200928-2.0604248-.880127-3.3006592,1.1601562,0,1.760376.1199951,1.760376.3599854,0,.1400146-.2000732.2801514-.6002197.4401855.1400146.9801025.4001465,1.800293.7801514,2.4404297l3.8808594-.2399902.7801514-1.0802002c.4401855.3200684.84021.6800537,1.2802734,1.0802002l-.1800537.3601074-5.5010986.3200684Zm.3800049-3.3807373c1.6604004.3800049,2.4805908.920166,2.4805908,1.6402588,0,.4401855-.2000732.6601562-.6201172.6601562-.2401123,0-.4001465-.1600342-.5401611-.460083-.2399902-.5800781-.7801514-1.0601807-1.5402832-1.4803467l.2199707-.3599854Z"/>
      <path class="cls-2" d="m103.9884726,75.3481445c.5200195-1.380249.8201904-3.0206299.9401855-4.9810791,1.0601807.2000732,1.5803223.420166,1.5803223.6401367,0,.1199951-.1800537.2401123-.5601807.3200684-.3400879,1.760376-.8601074,3.1606445-1.5803223,4.2209473l-.3800049-.2000732Zm5.3011475-12.6627197c.9001465.4001465,1.34021.7202148,1.34021,1.0002441,0,.1600342-.2399902.2200928-.7401123.2200928-.9002686,1.4002686-2.0205078,2.7805176-3.4007568,4.2008057,1.2003174-.0999756,2.1204834-.1600342,2.8205566-.2399902-.1400146-.3601074-.4000244-.7801514-.8201904-1.3203125l.2801514-.3000488c1.2802734.9602051,1.9404297,1.8603516,1.9404297,2.7205811,0,.460083-.2000732.6801758-.6002197.6801758-.2600098,0-.4200439-.2000732-.460083-.6601562-.0200195-.2000732-.0799561-.420166-.1600342-.6401367-.460083.0999756-.9602051.2000732-1.5202637.3200684v8.1016846h-1.0002441v-7.9216309c-.4801025.0799561-1.1202393.1800537-1.9404297.2600098-.1199951.4001465-.2399902.6000977-.3601074.6000977-.1799316,0-.4000244-.5200195-.6201172-1.5202637.6201172-.0200195,1.2203369-.0400391,1.7803955-.0600586,1.4002686-1.8203125,2.5605469-3.6407471,3.4608154-5.4411621Zm-2.0205078-2.300415c.9602051.3599854,1.4403076.6600342,1.4403076.880127,0,.1400146-.2200928.2401123-.6601562.2600098-.5400391.8602295-1.1402588,1.7004395-1.8203125,2.5206299.6201172.5400391.9401855,1.0601807.9401855,1.4802246,0,.420166-.2000732.6401367-.5802002.6401367-.2600098,0-.4400635-.1999512-.5800781-.6201172-.2800293-.7801514-.84021-1.5002441-1.6403809-2.1804199l.2200928-.3200684c.4400635.2000732.8602295.4400635,1.2602539.7001953.4801025-.8201904.9401855-1.9604492,1.4202881-3.3607178Zm1.5203857,9.762085c1.1002197,1.1401367,1.6602783,2.220459,1.6602783,3.2406006,0,.5001221-.1999512.7402344-.6000977.7402344-.3200684,0-.460083-.2401123-.5001221-.7402344-.0400391-1.0001221-.3400879-2.0003662-.880127-3.0406494l.3200684-.1999512Zm4.1208496-.0600586l.6401367-.8001709c.7000732.6401367,1.0601807,1.0401611,1.0601807,1.1802979,0,.0999756-.0799561.1600342-.1800537.2199707l-.4200439.2000732c-.7401123,2.3005371-2.0804443,3.980835-4.0408936,5.1010742l-.2800293-.3601074c1.6003418-1.2402344,2.680542-2.9405518,3.3206787-5.1010742h-2.5405273l-.1600342-.4400635h2.6005859Zm2.1204834-2.0804443h-2.3405762v.8201904h-1.0201416v-6.4013672c.4200439.1800537.8001709.3601074,1.1402588.5400391h1.5002441c.2200928-.7000732.3601074-1.4802246.460083-2.3404541,1.1602783.1600342,1.7403564.3601074,1.7403564.6000977,0,.1201172-.2399902.2601318-.7200928.3601074-.3601074.6201172-.6601562,1.0802002-.9002686,1.380249h2.9807129l.6601562-.8200684c.7200928.5600586,1.0802002.9401855,1.0802002,1.1002197,0,.0799561-.0400391.1800537-.1800537.2399902l-.4200439.2601318v5.0610352h-1.0002441v-.8001709h-1.9604492c.2601318,1.2602539.7402344,2.4205322,1.4202881,3.5007324.6002197-.6801758,1.2003174-1.5402832,1.7803955-2.6005859.7801514.5401611,1.1602783.9002686,1.1602783,1.1402588,0,.1400146-.1199951.2200928-.380127.2200928-.0799561,0-.1799316-.0200195-.3000488-.0600586-.460083.5001221-1.1202393,1.0603027-1.9803467,1.7004395.8001709,1.1401367,1.8203125,2.1003418,3.0805664,2.9205322-.3800049.2601318-.7200928.6002197-.9602051,1.0002441-1.9603271-1.6403809-3.2406006-3.7408447-3.8408203-6.3413086v5.8011475c0,.9202881-.5600586,1.3603516-1.6802979,1.340332-.0200195-.3601074-.2000732-.6201172-.5401611-.7401123-.1600342-.0600586-.6201172-.1600342-1.300293-.3200684v-.460083c.7402344.0999756,1.3803711.1400146,1.9404297.1400146.380127,0,.5802002-.1800537.5802002-.5201416v-6.7214355Zm2.9805908-2.8205566v-1.760376h-5.321167v1.760376h5.321167Zm0,2.3804932v-1.9204102h-5.321167v1.9204102h5.321167Z"/>
      <path class="cls-2" d="m141.7917563,60.6049805v.7801514h-3.640686v12.1826172h-.8001709v-12.9627686h4.4408569Z"/>
      <path class="cls-2" d="m156.1701743,62.8654785h-4.480957l-.1799316-.4400635h4.2807617l.800293-1.0802002c.7600098.6201172,1.1401367,1.0001221,1.1401367,1.1801758,0,.0800781-.0800781.1800537-.2600098.2601318l-.6801758.3599854c.1601562,2.3605957.7001953,4.4210205,1.6403809,6.1213379,1.2602539,2.2805176,3.2207031,4.2409668,5.8613281,5.8612061-.420166.2601318-.7402344.6202393-.9802246,1.0402832-3.1408691-2.1605225-5.28125-5.0010986-6.4414062-8.5418701-1.4204102,4.0609131-4.1008301,7.0214844-8.0617676,8.8419189l-.2800293-.380127c4.0808105-2.3204346,6.701416-5.9212646,7.8415527-10.7822266-.119873-.6201172-.1799316-1.4403076-.1999512-2.4405518Z"/>
      <path class="cls-2" d="m176.0297934,61.4852295l.6801758-.8001709c.6201172.5200195.9401855.8601074.9401855,1.0201416,0,.1000977-.0200195.1800537-.1201172.2200928l-.3601074.2200928v4.9610596h-1.0002441v-.9403076h-4.0808105v10.6022949h-1.0803223v-15.9033203c.4401855.1799316.8803711.3800049,1.3203125.6201172h3.7009277Zm-3.940918.4400635v1.5803223h4.0808105v-1.5803223h-4.0808105Zm0,3.7807617h4.0808105v-1.7403564h-4.0808105v1.7403564Zm7.8815918,2.6606445l.6000977-.7402344c.7202148.5601807,1.1003418.9202881,1.1003418,1.0803223,0,.0599365-.0400391.1400146-.1401367.1999512l-.4199219.2801514v5.6411133h-1.0002441v-.9802246h-4.1208496v1.260376h-1.0402832v-7.2415771c.2800293.1199951.6601562.2800293,1.1401367.5001221h3.8808594Zm-3.9807129.4400635v1.9804688h4.1208496v-1.9804688h-4.1208496Zm4.1208496,4.6009521v-2.1604004h-4.1208496v2.1604004h4.1208496Zm4.1608887-11.9224854l.6201172-.8001709c.7202148.5600586,1.0803223.920166,1.0803223,1.0802002,0,.0799561-.0400391.1400146-.1401367.2200928l-.3601074.2600098v13.1228027c0,.880127-.6000977,1.300293-1.800293,1.2802734-.0200195-.380127-.2001953-.6401367-.5800781-.7601318-.2202148-.0800781-.6801758-.1800537-1.3603516-.3000488v-.4602051c.6601562.0800781,1.3203125.1201172,1.9604492.1201172.4599609,0,.7001953-.1800537.7001953-.5401611v-8.5418701h-4.2810059v.84021h-1.0202637v-6.0612793c.4602051.2000732.880127.3601074,1.2202148.5401611h3.9609375Zm-4.1608887.4400635v1.5803223h4.2810059v-1.5803223h-4.2810059Zm4.2810059,3.7807617v-1.7403564h-4.2810059v1.7403564h4.2810059Z"/>
      <path class="cls-2" d="m199.5900961,63.8657227v-3.1207275c1.2602539.0600586,1.8803711.2200928,1.8803711.460083,0,.1600342-.2600098.3400879-.8203125.5201416v2.1405029h5.3012695l.9802246-1.2602539c.420166.3599854.8601074.8400879,1.340332,1.4002686l-.2001953.3200684h-8.4016113c1.0600586.2000732,1.6003418.4000244,1.6003418.5800781,0,.1201172-.1801758.2401123-.6003418.380127v1.9604492h4.2009277l.7202148-.8201904c.7202148.5600586,1.0803223.920166,1.0803223,1.0802002,0,.0800781-.0400391.1600342-.1801758.2600098l-.4001465.3200684v5.1210938c0,.9403076-.6000977,1.4403076-1.800293,1.4403076,0-.3200684-.1799316-.5400391-.5200195-.7000732-.3400879-.1400146-.9401855-.2800293-1.8005371-.380127v-.5201416c.8203125.1201172,1.6403809.1800537,2.4206543.1800537.4399414,0,.6601562-.1800537.6601562-.5600586v-4.9810791h-4.3811035v9.0819092h-1.1000977v-9.0819092h-4.1008301v7.12146h-1.0402832v-8.1417236c.3601074.1400146.7202148.3000488,1.0402832.4801025l.1599121.1000977h3.940918v-2.9206543h-7.0415039l-.2199707-.460083h7.2814941Z"/>
      <path class="cls-2" d="m214.7885825,76.6484375v-.7801514h3.6408691v-12.1826172h.8000488v12.9627686h-4.440918Z"/>
      <path class="cls-2" d="m237.3486411,71.7073975c.0800781.6201172.1201172,1.1002197.1201172,1.4403076,0,.9602051-.1201172,1.7003174-.380127,2.220459-.1799316.3400879-.4001465.5201416-.6401367.5201416-.3601074,0-.5400391-.1600342-.5400391-.5001221,0-.1000977.0600586-.2601318.1999512-.5001221.5400391-.84021.8203125-1.8603516.8203125-3.0006104,0-.0800781,0-.1400146-.0200195-.2200928l.4399414.0400391Zm3.4208984-2.0804443h1.1401367l.7202148-.8602295c.6601562.5601807,1.0002441.9002686,1.0002441,1.0603027,0,.039917-.0400391.0799561-.1000977.1600342l-.4401855.3200684c-.0200195,3.2006836-.3000488,5.1409912-.8200684,5.8011475-.3200684.420166-.8400879.6201172-1.5603027.6201172-.0200195-.3599854-.2202148-.5800781-.6000977-.7200928-.1801758-.0600586-.6401367-.1400146-1.3603516-.2401123v-.460083c.7202148.0600586,1.3603516.1000977,1.9404297.1000977s.9001465-.2200928,1.0002441-.6801758c.2600098-1.0202637.380127-2.5805664.3999023-4.6610107h-4.0407715v.7801514h-1.0202637v-9.5820312c.3400879.1199951.7202148.3000488,1.1804199.5401611h3.8208008l.8000488-1.0002441c.4602051.4200439.800293.7801514,1.0002441,1.0802002l-.1799316.3601074h-2.8806152v2.0203857h.8000488l.7402344-.9602051c.3200684.3200684.6201172.6801758.9401855,1.1002197l-.1801758.3200684h-2.300293v2.1605225h.8000488l.7602539-.9802246c.3400879.380127.6601562.7601318.9602051,1.1202393l-.2202148.3000488h-2.300293v2.3005371Zm-2.520752,1.9803467c.4602051.9602051.6801758,1.800415.6801758,2.4605713,0,.6000977-.1799316.9001465-.5600586.9001465-.2600098,0-.380127-.1199951-.380127-.4000244,0,0,0-.0600586.0200195-.1199951,0-.0800781.0200195-.1400146.0200195-.2000732.0200195-.3000488.0400391-.6000977.0400391-.880249,0-.5-.0600586-1.0401611-.1999512-1.6402588l.3798828-.1201172Zm-.1999512-7.3415527h1.7404785v-2.0203857h-1.7404785v2.0203857Zm1.7404785.460083h-1.7404785v2.1605225h1.7404785v-2.1605225Zm0,4.901123v-2.3005371h-1.7404785v2.3005371h1.7404785Zm-.5002441,1.6802979c.7202148.9401855,1.0603027,1.7803955,1.0603027,2.5206299,0,.4000244-.1601562.6000977-.5002441.6000977-.1599121,0-.3000488-.0800781-.3398438-.2200928,0-.0200195-.0200195-.2399902-.0400391-.6801758-.0200195-.7000732-.2001953-1.4002686-.5603027-2.0604248l.380127-.1600342Zm1.0002441-.3800049c.8601074.7200928,1.300293,1.4403076,1.300293,2.1203613,0,.380127-.1401367.5601807-.4401855.5601807-.2199707,0-.3598633-.2000732-.3798828-.5601807-.0600586-.6600342-.3200684-1.3001709-.7602539-1.9204102l.2800293-.1999512Zm10.0021973-8.8419189l.7001953-.880249c.6999512.6002197,1.0400391.9602051,1.0400391,1.1202393,0,.0800781-.0598145.1600342-.1599121.2401123l-.4401855.2800293v6.0412598h-1.0202637v-1.1202393h-2.0803223c.0200195.2200928.0600586.420166.1000977.6601562.4399414,2.8406982,1.840332,5.1611328,4.1608887,6.9415283-.4001465.2800293-.7402344.6201172-1.0202637,1.0601807-2.1604004-2.1403809-3.4206543-5.0209961-3.7807617-8.6618652h-1.9804688c-.0200195,4.1608887-.9001465,7.1616211-2.640625,9.0019531l-.380127-.3000488c1.3203125-1.9604492,1.9604492-4.8809814,1.9604492-8.8218994v-6.1812744c.5600586.2600098.9602051.4801025,1.2202148.6201172h4.3210449Zm-4.480957.460083v4.7609863h4.6008301v-4.7609863h-4.6008301Z"/>
      <path class="cls-2" d="m271.8112876,74.9680176c-.3400879.2801514-.920166-.0999756-1.3400879-.3200684-.420166-.2199707-1.1604004-.6000977-2.0004883-.9001465-.3601074-.1400146-.7202148-.2600098-1.0603027-.3601074.0400391.460083.0200195,1.0002441-.2199707,1.3603516-.3000488.4801025-.7202148.7801514-1.2402344.9001465-.5202637.1199951-1.1203613.1600342-1.8205566.1199951-.6999512-.0198975-1.3400879-.2800293-1.9003906-.5600586-.5600586-.3000488-.920166-.9001465-.9802246-1.340332-.0598145-.4801025.1201172-.9802246.6201172-1.34021.5202637-.3601074,1.4204102-.6201172,2.2006836-.6401367.6799316-.0200195,1.4802246.0599365,2.2004395.1600342,0-.1201172,0-.2601318-.0200195-.3601074-.0200195-.6201172-.0800781-1.5203857-.0800781-2.1204834,0-.0999756-.0200195-.2000732-.0200195-.3200684-.1000977,0-.1599121.0200195-.2600098,0-.7202148,0-1.5002441-.0999756-2.0405273-.2000732-.5400391-.1199951-1.2402344-.3800049-1.7802734-.6600342-.2399902-.1201172-.380127-.4001465-.2202148-.5601807.1201172-.1400146.300293-.0999756.5402832-.0200195.1999512.0800781.4001465.1199951.920166.2601318.5600586.1600342,1.4401855.1799316,2.3005371.1999512h.5c-.0200195-.4400635-.0200195-.8601074-.0200195-1.1402588,0-.2800293,0-.7200928.0200195-1.1601562-.5400391.0999756-1.1601562.2199707-1.5603027.2399902-.7001953.0200195-1.300293-.1199951-1.800293-.3200684-.5002441-.1800537-.920166-.3800049-1.300293-.6000977-.3200684-.2000732-.5402832-.5401611-.4001465-.7001953.1799316-.1800537.4401855,0,.7001953.1201172.2800293.1199951.6401367.2800293,1.0600586.3800049.420166.1000977,1.1003418.1800537,1.760498.1199951.4401855-.039917,1.0402832-.1199951,1.5603027-.2199707,0-.0400391.0200195-.0800781.0200195-.1199951,0-.6401367-.0600586-1.260376-.1000977-1.720459-.0400391-.4801025-.2199707-.8400879-.4799805-1.0802002-.2399902-.2399902-.3601074-.5201416-.2199707-.7200928.119873-.1800537.4799805-.1800537.9001465.039917.4199219.2200928.7800293.6401367,1.0002441,1.1002197.1999512.4602051.0397949,1.1402588-.0200195,1.7404785-.0200195.1600342-.0400391.3599854-.0600586.5800781.5600586-.1400146,1.2402344-.3400879,1.6604004-.5001221.5200195-.2000732,1.0400391-.460083,1.4802246-.5201416.420166-.0599365.800293.0600586,1.1003418.3601074.3000488.2800293.0598145.5601807-.2802734.7001953-.3598633.1400146-1.2202148.3200684-1.9602051.4801025-.6801758.1600342-1.5004883.3400879-2.0805664.460083-.0200195.2000732-.0400391.4000244-.0400391.6000977-.0400391.5800781-.0600586,1.2602539-.0800781,1.8204346.2802734-.0200195.5002441-.0400391.7402344-.0600586.4401855-.0400391.9802246-.1600342,1.2802734-.2600098.3200684-.1000977.2600098-.2801514.0400391-.420166-.2199707-.1199951-.4602051-.2600098-.6801758-.4000244-.3000488-.1800537-.4799805-.4001465-.5600586-.5601807-.1000977-.1800537.0400391-.3599854.3000488-.1800537.3000488.2200928.6601562.4401855,1.2602539.6401367.4602051.1600342.9802246.2801514,1.2802734.3001709.3000488.0198975.5400391.1799316.5200195.460083-.0200195.2800293-.4199219.5200195-.8200684.7200928-.4001465.1800537-1.300293.460083-1.9804688.5601807-.3601074.0599365-.880127.1199951-1.3603516.1800537,0,.5400391.0200195,1.1601562.0600586,1.5803223.0400391.4200439.1201172.9802246.2001953,1.4403076.6000977.1400146,1.2402344.3200684,1.8203125.5001221.7202148.2399902,1.5402832.5,2.1804199.8601074.6801758.3601074.9001465,1.1202393.5600586,1.4002686Zm-5.5209961-1.9204102c-.0600586,0-.1201172-.0198975-.1801758-.039917-.5200195-.1201172-1.2202148-.1800537-1.7004395-.2000732-.4599609-.0200195-.8601074,0-1.3000488.0600586-.4602051.0799561-.840332.2800293-.9404297.7000732-.0998535.380127.1401367.8001709.5402832,1.0002441.4199219.2000732.9001465.3200684,1.5002441.3000488.5800781,0,1.1003418-.1800537,1.5202637-.460083.420166-.2800293.5002441-.6401367.5402832-1.0402832,0-.0999756.0200195-.1999512.0200195-.3200684Z"/>
      <path class="cls-2" d="m282.148934,65.6860352c-.2600098-.2600098-.4802246-.7401123-.2800293-.9602051.1599121-.1999512.5-.0599365.7600098.0400391.3000488.1199951.6000977.2200928,1.1804199.2000732.6000977,0,1.7402344-.3601074,2.3803711-.5601807.6201172-.1799316,2.0004883-.6201172,3.2407227-.9401855,1.2001953-.3200684,2.5805664-.6601562,3.2207031-.7601318.6201172-.0999756,1.4401855-.0400391,1.7802734.1800537.3200684.2000732.5202637.5600586.4001465.8001709-.1398926.2399902-.380127.2399902-.7001953.1800537-.3200684-.0400391-.7199707-.1400146-1.2001953-.1600342-.4799805,0-1.4003906.1199951-2.220459.2399902-.0400391,0-.0800781.0200195-.1401367.0200195-.2600098.2200928-.6799316.5201416-1.0200195.8201904-.4802246.4400635-.8203125.8201904-1.1203613,1.5003662-.2199707.5200195-.3000488,1.2602539-.420166,2.0404053-.1398926.7401123-.1999512,2.0203857-.0598145,3.1606445.079834.6801758.3200684,1.1402588.7800293,1.5003662.380127.3200684.9802246.4400635,1.6203613.4000244.6801758-.0599365,1.1003418-.0200195,1.4204102.0400391.3200684.0800781.6601562.3400879.8200684.5800781.1601562.2401123-.0200195.5401611-.4399414.5802002-.4602051.0400391-1.1604004.0599365-1.9404297,0-.7602539-.0600586-1.5004883-.2401123-2.1606445-.7801514-.5200195-.420166-.7600098-.9802246-.9001465-1.8404541-.1398926-.9001465-.1599121-1.8603516-.0400391-2.8806152.1401367-1.0601807.3200684-1.800415.4602051-2.4205322.1398926-.6401367.4799805-1.2202148.880127-1.6203613.2399902-.2399902.6401367-.6000977.9602051-.8200684-.3400879.0799561-.6801758.1799316-1.0402832.3200684-.7399902.2800293-1.9204102.7801514-2.5405273,1.0201416-.6601562.2401123-1.380127.5802002-2.0803223.6401367-.7202148.0800781-1.2802734-.2000732-1.6003418-.5201416Zm10.5422363,1.3803711c-.2800293-.3000488-.6601562-.6000977-1.1604004-.9401855-.1599121-.1201172-.2600098-.2601318-.1599121-.4001465.0600586-.0799561.2399902-.0799561.3400879-.0599365.3000488,0,.6601562.0999756,1.0803223.2399902.4199219.1400146,1.0200195.460083,1.2001953.8201904.1799316.3200684,0,.6401367-.2800293.7200928-.2800293.0800781-.7202148-.0999756-1.0202637-.3800049Zm1.6003418-.84021c-.3000488-.3601074-.6601562-.5600586-1.2402344-.8201904-.1801758-.0799561-.2600098-.2600098-.1801758-.3800049.0600586-.1201172.2202148-.0800781.3400879-.0800781.3000488-.0200195.6801758.0400391,1.1003418.1800537.4001465.1199951,1.0002441.4000244,1.2202148.7401123.1999512.3200684.0400391.6601562-.2600098.7402344-.2600098.0999756-.7402344-.0800781-.9802246-.380127Z"/>
      <path class="cls-2" d="m301.9084555,72.0874023c0-.1199951.2600098-.1999512.5-.2399902.6000977-.0999756.9802246-.2600098,1.6604004-.6000977,1.0803223-.5201416,1.8603516-1.0603027,2.7006836-1.8204346,1.0800781-.9802246,1.6601562-1.8204346,2.260498-2.8405762.1398926-.2401123.2800293-.5601807.079834-.7202148-.2399902-.2199707-.4599609-.3200684-.7199707-.4200439-.2202148-.0999756-.3400879-.2401123-.3400879-.3601074.0200195-.1400146.1599121-.2199707.5200195-.2199707s.6601562.039917,1.2202148.2600098c.5800781.2399902,1.2602539,1.0401611.7001953,1.9804688-.5600586.9801025-1.800293,2.1203613-3.2006836,3.1206055-1.0202637.7202148-1.4802246.9602051-2.5004883,1.380249-.800293.3400879-1.4204102.5401611-2.2404785.6401367-.4001465.0400391-.6401367-.0198975-.6401367-.1600342Zm12.5026855-8.1417236c-.2800293-.2800293-.6601562-.6000977-1.1604004-.920166-.1799316-.0999756-.2399902-.2600098-.1799316-.4000244.0800781-.0800781.2399902-.0800781.3601074-.0600586.3000488,0,.6801758.0799561,1.0800781.2200928.420166.1600342,1.0002441.4801025,1.2004395.8200684.1799316.3400879,0,.6401367-.3000488.7202148-.2802734.0799561-.7202148-.0999756-1.0002441-.380127Zm3.2006836,4.7810059c.5.7602539.5400391,1.5604248-.0200195,1.800415-.5402832.2401123-1.1604004-.1199951-1.4003906-.7601318-.2600098-.7202148-.5400391-1.2003174-.9602051-1.9604492-.4399414-.7601318-.8000488-1.2001953-1.4602051-1.760376-.3000488-.2399902-.5002441-.4000244-.3601074-.5600586.1398926-.1600342.4001465-.0400391.7402344.1199951.6401367.2800293,1.2001953.6801758,1.9003906,1.2802734.6999512.5800781,1.0800781,1.0802002,1.5603027,1.840332Zm-1.6203613-5.6011963c-.3000488-.3800049-.6401367-.5600586-1.2202148-.8200684-.1801758-.0800781-.2602539-.2401123-.1801758-.4001465.0600586-.0799561.2199707-.0799561.3200684-.0799561.3200684,0,.6801758.0599365,1.1003418.1999512.4199219.1201172,1.0202637.4001465,1.2202148.7402344.2199707.3400879.0400391.6401367-.2199707.7401123-.3000488.0800781-.7602539-.0600586-1.0202637-.380127Z"/>
      <path class="cls-2" d="m324.9086997,74.7480469c-.0400391-.1199951.2199707-.2800293.4199219-.380127.8203125-.3800049,1.4404297-.7200928,2.0605469-1.1202393.6201172-.3800049,1.2602539-.880127,2.1003418-1.6403809.8603516-.7601318,1.4204102-1.3602295,2.0205078-2.0404053.6201172-.6801758,1.4204102-1.8203125,1.9604492-2.6605225.5400391-.8602295.880127-1.4603271,1.0002441-1.9404297.119873-.460083-.1801758-.6801758-.7602539-.5001221-.380127.1199951-.6201172.1600342-1.3203125.3200684s-1.1801758.2600098-1.8203125.2800293c-.6401367,0-1.2602539-.2199707-1.6203613-.5001221-.4799805-.4200439-.5800781-.880127-.3601074-1.1002197.1801758-.1999512.5400391-.2199707.800293-.0599365.2800293.1800537.6201172.3200684.9802246.4200439.6000977.1400146,1.5202637.1199951,2.4404297-.0400391.920166-.1600342,1.5402832-.3599854,1.800293-.460083.2800293-.0999756.6401367-.3400879,1.0402832-.1199951.420166.2200928.6801758.6000977.7602539,1.300293.079834.7200928-.1801758,1.0401611-.5800781,1.3602295-.3200684.2601318-.5803223.5001221-1.0803223,1.1402588-.4001465.5601807-.9401855,1.300293-1.6804199,2.2004395.6601562.1800537,1.4804688.4602051,2.1804199.9202881.840332.5200195,1.4404297,1.1002197,1.8205566,1.6003418.3999023.4801025.7600098,1.5402832.1799316,1.9003906-.6201172.3800049-1.2202148-.2800293-1.5202637-.8201904-.3200684-.5601807-.6401367-1.2003174-1.2001953-1.9204102-.5202637-.6601562-1.0803223-1.0601807-1.760498-1.3603516-.0200195.0200195-.0400391.0600586-.0400391.0800781-.9602051,1.0802002-1.6804199,1.760376-2.5004883,2.4605713-.8000488.7000732-1.5002441,1.1801758-2.4204102,1.7003174-.6201172.380127-1.6403809.8201904-2.3005371,1.0401611-.3200684.1000977-.5600586.0800781-.6000977-.0599365Z"/>
      <path class="cls-2" d="m351.789559,74.487915v-.4000244c.7802734-.0200195,1.3203125-.1400146,1.5405273-.380127.1999512-.1999512.3200684-.6000977.3200684-1.2001953v-8.8018799c0-.4400635-.1601562-.7001953-.4401855-.7801514-.2199707-.0800781-.7001953-.1201172-1.4204102-.1400146v-.420166c1.2404785-.0999756,2.2805176-.3800049,3.1208496-.8201904v10.9624023c0,.6401367.1398926,1.0601807.3798828,1.2602539.2402344.1800537.7202148.2800293,1.4804688.3200684v.4000244h-4.9812012Z"/>
      <path class="cls-2" d="m369.8093344,74.487915v-.880127c.9602051-1.2402344,2.2004395-2.640625,3.6606445-4.1809082,1.8405762-1.9404297,2.7607422-3.4807129,2.7607422-4.6409912,0-.7200928-.2202148-1.3203125-.6401367-1.8204346-.4602051-.5-1.0402832-.7401123-1.7404785-.7401123-.7800293,0-1.4602051.2401123-2.0004883.7401123-.2800293.2601318-.4399414.6002197-.5200195.9802246.420166.2000732.6201172.5001221.6201172.9202881,0,.6401367-.3200684.9801025-.9602051.9801025s-.9802246-.3599854-.9802246-1.0802002c0-.7200928.2600098-1.3602295.800293-1.9204102.7800293-.8001709,1.800293-1.2001953,3.0805664-1.2001953.7602539,0,1.4604492.1600342,2.0605469.460083,1.1201172.6000977,1.6601562,1.5402832,1.6601562,2.8005371,0,.8001709-.3200684,1.6403809-.9401855,2.5006104-.3798828.5001221-1.1401367,1.2802734-2.300293,2.3404541-1.6203613,1.4803467-2.7607422,2.7205811-3.480957,3.6607666h4.361084c.9001465,0,1.5202637-.2399902,1.8203125-.7601318.2001953-.3200684.3200684-.8602295.4401855-1.6203613h.4199219v3.4606934h-8.121582Z"/>
      <path class="cls-2" d="m388.0883872,69.1068115c2.4807129-2.0604248,4.2810059-4.7409668,5.4213867-8.041748,1.0800781.380127,1.6201172.6801758,1.6201172.9202881,0,.1600342-.2399902.2800293-.7600098.4000244-.9001465,1.8803711-1.8603516,3.4007568-2.9006348,4.5410156-.8203125.880127-1.8203125,1.7403564-3.0805664,2.5405273l-.300293-.3601074Zm2.9206543-.920166l-.1398926-.460083h8.2817383l.6801758-.8001709c.7001953.5400391,1.0600586.9001465,1.0600586,1.0802002,0,.0799561-.0598145.1800537-.1799316.2600098l-.380127.2801514c-.0200195,3.5406494-.3000488,5.8411865-.880127,6.9013672-.380127.7202148-1.1003418,1.0803223-2.1003418,1.0803223,0-.3601074-.2402344-.6201172-.6801758-.8001709-.3400879-.1400146-.9802246-.3000488-1.9003906-.4401855v-.4801025c1.2001953.1600342,2.1604004.2401123,2.8205566.2401123.6201172,0,1.0402832-.380127,1.2202148-1.1202393.3000488-1.2602539.4602051-3.1806641.4799805-5.7412109h-4.2807617c-.1801758,2.1604004-.6801758,3.9007568-1.5402832,5.2010498-.920166,1.4202881-2.3605957,2.5206299-4.3410645,3.3406982l-.2600098-.4000244c2.1003418-1.1202393,3.5407715-2.680542,4.2609863-4.6009521.3999023-1.0603027.6401367-2.260498.7399902-3.5407715h-2.8605957Zm6.701416-7.121582c1.6604004,2.9006348,3.6809082,5.0611572,6.0612793,6.4814453-.3598633.2600098-.6599121.6201172-.9401855,1.1002197-1.7602539-1.380249-3.2006836-3.0006104-4.2807617-4.8410645-.4001465-.7000732-.840332-1.5402832-1.300293-2.4804688l.4599609-.2601318Z"/>
      <path class="cls-2" d="m136.391915,95.6049805v.7801514h-3.6407471v12.1826172h-.8001709v-12.9627686h4.440918Z"/>
      <path class="cls-2" d="m145.4091879,102.9665527c-.6401367,1.9404297-1.4604492,3.7408447-2.4807129,5.3612061l-.4199219-.3000488c1.2402344-2.3205566,2.1804199-4.9610596,2.8806152-7.9818115h-2.5205078l-.1601562-.460083h2.7006836v-3.980835c1.2001953.0200195,1.7802734.1600342,1.7802734.420166,0,.1600342-.2399902.3200684-.7600098.5v3.0606689h.9799805l.7802734-1.1402588c.2800293.2601318.6601562.6801758,1.1601562,1.260376l-.2399902.3399658h-2.6804199v1.8804932c1.7001953,1.0802002,2.5605469,2.0804443,2.5605469,3.0406494,0,.4400635-.2001953.6800537-.6003418.6800537-.3000488,0-.4799805-.2199707-.6000977-.6600342-.2199707-.9202881-.6801758-1.7404785-1.3601074-2.5006104v9.2819824h-1.0202637v-8.8018799Zm8.6418457,3.7208252v3.6207275h3.0004883l.9401855-1.1801758c.5402832.4801025.9401855.9001465,1.2004395,1.2602539l-.2402344.3601074h-10.722168l-.2199707-.4401855h5.0009766v-3.6207275h-3.6408691l-.1999512-.4400635h3.8408203v-2.9606934c1.1801758.0400391,1.7404785.2000732,1.7404785.4801025,0,.1400146-.2202148.3200684-.7001953.5001221v1.9804688h2.4204102l.8601074-1.1802979c.4602051.4801025.8203125.9001465,1.0603027,1.2402344l-.1999512.380127h-4.1408691Zm-1.0402832-4.2209473v-3.2406006h-3.520752l-.1999512-.4401855h3.7207031v-3.1806641c1.2001953.0200195,1.7802734.2000732,1.7802734.460083,0,.1400146-.2199707.3200684-.7399902.5001221v2.220459h2.3203125l.7802734-1.1002197c.3000488.2800293.6601562.6801758,1.0603027,1.1802979l-.2202148.3601074h-3.9406738v3.2406006h3.0004883l.8203125-1.1002197c.4399414.380127.8400879.7601318,1.2001953,1.2003174l-.1999512.3400879h-10.0222168l-.1999512-.4401855h4.3608398Z"/>
      <path class="cls-2" d="m170.8098227,99.1657715l-.1999512-.460083h3.1806641c.2600098-.4801025.4799805-.9401855.6401367-1.4403076-.920166.0999756-2.0205078.1800537-3.3208008.2600098l-.1999512-.460083c3.0805664-.3000488,5.4411621-.7601318,7.081543-1.380249.8200684.4400635,1.2402344.7401123,1.2402344.9401855,0,.0799561-.1401367.1400146-.3601074.1400146-.1401367,0-.3200684-.0200195-.5800781-.0600586-1.0402832.2000732-1.9204102.3400879-2.6206055.420166-.2199707.5400391-.4802246,1.0601807-.7602539,1.5803223h4.0410156l.9001465-1.1402588c.4599609.4400635.8400879.880127,1.1401367,1.2802734l-.1599121.3200684h-3.8408203c1.2001953,1.380249,2.640625,2.3604736,4.3208008,2.9406738-.2399902.1999512-.5.5400391-.7001953.920166-.9401855-.4400635-1.7402344-1.0202637-2.4804688-1.6804199v2.5605469h-.9802246v-.5400391h-3.3405762v.6401367h-.9802246v-2.6206055c-.8603516.8001709-1.8005371,1.4403076-2.7407227,1.9003906.2202148.3601074.3601074.6601562.3601074.9602051,0,.4400635-.1799316.6601562-.5800781.6601562-.2399902,0-.420166-.2000732-.5200195-.6201172-.2001953-.7202148-.5603027-1.380249-1.0603027-1.9804688v9.4620361h-1.0202637v-8.461792c-.5400391,1.6003418-1.3203125,3.2207031-2.3405762,4.8811035l-.3999023-.2601318c1.340332-2.5405273,2.260498-5.1411133,2.7404785-7.8216553v-.0600586h-2.4404297l-.1601562-.460083h2.6005859v-3.9608154c1.2402344.0400391,1.8803711.2000732,1.8803711.5001221,0,.1600342-.3000488.3400879-.8601074.5001221v2.9605713h.7402344l.7800293-1.0601807c.380127.4000244.7001953.8001709,1.0002441,1.2202148l-.1799316.3000488h-2.3405762v1.6003418c.5600586.380127,1.0803223.8001709,1.4802246,1.260376,1.5803223-.9403076,2.8208008-2.2005615,3.7409668-3.7408447h-2.7006836Zm8.2416992,5.5411377l.6401367-.7801514c.7202148.5201416,1.0803223.880249,1.0803223,1.0603027,0,.039917-.0400391.0999756-.1000977.1600342l-.4599609.3200684v4.901001c0,.880127-.5402832,1.300293-1.6403809,1.2802734,0-.3200684-.1601562-.5201416-.4802246-.6601562-.2399902-.0999756-.7399902-.2200928-1.5402832-.3000488v-.4801025c.880127.0799561,1.5803223.1199951,2.0805664.1199951.3999023,0,.6000977-.1600342.6000977-.4801025v-4.6810303h-7.4216309v6.6014404h-1.0002441v-7.581543c.2600098.0999756.6601562.2800293,1.2001953.5200195h7.0415039Zm-2.5405273,1.7803955l.6201172-.7000732c.6801758.460083,1.0202637.7801514,1.0202637.9401855,0,.0599365-.0400391.1199951-.1398926.1800537l-.3601074.2600098v2.4804688h-.9802246v-.5h-2.6005859v.8200684h-.9401855v-3.980835c.5400391.2601318.9001465.420166,1.0800781.5001221h2.3005371Zm-1.8803711-7.3215332c-.3400879.5401611-.7001953,1.0202637-1.1000977,1.5003662h.079834c.0400391,0,.0600586.0198975.0800781.0198975l.0400391.0200195c.0200195,0,.0600586,0,.0600586.0200195h3.4206543l.1801758-.1800537c-.3200684-.3599854-.6401367-.8201904-.9802246-1.380249h-1.7805176Zm-.8200684,2.0203857v1.720459h3.3405762v-1.720459h-3.3405762Zm.2600098,5.7612305v1.760376h2.6005859v-1.760376h-2.6005859Z"/>
      <path class="cls-2" d="m187.3886801,111.6484375v-.7801514h3.6408691v-12.1826172h.8000488v12.9627686h-4.440918Z"/>
      <path class="cls-2" d="m213.0095297,103.3666992c0,.1199951-.2202148.2600098-.6601562.3800049v8.0217285h-1.0002441v-7.8216553c-.7802734.9401855-1.5803223,1.7803955-2.4804688,2.5405273l-.3200684-.3200684c1.800293-1.9003906,3.3205566-4.2608643,4.5407715-7.1414795.9204102.3400879,1.3803711.6401367,1.3803711.920166,0,.1600342-.2199707.2600098-.7202148.2800293-.5600586,1.0803223-1.1000977,2.0004883-1.6401367,2.7406006.6000977.0800781.9001465.2200928.9001465.4001465Zm-4.3210449-2.4205322c1.760498-1.4603271,3.140625-3.2407227,4.1608887-5.321167.9802246.4001465,1.4604492.7401123,1.4604492,1.0202637,0,.1600342-.2602539.2399902-.7802734.2399902-1.2001953,1.7803955-2.720459,3.2407227-4.6010742,4.4210205l-.2399902-.3601074Zm10.7824707,8.9819336c.8000488.2199707,1.8203125.3200684,3.0605469.3200684.7802734,0,1.6804199-.0400391,2.720459-.1201172-.2800293.380127-.4799805.7802734-.6000977,1.1802979h-1.9204102c-2.5205078,0-4.3808594-.5600586-5.5610352-1.6403809-.6201172-.6000977-1.1203613-1.4202881-1.5205078-2.4604492-.4799805,1.7403564-1.2602539,3.2406006-2.3803711,4.5609131l-.380127-.2800293c1.2001953-1.9003906,1.9204102-4.3609619,2.1804199-7.3615723,1.1203613.2600098,1.6804199.5001221,1.6804199.7200928,0,.1401367-.2399902.2401123-.7202148.3200684-.079834.6202393-.1398926,1.0402832-.1799316,1.2403564.6000977,1.4603271,1.4802246,2.5205078,2.5605469,3.1005859v-6.7613525h-4.5810547l-.1999512-.4602051h4.7810059v-3.0006104h-3.5808105l-.1799316-.4400635h3.7607422v-3.2407227c1.2202148.0200195,1.8203125.1800537,1.8203125.460083,0,.1800537-.2399902.3400879-.7600098.5001221v2.2805176h2.2602539l.8803711-1.2202148c.4399414.4000244.8400879.8400879,1.2001953,1.2802734l-.1799316.3800049h-4.1608887v3.0006104h3.220459l.9404297-1.2602539c.3598633.3601074.7199707.7801514,1.0800781,1.2203369l.1401367.1800537-.2001953.3200684h-5.1809082v3.0605469h2.3603516l.9001465-1.1401367c.3601074.3200684.6801758.6600342.9602051,1.0401611l.1401367.2000732-.1999512.3400879h-4.1608887v3.6807861Z"/>
      <path class="cls-2" d="m239.5505454,102.0864258v4.6409912c0,.880127-.6203613,1.3201904-1.8605957,1.300293,0-.3400879-.1799316-.5802002-.5-.7402344-.2600098-.1400146-.7802734-.2800293-1.5803223-.4000244v-.460083c.9802246.0999756,1.7402344.1600342,2.3603516.1600342.3400879,0,.5202637-.1800537.5202637-.5201416v-3.980835h-7.4616699l-.1799316-.460083h3.6005859v-4.3409424c1.1804199.0599365,1.7805176.1999512,1.7805176.4400635,0,.1400146-.2600098.3000488-.7402344.4801025v3.4207764h3.0007324v-6.0013428c1.2402344.0200195,1.8803711.1800537,1.8803711.460083,0,.1600342-.2800293.3400879-.8200684.5001221v1.9604492h3.3005371l.880127-1.2203369c.5603027.5401611.9802246.9802246,1.220459,1.340332l-.2202148.3400879h-5.1809082v2.6206055h5.2810059l.9401855-1.2203369c.4602051.4001465.9001465.84021,1.2802734,1.3203125l-.1999512.3601074h-7.3015137Zm-8.4418945,5.9412842c1.4802246-1.2403564,2.720459-2.9206543,3.6806641-5.0411377,1.0402832.4400635,1.5605469.7801514,1.5605469,1.0202637,0,.1600342-.2802734.2600098-.8803711.2600098-1.0400391,1.760376-2.4003906,3.1207275-4.0808105,4.1008301l-.2800293-.3399658Zm.0200195,3.3406982c5.2011719-.9401855,9.0219727-2.9807129,11.4423828-6.1213379.9001465.4801025,1.3603516.8602295,1.3603516,1.1202393,0,.1400146-.1601562.2399902-.5002441.2200928l-.4199219-.0400391c-1.8803711,1.9003906-4.0009766,3.2806396-6.3413086,4.0808105-1.4204102.5001221-3.1809082.880249-5.3012695,1.1802979l-.2399902-.4400635Zm11.0222168-8.5819092c1.5205078.6401367,2.6806641,1.340332,3.4208984,2.1405029.5400391.5600586.8000488,1.0401611.8000488,1.4803467,0,.460083-.1999512.7000732-.6201172.7000732-.2600098,0-.4799805-.2199707-.6801758-.6800537-.5400391-1.1402588-1.6003418-2.2205811-3.1606445-3.3007812l.2399902-.3400879Z"/>
      <path class="cls-2" d="m256.9294516,96.965332h8.1418457v.5400391c-2.3806152,3.6408691-3.6208496,7.3815918-3.7409668,11.2624512-.0400391.7001953-.3200684,1.0601807-.8200684,1.0601807-.5402832,0-.800293-.3400879-.800293-1.0201416,0-2.4005127,1.3803711-5.9813232,4.1809082-10.7623291h-4.9008789c-.5803223,0-1.0002441.3200684-1.2404785.9602051-.1398926.4000244-.2800293,1.0802002-.3798828,2.0604248h-.4401855v-4.1008301Z"/>
      <path class="cls-2" d="m273.4885336,104.1068115c2.4807129-2.0604248,4.2810059-4.7409668,5.4213867-8.041748,1.0800781.380127,1.6201172.6801758,1.6201172.9202881,0,.1600342-.2399902.2800293-.7600098.4000244-.9001465,1.8803711-1.8603516,3.4007568-2.9006348,4.5410156-.8203125.880127-1.8203125,1.7403564-3.0805664,2.5405273l-.300293-.3601074Zm2.9206543-.920166l-.1398926-.460083h8.2817383l.6801758-.8001709c.7001953.5400391,1.0600586.9001465,1.0600586,1.0802002,0,.0799561-.0598145.1800537-.1799316.2600098l-.380127.2801514c-.0200195,3.5406494-.3000488,5.8411865-.880127,6.9013672-.380127.7202148-1.1003418,1.0803223-2.1003418,1.0803223,0-.3601074-.2402344-.6201172-.6801758-.8001709-.3400879-.1400146-.9802246-.3000488-1.9003906-.4401855v-.4801025c1.2001953.1600342,2.1604004.2401123,2.8205566.2401123.6201172,0,1.0402832-.380127,1.2202148-1.1202393.3000488-1.2602539.4602051-3.1806641.4799805-5.7412109h-4.2807617c-.1801758,2.1604004-.6801758,3.9007568-1.5402832,5.2010498-.920166,1.4202881-2.3605957,2.5206299-4.3410645,3.3406982l-.2600098-.4000244c2.1003418-1.1202393,3.5407715-2.680542,4.2609863-4.6009521.3999023-1.0603027.6401367-2.260498.7399902-3.5407715h-2.8605957Zm6.701416-7.121582c1.6604004,2.9006348,3.6809082,5.0611572,6.0612793,6.4814453-.3598633.2600098-.6599121.6201172-.9401855,1.1002197-1.7602539-1.380249-3.2006836-3.0006104-4.2807617-4.8410645-.4001465-.7000732-.840332-1.5402832-1.300293-2.4804688l.4599609-.2601318Z"/>
    </g>
  </g>
</svg>