<?xml version="1.0" encoding="UTF-8"?>
<svg id="_レイヤー_2" data-name="レイヤー 2" xmlns="http://www.w3.org/2000/svg" xmlns:xlink="http://www.w3.org/1999/xlink" viewBox="0 0 736.5948201 134.227085">
  <defs>
    <style>
      .cls-1, .cls-2 {
        stroke-width: 0px;
      }

      .cls-1, .cls-3 {
        fill: #231815;
      }

      .cls-2 {
        fill: none;
      }

      .cls-3 {
        stroke: #231815;
      }

      .cls-4 {
        clip-path: url(#clippath);
      }
    </style>
    <clipPath id="clippath">
      <rect class="cls-2" width="736.5948201" height="134.227085"/>
    </clipPath>
  </defs>
  <g id="_レイヤー_1-2" data-name="レイヤー 1">
    <g class="cls-4">
      <g>
        <path class="cls-1" d="m119.7072469,28.4690284v-4.098999h-6.5983887l-.2249756-.5748291h17.1707764l1.2497559-1.5496826.2498779.2249756c.4748535.4499512.9248047.8997803,1.3497314,1.4246826l-.2249756.4748535h-7.4482422v4.098999h4.3989258l.8997803-1.0997314c.9498291.7749023,1.4246826,1.2497559,1.4246826,1.449707,0,.0999756-.0749512.1749268-.1999512.2749023l-.5998535.3748779v12.3719482h-1.2996826v-1.8994141h-14.0466309v1.8994141h-1.324585v-14.0465088c.4249268.1749268.9246826.3999023,1.5245361.6748047h3.6992188Zm-3.8991699.5499268v10.3724365h14.0466309v-10.3724365h-4.6239014v5.0236816c0,.4499512.3499756.6749268,1.0748291.6749268.6247559,0,1.0246582-.25,1.1496582-.7248535.1749268-.6748047.2749023-1.6495361.3748779-2.899292l.5998535.1999512c0,1.324707.0750732,2.2244873.1999512,2.6494141.0999756.3748779.3499756.5498047.6998291.5498047-.0249023.6998291-.2749023,1.074707-.7747803,1.199707-.3999023.0999756-1.074707.1749268-2.1744385.1749268-.8997803,0-1.5246582-.0999756-1.8745117-.2498779-.375-.1750488-.5749512-.6248779-.5749512-1.2996826v-5.2987061h-2.899292c-.0749512,3.6490479-1.5245361,6.3483887-4.2989502,8.072998l-.3748779-.4998779c2.1245117-1.6745605,3.0491943-4.1240234,3.3242188-7.3232422l.0250244-.2498779h-3.8991699Zm8.1230469-.5499268v-4.098999h-2.899292v4.098999h2.899292Z"/>
        <path class="cls-1" d="m153.9805623,28.2440528c.3248291,3.9741211,1.1746826,7.1483154,2.649292,9.4727783.7749023,1.199707,1.2996826,1.7995605,1.5996094,1.7995605.375,0,.7248535-1.4246826,1.0498047-4.3239746l.5998535.2749023c-.1500244,1.5996094-.1999512,2.7493896-.1999512,3.4742432,0,1.1496582.2498779,1.8244629.7248535,1.9995117-.1500244.699707-.4499512,1.0246582-.9498291,1.0246582-.8747559,0-1.949585-.7497559-3.1242676-2.2744141-1.9494629-2.4743652-3.1741943-6.2734375-3.6990967-11.3222656h-11.9720459l-.2498779-.5748291h12.1719971c-.0999756-1.2247314-.1999512-3.1992188-.2249756-5.923584,1.4996338.0750732,2.2244873.2750244,2.2244873.5748291,0,.1750488-.2750244.3499756-.8498535.5499268.0250244,2.1495361.0999756,3.7241211.1749268,4.6988525h3.8491211l1.0498047-1.4246826.5748291.5998535c.2999268.2750244.5748291.5998535.8248291.9498291l-.2249756.4248047h-5.9985352Zm-5.6236572,10.3475342c1.5246582-.2749023,3.1992188-.6497803,5.0238037-1.074707v.6998291l-1.1497803.3498535c-3.6490479,1.0498047-6.9732666,1.8496094-10.0474854,2.4244385-.0999756.5748291-.2249756.8747559-.4249268.8747559-.2749023,0-.6748047-.6998291-1.0997314-2.1243896,1.6495361-.1999512,2.4743652-.3000488,2.4993896-.3000488v-8.2229004c1.449707.125,2.1744385.3249512,2.1744385.5998535,0,.1749268-.2999268.3498535-.8997803.5498047v6.8983154c1.2247314-.1999512,2.0994873-.3248291,2.6743164-.4498291v-9.5976562c1.3747559.125,2.074585.3249512,2.074585.5998535,0,.1999512-.25.3748779-.8248291.5498047v3.024292h1.9245605l1.0496826-1.5496826c.4749756.5249023.8498535.9997559,1.1247559,1.449707l.1500244.25-.2249756.3999023h-4.0240479v4.6488037Zm.1999512-14.2215576l1.074707-1.4245605c.5249023.5247803.9748535,1.0246582,1.3996582,1.5996094l-.2749023.3748779h-8.1729736l-.2249756-.5499268h6.1984863Zm6.748291-1.449585c1.949585.6748047,2.8743896,1.4996338,2.8743896,2.4743652,0,.5748291-.25.8248291-.7747803.8248291-.375,0-.5998535-.1999512-.7248535-.5749512-.2749023-.949707-.7998047-1.7244873-1.6496582-2.3493652l.2749023-.3748779Z"/>
        <path class="cls-1" d="m168.2087117,27.1693457c1.8996582.6499023,2.8243408,1.5246582,2.8243408,2.5244141,0,.5748291-.2249756.8248291-.6998291.8248291-.3999023,0-.6497803-.25-.7747803-.8248291-.1500244-.7248535-.6748047-1.449707-1.6246338-2.1245117l.2749023-.3999023Zm6.1984863-1.0246582l-3.1741943,9.9725342c-.2498779.7247314-.3748779,1.2746582-.3748779,1.5996094,0,.1749268.0250244.4249268.125.8248291.1999512.9246826.2999268,1.5996094.2999268,2.0744629,0,.949707-.3249512,1.449585-1.0247803,1.449585-.4998779,0-.7497559-.2498779-.7497559-.7497559,0-.125.0499268-.6248779.1749268-1.4747314.0499268-.3748779.0499268-.7747803.0499268-1.1246338,0-1.449707-.5498047-2.2244873-1.6745605-2.3743896v-.5998535c.2999268.0499268.5498047.0749512.7497559.0749512.6499023,0,1.1247559-.25,1.3747559-.7749023,1.1496582-2.2243652,2.3743896-5.3236084,3.6490479-9.2727051l.5748291.375Zm-4.8737793-3.8491211c1.9995117.6248779,3.024292,1.449707,3.024292,2.4244385,0,.5748291-.2749023.8497314-.7998047.8497314-.2749023,0-.4748535-.1499023-.5748291-.4748535-.2999268-.949707-.9248047-1.7246094-1.9245605-2.3743896l.2749023-.4249268Zm10.4224854,6.6733398l-3.2741699,1.1497803v9.0977783c0,.3999023.1749268.6247559.4748535.6998291.4998779.0999756,1.7246094.1749268,3.6740723.1749268,3.149292,0,4.8238525-.1999512,5.0987549-.5748291.2999268-.3748779.4998779-1.5246582.6248779-3.4492188l.6248779.2249756c0,1.7745361.0749512,2.8243408.2248535,3.1491699.125.25.3499756.375.6999512.375-.125.6998291-.4249268,1.0997314-.9748535,1.2246094-.6247559.1750488-2.5993652.25-5.8485107.25-2.899292,0-4.598877-.0749512-5.0488281-.25-.5247803-.1749268-.7998047-.7247314-.7998047-1.6495361v-8.8477783l-1.9744873.699707-.3249512-.5498047,2.2994385-.8248291v-6.2484131c1.449707.0249023,2.1744385.1999512,2.1744385.5249023,0,.1499023-.2749023.3498535-.9246826.5998535v4.6987305l3.2741699-1.1496582v-6.3734131c1.449585.0250244,2.1744385.2249756,2.1744385.5247803,0,.1999512-.2999268.3999023-.949707.6499023v4.7487793l3.3491211-1.1746826.8498535-1.1746826c.949707.6748047,1.4245605,1.1247559,1.4245605,1.3496094,0,.0750732-.0499268.1750488-.1749268.2750244l-.5498047.3999023v6.9482422c0,1.199707-.6749268,1.7745361-2.0495605,1.7496338-.0250244-.6748047-.6748047-1.0997314-1.9744873-1.2996826v-.5748291c.6748047.0998535,1.3496094.1499023,1.9494629.1499023.5499268,0,.8248291-.1999512.8248291-.6248779v-6.5733643l-3.6490479,1.2497559v8.9227295h-1.2247314v-8.4979248Z"/>
        <path class="cls-1" d="m206.4311238,33.4427832c.6748047,1.4246826,1.574707,2.6744385,2.7493896,3.6491699,1.0496826-.9248047,1.9744873-1.9995117,2.7993164-3.2242432,1.1746826.6749268,1.7495117,1.1247559,1.7495117,1.3497314,0,.1749268-.2249756.2498779-.6748047.2498779-.125,0-.2749023-.0250244-.3748779-.0250244-.8248291.7248535-1.7995605,1.3996582-2.9992676,2.074585,1.6745605,1.2996826,3.6990967,2.2244873,6.0734863,2.7993164-.4499512.3498535-.7998047.8497314-1.074707,1.4246826-4.6239014-1.5496826-7.5981445-4.2990723-8.947876-8.2980957-.8997803.8999023-2.0245361,1.7246094-3.3491211,2.4995117v3.8989258c2.524292-.3498535,4.473877-.6748047,5.8735352-.9747314l.1500244.5748291c-3.2993164.9248047-6.4735107,1.6246338-9.5227051,2.1245117-.0999756.5499268-.2249756.8248291-.4249268.8248291-.3499756,0-.6748047-.6998291-1.0247803-2.0744629,1.199707-.0750732,2.4244385-.1749268,3.6740723-.3249512v-3.3741455c-1.6245117.824707-3.5240479,1.4746094-5.7235107,1.9995117l-.2999268-.5499268c3.7490234-1.074707,6.6483154-2.6243896,8.7478027-4.6239014h-8.2229004l-.25-.5498047h9.2977295v-2.9742432c1.4996338.0499268,2.2244873.2249756,2.2244873.5498047,0,.1749268-.2999268.3748779-.9248047.5998535v1.824585h6.7983398l1.1746826-1.0498047c.6499023.4499512,1.199707.8498535,1.574585,1.199707l-.2248535.3999023h-8.8479004Zm-5.3486328-7.4731445c0,.1750488-.2749023.3249512-.7749023.4748535v5.5737305h-1.2995605v-5.5737305c-1.1247559,1.1247559-2.2495117,1.9746094-3.3742676,2.6243896l-.3249512-.4249268c2.2995605-1.7495117,4.0991211-3.9990234,5.4487305-6.748291,1.1746826.3999023,1.7995605.7497559,1.7995605,1.074707,0,.1999512-.3249512.3249512-.9747314.3499756-.4749756.7247314-.9997559,1.4246826-1.5996094,2.1243896.7497559.1000977,1.0997314.3000488,1.0997314.5249023Zm6.6983643.4748535c1.074707,1.5996094,2.3743896,2.7243652,3.973999,3.3492432.4499512.1500244.7248535.2498779.8747559.2498779.3999023,0,.6998291-.9246826.8997803-2.774292l.5499268.25c-.0250244.2249756-.0250244.4998779-.0250244.7747803,0,1.3746338.2999268,2.0744629.8747559,2.0994873-.0999756.7747803-.5498047,1.1746826-1.324585,1.1746826-.7248535,0-1.4997559-.1999512-2.2995605-.5498047-2.1494141-.9498291-3.7740479-2.4244385-4.8986816-4.473877l-4.7489014.2749023-.3499756-.5749512,4.8238525-.2749023c-.5498047-1.199707-.8997803-2.5743408-1.0997314-4.1240234,1.449707,0,2.1994629.1500244,2.1994629.4499512,0,.1749268-.2498779.3498535-.7497559.5498047.1749268,1.2247314.4998779,2.2495117.9747314,3.0493164l4.8487549-.2999268.9748535-1.3497314c.5498047.3999023,1.0496826.8498535,1.5996094,1.3497314l-.2249756.4498291-6.873291.3999023Zm.4748535-4.223877c2.0744629.4748535,3.0992432,1.1496582,3.0992432,2.0494385,0,.5499268-.25.8248291-.7747803.8248291-.2999268,0-.4998779-.1999512-.6749268-.5748291-.2998047-.7248535-.9747314-1.324707-1.9244385-1.8496094l.2749023-.4498291Z"/>
        <path class="cls-1" d="m222.533907,40.3412207c.6499023-1.7246094,1.0247803-3.7741699,1.1748047-6.2235107,1.324585.2498779,1.9744873.5247803,1.9744873.7998047,0,.1499023-.2249756.2999268-.6998291.3999023-.4249268,2.1994629-1.074707,3.9489746-1.9746094,5.2736816l-.4748535-.2498779Zm6.6234131-15.821167c1.1247559.4998779,1.6745605.8997803,1.6745605,1.2496338,0,.1999512-.2999268.2749023-.9246826.2749023-1.1247559,1.7496338-2.5244141,3.4742432-4.2490234,5.2487793,1.4996338-.125,2.6494141-.1999512,3.5241699-.2999268-.1750488-.4498291-.4998779-.9747314-1.0247803-1.6495361l.3499756-.375c1.5996094,1.199707,2.4243164,2.3244629,2.4243164,3.3991699,0,.5749512-.2498779.8498535-.7497559.8498535-.3249512,0-.5249023-.25-.5749512-.8248291-.0249023-.2498779-.0998535-.5249023-.1999512-.7998047-.5748291.125-1.199707.2498779-1.8994141.3999023v10.1225586h-1.2497559v-9.897583c-.5998535.0999756-1.3996582.2248535-2.4244385.3249512-.1499023.4997559-.2999268.7497559-.4498291.7497559-.2249756,0-.4998779-.6499023-.7749023-1.8995361.7749023-.0250244,1.5246582-.0499268,2.2244873-.0749512,1.7496338-2.2745361,3.1992188-4.5489502,4.3239746-6.7983398Zm-2.5244141-2.8743896c1.199707.4499512,1.7995605.8248291,1.7995605,1.0998535,0,.1749268-.2749023.2998047-.8248291.3248291-.6748047,1.0748291-1.4245605,2.1245117-2.2744141,3.149292.7749023.6748047,1.1748047,1.324707,1.1748047,1.8494873,0,.5249023-.25.7998047-.7248535.7998047-.3249512,0-.5499268-.2498779-.7248535-.7747803-.3498535-.9747314-1.0498047-1.8745117-2.0495605-2.7243652l.2750244-.3999023c.5498047.25,1.074707.5499268,1.574585.8747559.5998535-1.0246582,1.1746826-2.4493408,1.7745361-4.1989746Zm1.8995361,12.1970215c1.3747559,1.4246826,2.0744629,2.7744141,2.0744629,4.0490723,0,.6248779-.2498779.9248047-.7497559.9248047-.3999023,0-.5748291-.2999268-.6248779-.9248047-.0499268-1.2497559-.4249268-2.4993896-1.0997314-3.7990723l.3999023-.25Zm5.1488037-.0749512l.7998047-.9997559c.8747559.7998047,1.324585,1.2996826,1.324585,1.4746094,0,.125-.0998535.1999512-.2248535.2750244l-.5249023.2498779c-.9248047,2.8742676-2.5993652,4.973877-5.0488281,6.3735352l-.3498535-.4499512c1.9995117-1.5495605,3.3491211-3.6740723,4.1489258-6.3734131h-3.1741943l-.1999512-.5499268h3.2492676Zm2.649292-2.5993652h-2.9243164v1.0247803h-1.2746582v-7.9980469c.5249023.2249756.9997559.4498291,1.4246826.6748047h1.8745117c.2750244-.8747559.4499512-1.8494873.5748291-2.9241943,1.449707.1999512,2.1745605.4498291,2.1745605.7497559,0,.1499023-.2999268.3249512-.8997803.4499512-.4499512.7747803-.8248291,1.3496094-1.1247559,1.7244873h3.723999l.8249512-1.0247803c.8996582.6999512,1.3496094,1.1748047,1.3496094,1.3747559,0,.0999756-.0500488.2248535-.2248535.2999268l-.5249023.3248291v6.3234863h-1.2497559v-.9997559h-2.4494629c.3249512,1.574707.9248047,3.024292,1.7746582,4.3740234.7497559-.8498535,1.4995117-1.9245605,2.2243652-3.2492676.9748535.6748047,1.449707,1.1247559,1.449707,1.4246826,0,.1749268-.1499023.2749023-.4748535.2749023-.1000977,0-.2248535-.0250244-.375-.0749512-.574707.6248779-1.3996582,1.324585-2.4743652,2.1243896.9997559,1.4246826,2.2744141,2.6243896,3.8491211,3.6491699-.4748535.3249512-.8999023.7497559-1.199707,1.2497559-2.4494629-2.0495605-4.0490723-4.6739502-4.7988281-7.9230957v7.2481689c0,1.1497803-.6998291,1.699585-2.0994873,1.6746826-.0250244-.4499512-.25-.7749023-.6749268-.9248047-.1999512-.0749512-.7747803-.1999512-1.6245117-.3999023v-.5749512c.9248047.125,1.7246094.1750488,2.4243164.1750488.4749756,0,.7248535-.2249756.7248535-.6499023v-8.3979492Zm3.7241211-3.5241699v-2.1994629h-6.6484375v2.1994629h6.6484375Zm0,2.9743652v-2.3994141h-6.6484375v2.3994141h6.6484375Z"/>
        <path class="cls-1" d="m278.0370809,18.2834815v1.3651123h-6.3706055v21.3172607h-1.4001465v-22.682373h7.770752Z"/>
        <path class="cls-1" d="m297.3901082,28.1894873c0,.2800293-.4199219.5950928-1.2250977.9100342v17.4669189h-1.8552246v-16.5917969c-1.4001465,2.380249-2.9401855,4.5155029-4.6555176,6.4406738l-.6650391-.5250244c3.465332-4.6204834,6.0556641-10.3961182,7.9108887-17.3618164,1.9951172.5600586,3.0102539,1.085083,3.0102539,1.5751953,0,.3149414-.4550781.4899902-1.4350586.5949707-.9101562,2.5202637-1.8552246,4.760498-2.800293,6.7557373,1.1550293.1400146,1.7150879.3851318,1.7150879.7351074Zm8.8908691-7.8057861c2.2402344.4550781,3.3254395.9450684,3.3254395,1.4001465,0,.2800293-.4550781.5600586-1.4001465.8050537-1.7502441,7.4908447-3.7104492,13.8964844-5.8806152,19.217041,4.3754883-.4550781,8.0507812-1.0501709,10.9912109-1.4351807h.2800293c-1.0852051-2.1352539-2.4853516-4.3054199-4.3054199-6.5107422l.5600586-.5600586c2.8703613,2.6604004,4.970459,5.1456299,6.3005371,7.5258789.7351074,1.3651123,1.1201172,2.4501953,1.1201172,3.2902832,0,.9450684-.3850098,1.4702148-1.1550293,1.4702148-.4899902,0-.8051758-.2800293-.9450684-.8751221-.2800293-1.1201172-.6650391-2.3101807-1.2250977-3.5003662l-.5952148.1400146c-4.3054199,1.1551514-8.9609375,1.9251709-13.8613281,2.6953125-.2099609.8400879-.420166,1.2601318-.6650391,1.2601318-.420166,0-.8752441-1.0151367-1.3303223-3.0803223,1.6452637-.1400146,2.9055176-.2451172,3.7104492-.3150635,2.2053223-6.895752,3.9204102-14.0714111,5.0754395-21.5272217Z"/>
        <path class="cls-1" d="m343.1359578,33.6150245v10.1861572c0,1.6451416-1.2250977,2.5202637-3.6054688,2.5202637,0-.5950928-.3500977-1.0501709-1.0849609-1.295166-.630127-.2451172-1.9602051-.5251465-4.0253906-.8751221v-.8400879c2.6601562.2449951,4.4804688.3499756,5.4953613.3499756.8051758,0,1.2253418-.3499756,1.2253418-1.0150146v-9.0310059h-13.0915527l-.2800293-.8050537h13.2314453v-5.6356201c.5600586.0350342,1.0852051.0700684,1.6101074.1750488,2.2753906-1.6451416,4.1306152-3.2203369,5.5656738-4.7254639h-16.1716309l-.3151855-.8051758h16.4868164l1.4350586-1.6101074c1.5751953,1.2601318,2.4152832,2.1002197,2.4152832,2.4852295,0,.1400146-.1398926.2800293-.4550781.3500977l-1.1201172.3150635c-1.9250488,1.4001465-4.1303711,2.8352051-6.6855469,4.2353516.3149414.1400146.4899902.2800293.4899902.4200439,0,.210083-.420166.4901123-1.2602539.8050537v3.9904785h8.855957l1.8552246-2.3103027c.7700195.6651611,1.5751953,1.4702148,2.3452148,2.4503174l-.3850098.6650391h-12.53125Z"/>
        <path class="cls-1" d="m367.2843953,46.3563575v-1.3651123h6.3706055v-21.3172607h1.4001465v22.682373h-7.770752Z"/>
        <path class="cls-1" d="m405.7336141,35.7922705c.0998535.7747803.1499023,1.3746338.1499023,1.7995605,0,1.199707-.1499023,2.1245117-.4748535,2.774292-.2250977.4249268-.5.6499023-.7998047.6499023-.4499512,0-.6748047-.1999512-.6748047-.6248779,0-.125.0749512-.3249512.2497559-.6248779.6748047-1.0496826,1.0249023-2.3244629,1.0249023-3.7490234,0-.0999756,0-.1750488-.0251465-.2749023l.5500488.0499268Zm4.2739258-2.5993652h1.4245605l.8999023-1.074707c.824707.6998291,1.2495117,1.1246338,1.2495117,1.324585,0,.0500488-.0498047.1000977-.1247559.1999512l-.5500488.3999023c-.0249023,3.9990234-.3747559,6.4234619-1.0246582,7.248291-.3999023.5249023-1.0498047.7747803-1.9494629.7747803-.0251465-.4498291-.2751465-.7247314-.75-.8997803-.2248535-.0749512-.7998047-.1749268-1.6994629-.2999268v-.5748291c.8996582.0749512,1.6994629.125,2.4243164.125s1.1247559-.2749023,1.2497559-.8498535c.3249512-1.2746582.4748535-3.2241211.4997559-5.8234863h-5.048584v.9747314h-1.2746582v-11.9720459c.4248047.1499023.8996582.3748779,1.4746094.6748047h4.7736816l.9997559-1.2497559c.5749512.5249023.9997559.9748535,1.2497559,1.3497314l-.2248535.4498291h-3.5991211v2.5244141h.9997559l.9248047-1.199707c.3999023.3999023.7746582.8498535,1.1745605,1.3746338l-.2248535.3999023h-2.8742676v2.6993408h.9997559l.949707-1.2246094c.4248047.4748535.824707.949707,1.199707,1.3996582l-.2749023.3748779h-2.8742676v2.8742676Zm-3.1494141,2.4743652c.5749512,1.199707.8498535,2.2495117.8498535,3.0743408,0,.7497559-.2248535,1.1246338-.699707,1.1246338-.3249512,0-.4748535-.1499023-.4748535-.4998779,0,0,0-.0749512.0249023-.1499023,0-.0999756.0249023-.1750488.0249023-.25.0251465-.3748779.0500488-.7497559.0500488-1.0997314,0-.6248779-.0749512-1.2996826-.25-2.0494385l.4748535-.1500244Zm-.2497559-9.1727295h2.1743164v-2.5244141h-2.1743164v2.5244141Zm2.1743164.5748291h-2.1743164v2.6993408h2.1743164v-2.6993408Zm0,6.1235352v-2.8742676h-2.1743164v2.8742676h2.1743164Zm-.6247559,2.0994873c.8999023,1.1746826,1.324707,2.2244873,1.324707,3.1491699,0,.5-.1999512.7498779-.625.7498779-.199707,0-.3747559-.0999756-.4248047-.2749023,0-.0250244-.0249023-.2999268-.0500488-.8498535-.0249023-.8747559-.2497559-1.7495117-.699707-2.5743408l.4748535-.1999512Zm1.2497559-.4748535c1.074707.8997803,1.6245117,1.7995605,1.6245117,2.649292,0,.4749756-.1750488.6998291-.5498047.6998291-.2749023,0-.4499512-.2498779-.4748535-.6998291-.0749512-.8248291-.3999023-1.6246338-.949707-2.3994141l.3498535-.2498779Zm12.4968262-11.0473633l.8747559-1.0997314c.8747559.7498779,1.2998047,1.199707,1.2998047,1.3996582,0,.0999756-.0749512.1999512-.1999512.2999268l-.5498047.3499756v7.5480957h-1.2749023v-1.3996582h-2.5991211c.0249023.2750244.0749512.5249023.1247559.8248291.5500488,3.5490723,2.2995605,6.4484863,5.1987305,8.6728516-.4997559.3499756-.9245605.7749023-1.2746582,1.324707-2.6992188-2.6743164-4.2739258-6.2734375-4.723877-10.8223877h-2.4743652c-.0249023,5.1987305-1.1247559,8.947876-3.2990723,11.2473145l-.4748535-.3748779c1.6494141-2.4494629,2.4492188-6.0986328,2.4492188-11.0223389v-7.7231445c.6999512.3249512,1.199707.5998535,1.5246582.7747803h5.3986816Zm-5.5986328.5749512v5.9484863h5.7485352v-5.9484863h-5.7485352Z"/>
        <path class="cls-1" d="m448.804659,39.8662452c-.4248047.3499756-1.1496582-.1248779-1.6745605-.3999023-.5249023-.2749023-1.449707-.7497559-2.4992676-1.1246338-.4499512-.1750488-.8999023-.3249512-1.324707-.4499512.0500488.5748291.0249023,1.2497559-.2749023,1.699585-.375.5998535-.8999023.9747314-1.5498047,1.1247559-.6496582.1499023-1.3996582.1999512-2.2744141.1499023-.8747559-.0250244-1.6745605-.3498535-2.3742676-.6998291-.6999512-.3748779-1.1499023-1.1247559-1.2248535-1.6745605-.0749512-.5998535.1501465-1.2247314.7749023-1.6745605.6499023-.4499512,1.7746582-.7749023,2.7492676-.7998047.8498535-.0250244,1.8496094.0749512,2.7492676.1999512,0-.1500244,0-.3249512-.0249023-.4499512-.0249023-.7747803-.0998535-1.8995361-.0998535-2.649292,0-.125-.0251465-.25-.0251465-.3999023-.125,0-.1999512.0250244-.3249512,0-.8996582,0-1.8745117-.125-2.5493164-.25-.6748047-.1499023-1.5495605-.4748535-2.2243652-.8248291-.3000488-.1499023-.4748535-.4997559-.2751465-.699707.1501465-.1750488.375-.125.6750488-.0250244.2497559.0999756.4997559.1499023,1.1496582.3248291.699707.1999512,1.7995605.2249756,2.8742676.25h.6247559c-.0249023-.5498047-.0249023-1.074707-.0249023-1.4246826,0-.3498535,0-.8997803.0249023-1.449585-.6748047.125-1.4494629.2749023-1.9494629.2999268-.8747559.0250244-1.6245117-.1500244-2.2495117-.3999023-.6247559-.2249756-1.1496582-.4749756-1.6245117-.7498779-.3999023-.2498779-.6748047-.6748047-.4997559-.8747559.2248535-.2249756.5498047,0,.8747559.1499023.3498535.1500244.7998047.3499756,1.3244629.4749756.5249023.1248779,1.3747559.2249756,2.199707.1499023.5498047-.0499268,1.2995605-.1499023,1.9494629-.2749023,0-.0499268.0249023-.0999756.0249023-.1500244,0-.7998047-.0749512-1.574585-.125-2.1494141-.0500488-.5998535-.2749023-1.0498047-.5998535-1.3496094-.2998047-.3000488-.449707-.6499023-.2749023-.8999023.1499023-.2248535.5998535-.2248535,1.1247559.0500488s.9748535.7998047,1.2497559,1.3746338c.25.5748291.0498047,1.4246826-.0251465,2.1744385-.0249023.1999512-.0498047.4499512-.0749512.7248535.6999512-.1749268,1.5498047-.4248047,2.0744629-.6247559.6499023-.25,1.2998047-.5749512,1.8496094-.6499023.5249023-.0749512.9997559.0749512,1.3747559.4499512.3747559.3498535.0749512.699707-.3500977.8747559-.449707.1749268-1.5244141.3999023-2.4492188.5998535-.8498535.1999512-1.8745117.4248047-2.5993652.5748291-.0251465.2498779-.0500488.4998779-.0500488.7498779-.0500488.7247314-.0749512,1.574585-.1000977,2.2744141.3500977-.0250244.625-.0500488.9248047-.0749512.5500488-.0500488,1.2248535-.1999512,1.5996094-.3249512.3999023-.125.3249512-.3499756.0500488-.5249023-.2749023-.1499023-.5749512-.3249512-.8498535-.4998779-.3747559-.2249756-.5998535-.4998779-.699707-.6998291-.125-.2249756.0500488-.4499512.375-.2249756.3747559.2750244.824707.5499268,1.5744629.7998047.5749512.1999512,1.2248535.3499756,1.5996094.3748779.375.0250244.6748047.2249756.6499023.5749512-.0251465.3498535-.5249023.6497803-1.0246582.8997803-.5.2249756-1.6247559.5748291-2.4746094.6998291-.449707.0749512-1.0996094.1499023-1.6994629.2248535,0,.6749268.0249023,1.449707.0749512,1.9746094s.1499023,1.2246094.25,1.7995605c.7497559.1749268,1.5495605.3999023,2.2744141.6247559.8996582.3000488,1.9245605.6248779,2.7243652,1.0748291.8498535.4498291,1.1247559,1.3996582.699707,1.7495117Zm-6.8981934-2.3994141c-.0749512,0-.1499023-.0250244-.2250977-.0499268-.6496582-.1500244-1.5244141-.2249756-2.1245117-.25-.574707-.0249023-1.074707,0-1.6245117.0749512-.574707.1000977-1.0498047.3499756-1.1748047.8748779-.1247559.4748535.1750488.9997559.6750488,1.2496338.5246582.25,1.1247559.3999023,1.8745117.375.7248535,0,1.3745117-.2249756,1.8994141-.5749512.5249023-.3498535.625-.7998047.6748047-1.2996826,0-.1248779.0251465-.2498779.0251465-.3999023Z"/>
        <path class="cls-1" d="m461.7333699,28.2690772c-.3249512-.3248291-.5998535-.9246826-.3500977-1.199707.1999512-.2498779.625-.0749512.9499512.0500488.3747559.1499023.7497559.2749023,1.4746094.2498779.7497559,0,2.1743164-.4498291,2.9741211-.6998291.7749023-.2249756,2.4995117-.7747803,4.0490723-1.1746826,1.4997559-.3999023,3.2243652-.8248291,4.0241699-.949707.7746582-.125,1.7993164-.0500488,2.2243652.2248535.3999023.25.6499023.6998291.4997559.9997559-.1748047.2999268-.4748535.2999268-.8747559.2249756-.3999023-.0499268-.8996582-.1749268-1.4995117-.1999512-.5998535,0-1.7497559.1500244-2.7744141.2999268-.0500488,0-.0998535.0250244-.1750488.0250244-.324707.2749023-.8496094.6497803-1.2746582,1.0247803-.5998535.5498047-1.0246582,1.0246582-1.3996582,1.8745117-.2749023.6497803-.3747559,1.574585-.5249023,2.5493164-.1748047.9248047-.2497559,2.5244141-.0749512,3.9490967.1000977.8497314.3999023,1.4246826.9748535,1.8745117.4748535.3999023,1.2246094.5499268,2.0244141.4998779.8498535-.0749512,1.3747559-.0250244,1.7746582.0500488.3999023.0998535.824707.4248047,1.0246582.7247314s-.0249023.6749268-.5498047.7248535c-.574707.0499268-1.449707.0749512-2.4243164,0-.949707-.0749512-1.8745117-.2999268-2.6994629-.9747314-.6496582-.5249023-.949707-1.2247314-1.1247559-2.2994385-.1748047-1.1247559-.1999512-2.3244629-.0498047-3.5991211.1748047-1.324707.3999023-2.2495117.574707-3.024292.1750488-.7998047.5998535-1.5246582,1.0998535-2.0245361.2998047-.2999268.7998047-.7497559,1.199707-1.0247803-.4250488.1000977-.8498535.2249756-1.2998047.3999023-.9248047.3499756-2.3994141.9748535-3.1740723,1.2747803-.8249512.2999268-1.7246094.7247314-2.5993652.7998047-.8999023.0999756-1.5996094-.25-1.9995117-.6499023Zm13.1716309,1.7246094c-.3498535-.3748779-.824707-.7498779-1.449707-1.1746826-.199707-.1500244-.324707-.3249512-.199707-.4998779.0749512-.0999756.2998047-.0999756.4248047-.0750732.375,0,.824707.125,1.3496094.3000488.5249023.1749268,1.2746582.5748291,1.4997559,1.0246582.2248535.3999023,0,.7998047-.3500977.8997803-.3498535.0999756-.8996582-.1248779-1.2746582-.4748535Zm1.9995117-1.0496826c-.3747559-.4499512-.824707-.6999512-1.5495605-1.0247803-.2248535-.0999756-.3249512-.3249512-.2248535-.4749756.0749512-.1499023.2749023-.0998535.4248047-.0998535.375-.0250244.8498535.0499268,1.3747559.2248535.4997559.1500244,1.2495117.4998779,1.5246582.9248047.2497559.3999023.0498047.8248291-.3249512.9248047-.3249512.125-.9248047-.0999756-1.2248535-.4748535Z"/>
        <path class="cls-1" d="m492.0577107,31.6183204c0,.1499023-.2749023.3249512-.824707.4748535v10.022583h-1.25v-9.772583c-.9747314,1.1746826-1.9744873,2.2243652-3.0992432,3.1741943l-.3999023-.3999023c2.2495117-2.3743896,4.1490479-5.3237305,5.6734619-8.9228516,1.1499023.4249268,1.7246094.7998047,1.7246094,1.1497803,0,.1999512-.2749023.3248291-.8994141.3498535-.7001953,1.3496094-1.375,2.4993896-2.0498047,3.4241943.75.0999756,1.125.2749023,1.125.4998779Zm-5.3988037-3.024292c2.1994629-1.824585,3.9241943-4.0489502,5.1986084-6.6483154,1.2246094.4997559,1.824707.9246826,1.824707,1.2746582,0,.1999512-.3251953.2999268-.9746094.2999268-1.5,2.2244873-3.3994141,4.0489502-5.7489014,5.5235596l-.2998047-.4498291Zm13.4715576,11.22229c1,.2749023,2.2744141.3999023,3.8242188.3999023.9746094,0,2.0996094-.0500488,3.3989258-.1500244-.3496094.4749756-.5996094.9747314-.7495117,1.4747314h-2.3994141c-3.1494141,0-5.4736328-.6999512-6.9482422-2.0495605-.7749023-.7497559-1.3999023-1.7745361-1.8999023-3.0742188-.5996094,2.1744385-1.5742188,4.0489502-2.9741211,5.6986084l-.4746094-.3499756c1.4995117-2.3743896,2.3994141-5.4486084,2.7241211-9.1977539,1.3999023.3249512,2.0996094.6248779,2.0996094.8997803,0,.1749268-.2998047.2999268-.8999023.3999023-.1000977.7747803-.1748047,1.2996826-.2250977,1.5496826.75,1.8244629,1.8496094,3.1491699,3.1992188,3.8740234v-8.447998h-5.7236328l-.2495117-.5748291h5.9731445v-3.7490234h-4.4736328l-.2250977-.5499268h4.6987305v-4.0489502c1.5249023.0250244,2.2744141.2249756,2.2744141.5748291,0,.2249756-.2998047.4249268-.949707.6248779v2.8492432h2.8242188l1.1000977-1.5246582c.5498047.5,1.0498047,1.0498047,1.4995117,1.5996094l-.2250977.4749756h-5.1987305v3.7490234h4.0239258l1.1748047-1.574585c.4501953.4499512.8999023.9747314,1.3496094,1.5246582l.175293.2248535-.25.3999023h-6.4736328v3.8240967h2.9492188l1.125-1.4246826c.449707.3999023.8496094.8248291,1.199707,1.2998047l.1748047.2498779-.25.4249268h-5.1987305v4.598877Z"/>
        <path class="cls-1" d="m525.2310506,30.018711v5.798584c0,1.0997314-.7749023,1.6495361-2.3242188,1.6245117,0-.4248047-.2250977-.7247314-.625-.9246826-.324707-.1749268-.9746094-.3499756-1.9746094-.4998779v-.5749512c1.2250977.125,2.1748047.1999512,2.9492188.1999512.425293,0,.6499023-.2248535.6499023-.6497803v-4.9737549h-9.3227539l-.2246094-.5749512h4.4985352v-5.423584c1.4750977.0749512,2.2246094.2498779,2.2246094.5498047,0,.1750488-.324707.375-.9248047.5998535v4.2739258h3.7490234v-7.4980469c1.5498047.0249023,2.3496094.2248535,2.3496094.5748291,0,.1999512-.3500977.4249268-1.0249023.6248779v2.4493408h4.1240234l1.0996094-1.5246582c.7001953.6749268,1.2250977,1.2247314,1.5249023,1.6746826l-.2749023.4248047h-6.4736328v3.2741699h6.5986328l1.1748047-1.5245361c.574707.4998779,1.1245117,1.0496826,1.5996094,1.6495361l-.25.4499512h-9.1230469Zm-10.5473633,7.4230957c1.8496094-1.5495605,3.3994141-3.6490479,4.5991211-6.2983398,1.2993164.5498047,1.9492188.9747314,1.9492188,1.2746582,0,.1999512-.3496094.3249512-1.0996094.3249512-1.2998047,2.1994629-2.9990234,3.8989258-5.0986328,5.1236572l-.3500977-.4249268Zm.0249023,4.1740723c6.4985352-1.1748047,11.2724609-3.7241211,14.296875-7.6481934,1.1245117.5998535,1.6992188,1.074707,1.6992188,1.3996582,0,.1750488-.199707.2999268-.6245117.2749023l-.5249023-.0499268c-2.3496094,2.3743896-4.9990234,4.098999-7.9233398,5.0987549-1.7744141.6248779-3.9741211,1.0997314-6.6230469,1.4746094l-.300293-.5498047Zm13.7719727-10.7224121c1.8994141.7998047,3.3491211,1.6745605,4.2739258,2.6743164.6748047.6998291.9995117,1.2996826.9995117,1.8496094,0,.5748291-.25.8747559-.7749023.8747559-.324707,0-.5996094-.2749023-.8496094-.8498535-.6748047-1.4245605-1.9995117-2.774292-3.9492188-4.1239014l.300293-.4249268Z"/>
        <path class="cls-1" d="m555.2701131,42.575962v-1.5401611c1.6801758-2.170166,3.8500977-4.6204834,6.4057617-7.3156738,3.2202148-3.3953857,4.8305664-6.0906982,4.8305664-8.1208496,0-1.2602539-.3852539-2.3103027-1.1201172-3.1854248-.8051758-.8751221-1.8203125-1.2950439-3.0454102-1.2950439-1.3652344,0-2.5551758.4199219-3.5004883,1.2950439-.4902344.4550781-.7700195,1.0501709-.9101562,1.71521.7353516.3500977,1.0849609.8751221,1.0849609,1.6101074,0,1.1201172-.5600586,1.71521-1.6801758,1.71521s-1.7148438-.6300049-1.7148438-1.8901367.4550781-2.380249,1.3999023-3.3603516c1.3652344-1.4001465,3.1503906-2.1002197,5.390625-2.1002197,1.3300781,0,2.5551758.2800293,3.6054688.8050537,1.9599609,1.0501709,2.9052734,2.6953125,2.9052734,4.9005127,0,1.4001465-.5600586,2.8703613-1.6450195,4.3754883-.6650391.875-1.9956055,2.2402344-4.0253906,4.095459-2.8354492,2.59021-4.8305664,4.760498-6.0908203,6.4056396h7.6308594c1.5751953,0,2.6601562-.4200439,3.1850586-1.3302002.3500977-.5600586.5600586-1.505127.7705078-2.8352051h.7348633v6.055542h-14.2114258Z"/>
        <path class="cls-1" d="m597.9004842,30.3597754h1.925293c1.6801758,0,2.9404297-.4901123,3.8154297-1.4702148.7700195-.8400879,1.1547852-1.9952393,1.1547852-3.4304199,0-1.085083-.2797852-2.0301514-.875-2.7652588-.7700195-1.0500488-1.8901367-1.5750732-3.2900391-1.5750732-2.0654297,0-3.3955078.6999512-4.0253906,2.170166.6650391.2800293,1.0146484.7700195,1.0146484,1.4702148,0,1.1201172-.5600586,1.6801758-1.6450195,1.6801758-1.1552734,0-1.715332-.5950928-1.715332-1.8203125,0-1.0500488.5253906-2.0301514,1.5751953-2.9052734,1.2954102-1.085083,2.9052734-1.6101074,4.8657227-1.6101074,1.5053711,0,2.800293.3149414,3.8505859.9801025,1.7148438,1.0150146,2.5551758,2.4501953,2.5551758,4.3753662,0,3.2553711-1.9604492,5.1456299-5.9155273,5.5656738,1.6098633.1750488,2.9052734.5250244,3.9550781,1.1550293,1.7851562,1.0501709,2.6953125,2.6604004,2.6953125,4.7255859,0,2.3101807-.9101562,3.9903564-2.7651367,5.1104736-1.2602539.7351074-2.7651367,1.1551514-4.6557617,1.1551514-1.8901367,0-3.465332-.3850098-4.7250977-1.1901855-1.4355469-.9100342-2.2055664-1.9951172-2.2055664-3.2902832,0-.3150635.1049805-.5600586.2099609-.8050537.3154297-.630127.8051758-.9801025,1.5405273-.9801025,1.0849609,0,1.6450195.5600586,1.6450195,1.6451416,0,.5950928-.2451172,1.0501709-.7348633,1.295166.5600586,1.505127,1.9951172,2.3101807,4.2353516,2.3101807,1.5048828,0,2.6953125-.4899902,3.6054688-1.4350586.9448242-.9802246,1.4350586-2.2402344,1.4350586-3.8504639,0-1.8902588-.6650391-3.2904053-2.0654297-4.2354736-.9101562-.6300049-2.0649414-.9450684-3.5351562-.9450684h-1.925293v-1.3300781Z"/>
        <path class="cls-1" d="m625.158785,32.543125c3.0991211-2.5744629,5.3486328-5.923584,6.7734375-10.0476074,1.3496094.4748535,2.0244141.8498535,2.0244141,1.1496582,0,.1999512-.2998047.3499756-.949707.5-1.125,2.3493652-2.324707,4.2489014-3.6240234,5.673584-1.0249023,1.0997314-2.2744141,2.1744385-3.8491211,3.1741943l-.375-.4498291Zm3.6489258-1.1497803l-.1748047-.5748291h10.3476562l.8496094-.9997559c.875.6748047,1.324707,1.1247559,1.324707,1.3496094,0,.0999756-.0751953.2249756-.2250977.3249512l-.4746094.3498535c-.0249023,4.4239502-.375,7.2983398-1.1000977,8.6229248-.4746094.8997803-1.3745117,1.3497314-2.6240234,1.3497314,0-.4499512-.2998047-.7749023-.8500977-.9997559-.4248047-.1750488-1.2246094-.375-2.3740234-.5499268v-.5998535c1.4995117.1999512,2.6992188.2999268,3.5239258.2999268.7749023,0,1.2998047-.4748535,1.5244141-1.3996582.375-1.574585.5751953-3.973999.6000977-7.1732178h-5.3486328c-.2250977,2.6993408-.8500977,4.8737793-1.9248047,6.4984131-1.1494141,1.7745361-2.9492188,3.1491699-5.4233398,4.1739502l-.3251953-.4998779c2.6245117-1.3996582,4.4238281-3.3491211,5.3237305-5.7485352.5-1.324707.7998047-2.8243408.9248047-4.4239502h-3.5742188Zm8.3730469-8.8978271c2.074707,3.6241455,4.5991211,6.3234863,7.5732422,8.0980225-.449707.3249512-.824707.7747803-1.1748047,1.3746338-2.1992188-1.7246094-3.9990234-3.7490234-5.3486328-6.0484619-.5-.8748779-1.0498047-1.9245605-1.6245117-3.0992432l.574707-.3249512Z"/>
      </g>
      <line class="cls-3" x1=".3972493" y1="65.6926422" x2="735.2668145" y2="65.6926422"/>
      <g>
        <path class="cls-1" d="m9.6299764,102.5254859v-4.098999H3.0315877l-.2248535-.5748901h17.1707764l1.2496338-1.5496216.25.2249756c.4748535.4498291.9248047.8997803,1.3496094,1.4246216l-.2248535.4749146h-7.4482422v4.098999h4.3989258l.8997803-1.0997314c.9498291.7747803,1.4246826,1.2496338,1.4246826,1.449585,0,.0999756-.0749512.1749878-.1999512.2749634l-.5998535.374939v12.3719482h-1.2996826v-1.8995361H5.7310506v1.8995361h-1.324707v-14.0465698c.4248047.1749878.9248047.3999023,1.5246582.6748657h3.6989746Zm-3.8989258.5498047v10.3724976h14.0465088v-10.3724976h-4.6239014v5.0238037c0,.4498901.3499756.6748047,1.074707.6748047.6248779,0,1.0247803-.2498779,1.1497803-.7247925.1749268-.6748657.2749023-1.6495972.3748779-2.899292l.5998535.1999512c0,1.324646.0749512,2.2244263.1999512,2.649353.0999756.3748779.3499756.5498657.6998291.5498657-.0250244.6998291-.2749023,1.0747681-.7747803,1.199707-.3999023.0999756-1.074707.1749878-2.1744385.1749878-.8997803,0-1.5246582-.0999756-1.8746338-.25-.3748779-.1749268-.5748291-.6248169-.5748291-1.2996826v-5.2987061h-2.899292c-.0749512,3.6491699-1.5246582,6.3485107-4.2989502,8.0730591l-.3748779-.4998779c2.1245117-1.6746216,3.0493164-4.1239624,3.3242188-7.3231812l.0249023-.25h-3.8989258Zm8.1229248-.5498047v-4.098999h-2.899292v4.098999h2.899292Z"/>
        <path class="cls-1" d="m43.9034139,102.3005103c.3249512,3.973999,1.1746826,7.1482544,2.649292,9.4726562.7747803,1.199707,1.2996826,1.7995605,1.5996094,1.7995605.3748779,0,.7248535-1.4246216,1.0498047-4.3239136l.5998535.2749634c-.1500244,1.5996094-.1999512,2.7492676-.1999512,3.4741211,0,1.1497192.2498779,1.824585.7247314,1.9995117-.1499023.6998291-.4498291,1.0247803-.949707,1.0247803-.8747559,0-1.9494629-.7498779-3.1242676-2.2744751-1.9494629-2.4744263-3.1741943-6.2734985-3.6990967-11.3222046h-11.9720459l-.25-.5748901h12.1721191c-.0999756-1.2246704-.1999512-3.1992188-.2249756-5.9235229,1.4996338.0749512,2.2244873.2749023,2.2244873.5748291,0,.1749268-.2749023.3499146-.8498535.5498657.0250244,2.1494751.0999756,3.7240601.1750488,4.6988525h3.848999l1.0496826-1.4246216.5749512.5998535c.2999268.2749023.5748291.5998535.824707.949707l-.2248535.4249268h-5.9985352Zm-5.6236572,10.3474731c1.5246582-.2749634,3.1992188-.6498413,5.0238037-1.0747681v.6998291l-1.1497803.3499756c-3.6490479,1.0496826-6.9732666,1.8494873-10.0474854,2.4243774-.0999756.5748901-.2249756.8748169-.4249268.8748169-.2749023,0-.6748047-.6998291-1.0997314-2.1245117,1.6496582-.1999512,2.4743652-.2999268,2.4993896-.2999268v-8.2230225c1.449585.125,2.1744385.3249512,2.1744385.5998535,0,.1749878-.2999268.3499756-.8997803.5499268v6.8983154c1.2247314-.1999512,2.0994873-.3249512,2.6744385-.4499512v-9.5976562c1.3746338.125,2.0744629.3249512,2.0744629.5998535,0,.1999512-.25.374939-.8248291.5499268v3.024231h1.9245605l1.0496826-1.5496216c.4748535.5249023.8498535.9997559,1.1247559,1.449646l.1499023.249939-.2248535.3999023h-4.0240479v4.6488647Zm.1999512-14.2214966l1.074707-1.4246826c.5249023.5249023.9747314,1.0247803,1.3996582,1.5996094l-.2749023.3748779h-8.1729736l-.2249756-.5498047h6.1984863Zm6.7484131-1.449707c1.9494629.6748657,2.8742676,1.4996338,2.8742676,2.4744263,0,.5748901-.25.8247681-.7749023.8247681-.3748779,0-.5998535-.1999512-.7247314-.5748291-.2750244-.9497681-.7998047-1.7246094-1.6496582-2.3494263l.2750244-.374939Z"/>
        <path class="cls-1" d="m58.1316854,101.2258033c1.8994141.6497803,2.8242188,1.5245972,2.8242188,2.524353,0,.5748901-.2248535.8247681-.6998291.8247681-.3999023,0-.6497803-.2498779-.7747803-.8247681-.1499023-.7247925-.6748047-1.449646-1.6246338-2.1244507l.2750244-.3999023Zm6.1984863-1.0247803l-3.1743164,9.9725342c-.2498779.7248535-.3748779,1.2747192-.3748779,1.5996094,0,.1749878.0250244.4249268.125.8248291.1999512.9248047.2999268,1.5996094.2999268,2.0744629,0,.9498291-.3249512,1.449707-1.0247803,1.449707-.4998779,0-.7498779-.25-.7498779-.7498779,0-.124939.0500488-.6248169.1750488-1.4746094.0499268-.3748779.0499268-.7747803.0499268-1.1247559,0-1.449585-.5498047-2.2244263-1.6745605-2.3743896v-.5998535c.2999268.0499878.5499268.0749512.7498779.0749512.6497803,0,1.1246338-.2498779,1.3746338-.7747803,1.1496582-2.2244873,2.3743896-5.3237305,3.6490479-9.2727051l.5749512.3748779Zm-4.8739014-3.8490601c1.9995117.6248169,3.024292,1.449646,3.024292,2.4243774,0,.5748901-.2749023.8498535-.7998047.8498535-.2749023,0-.4748535-.1500244-.5748291-.4749146-.2999268-.9497681-.9248047-1.7245483-1.9245605-2.3744507l.2749023-.4248657Zm10.4224854,6.6734009l-3.2741699,1.1496582v9.0977783c0,.3999023.1749268.6248779.4748535.6998291.4998779.0999756,1.7246094.1749878,3.6740723.1749878,3.149292,0,4.8238525-.1999512,5.0987549-.5748901.2999268-.3748779.4998779-1.5245972.6248779-3.4490967l.6248779.2249146c0,1.7745972.0749512,2.8242798.2249756,3.149231.1248779.249939.3498535.3748779.699707.3748779-.1248779.6998291-.4248047,1.0997314-.9747314,1.2247314-.6248779.1749268-2.5993652.249939-5.8485107.249939-2.899292,0-4.598877-.0750122-5.0488281-.249939-.5249023-.1749268-.7998047-.7248535-.7998047-1.6495972v-8.8478394l-1.9744873.6998291-.3249512-.5498657,2.2994385-.8247681v-6.2485352c1.449707.0250244,2.1745605.1999512,2.1745605.5249023,0,.1499634-.2750244.3499146-.9248047.5998535v4.6988525l3.2741699-1.1497192v-6.3734741c1.449707.0250244,2.1744385.2249756,2.1744385.5249023,0,.1999512-.2999268.3999023-.949707.6498413v4.7488403l3.3491211-1.1746826.8498535-1.1747437c.949707.6748657,1.4246826,1.1246948,1.4246826,1.3496704,0,.0749512-.0500488.1749268-.1750488.2749023l-.5498047.3999023v6.9483643c0,1.199707-.6748047,1.7745361-2.0495605,1.7495117-.0249023-.6748047-.6748047-1.0997314-1.9744873-1.2996826v-.5748291c.6748047.0999756,1.3497314.1499634,1.949585.1499634.5498047,0,.824707-.1999512.824707-.6248169v-6.5734253l-3.6490479,1.2496948v8.9228516h-1.2247314v-8.4979248Z"/>
        <path class="cls-1" d="m96.3539754,107.4992408c.6749268,1.4246826,1.574585,2.6743164,2.7493896,3.6491089,1.0496826-.9247437,1.9744873-1.9995117,2.7993164-3.2241821,1.1746826.6748047,1.7495117,1.1246948,1.7495117,1.3496094,0,.1749878-.2248535.25-.6748047.25-.125,0-.2749023-.0250244-.3748779-.0250244-.8248291.7248535-1.7995605,1.3996582-2.9992676,2.0744629,1.6745605,1.2996826,3.6990967,2.2244873,6.0734863,2.7993164-.4498291.3499756-.7998047.8498535-1.074707,1.4246826-4.6239014-1.5496216-7.5981445-4.2989502-8.947876-8.2979736-.8997803.8997803-2.0244141,1.7246094-3.3491211,2.4993896v3.8990479c2.5244141-.3499146,4.473877-.6748047,5.8735352-.9747314l.1499023.5748291c-3.2990723.9248047-6.4733887,1.6246338-9.522583,2.1245117-.0999756.5498047-.2249756.8247681-.4249268.8247681-.3498535,0-.6748047-.6998291-1.0247803-2.0745239,1.199707-.0749512,2.4244385-.1749268,3.6741943-.3248901v-3.3742065c-1.6246338.8248291-3.5241699,1.4746704-5.7236328,1.9995117l-.2999268-.5498047c3.7490234-1.0747681,6.6483154-2.6243896,8.7478027-4.6239014h-8.2230225l-.2498779-.5498657h9.2977295v-2.9743042c1.4996338.0500488,2.2244873.2249756,2.2244873.5499268,0,.1749268-.2999268.3748779-.9248047.5998535v1.8245239h6.7983398l1.1746826-1.0497437c.6499023.4498901,1.199707.8497925,1.574707,1.199707l-.2249756.3999023h-8.8479004Zm-5.3486328-7.4731445c0,.1749268-.2750244.3248901-.7747803.4748535v5.5736084h-1.2998047v-5.5736084c-1.1246338,1.1247559-2.2493896,1.9744873-3.3741455,2.6243896l-.3248291-.4249268c2.2993164-1.7495728,4.098877-3.9990234,5.4486084-6.7483521,1.1746826.3999023,1.7995605.7498169,1.7995605,1.0747681,0,.1999512-.3249512.3248901-.9747314.3498535-.4748535.7248535-.9997559,1.4246826-1.5996094,2.1245117.7497559.0999756,1.0997314.2999268,1.0997314.5249023Zm6.6983643.4748535c1.074707,1.5996094,2.3743896,2.7243652,3.973999,3.3491821.4498291.1499634.7248535.249939.8747559.249939.3999023,0,.6998291-.9248047.8997803-2.774292l.5499268.2498779c-.0250244.2249756-.0250244.4998779-.0250244.7748413,0,1.3746948.2999268,2.0745239.8747559,2.0994873-.0999756.7748413-.5498047,1.1747437-1.324707,1.1747437-.7247314,0-1.4995117-.1999512-2.2993164-.5499268-2.1495361-.949707-3.7741699-2.4243774-4.8989258-4.473877l-4.7487793.2749023-.3498535-.5748291,4.8237305-.2749023c-.5498047-1.199707-.8997803-2.5744019-1.0997314-4.1240234,1.449707,0,2.1994629.1499634,2.1994629.4498901,0,.1749878-.2498779.3499146-.7497559.5498657.1749268,1.2247314.4998779,2.2494507.9747314,3.0492554l4.848877-.2999268.9747314-1.3496704c.5498047.3999023,1.0496826.8497925,1.5996094,1.3496704l-.2249756.4498901-6.873291.3999023Zm.4748535-4.223999c2.0744629.4749146,3.0992432,1.1497803,3.0992432,2.0495605,0,.5498047-.2498779.8247681-.7747803.8247681-.2999268,0-.4998779-.1999512-.6748047-.5748901-.3000488-.7247925-.9748535-1.324646-1.9245605-1.8494873l.2749023-.4499512Z"/>
        <path class="cls-1" d="m112.4567586,114.3975562c.6499023-1.7246094,1.0247803-3.7740479,1.1746826-6.2235107,1.324707.25,1.9746094.5249023,1.9746094.7998047,0,.1500244-.2249756.2999268-.6998291.3999023-.4249268,2.1994629-1.0748291,3.9490967-1.9744873,5.2737427l-.4749756-.249939Zm6.6234131-15.821167c1.1247559.4998779,1.6745605.8997803,1.6745605,1.2497559,0,.1999512-.2999268.2749023-.9248047.2749023-1.1246338,1.7495728-2.524292,3.4741211-4.2489014,5.2487183,1.4996338-.124939,2.649292-.1999512,3.5241699-.2999268-.1749268-.4498901-.4998779-.9747925-1.0247803-1.6495972l.3498535-.3748779c1.5996094,1.199707,2.4244385,2.3244019,2.4244385,3.3991699,0,.5748291-.2498779.8497314-.7497559.8497314-.3249512,0-.5249023-.2498779-.5748291-.8247681-.0250244-.249939-.1000977-.5248413-.1999512-.7998047-.5749512.124939-1.199707.249939-1.8996582.3999023v10.1224976h-1.2496338v-9.897583c-.5998535.0999756-1.3996582.2249756-2.4244385.3249512-.1499023.4998779-.2999268.7498169-.4498291.7498169-.2249756,0-.4998779-.6498413-.7747803-1.8995361.7747803-.0249634,1.5245361-.0499878,2.2243652-.0750122,1.7496338-2.2744141,3.1992188-4.5488281,4.3239746-6.7983398Zm-2.5244141-2.8742676c1.199707.4498901,1.7995605.8248291,1.7995605,1.0997314,0,.1749268-.2749023.2999268-.824707.3249512-.6749268,1.074707-1.4246826,2.1244507-2.2745361,3.1491699.7747803.6748657,1.1746826,1.324707,1.1746826,1.8496094,0,.5248413-.2498779.7998047-.7247314.7998047-.3249512,0-.5499268-.25-.7248535-.7748413-.3499756-.9747925-1.0496826-1.8745728-2.0494385-2.7243042l.2749023-.3999023c.5498047.2498779,1.074707.5498047,1.574585.8747559.5998535-1.0247803,1.1746826-2.4494019,1.7745361-4.1989746Zm1.8995361,12.1970215c1.3746338,1.4246826,2.074585,2.774292,2.074585,4.0490112,0,.6248169-.25.9247437-.7498779.9247437-.3999023,0-.5748291-.2999268-.6248779-.9247437-.0499268-1.2496948-.4248047-2.4993896-1.0997314-3.7990723l.3999023-.249939Zm5.1488037-.0749512l.7998047-.9997559c.8747559.7998047,1.324707,1.2996826,1.324707,1.4746094,0,.125-.1000977.1999512-.2249756.2749023l-.5249023.25c-.9248047,2.8742676-2.5993652,4.9737549-5.0487061,6.3734131l-.3499756-.4498901c1.9995117-1.5496216,3.3492432-3.6741333,4.1490479-6.3734741h-3.1743164l-.1999512-.5498047h3.2492676Zm2.649292-2.5993652h-2.9241943v1.0247192h-1.2747803v-7.9980469c.5249023.2249146.9997559.4498901,1.4246826.6748657h1.8745117c.2749023-.8748169.4499512-1.8496094.5749512-2.9243164,1.449585.1999512,2.1744385.4498901,2.1744385.7498169,0,.1499634-.2999268.3248901-.8997803.4498901-.4499512.7747803-.8248291,1.3496704-1.1247559,1.7246094h3.7241211l.824707-1.0247803c.8999023.6998291,1.3497314,1.1746826,1.3497314,1.3746338,0,.0999756-.0499268.2249756-.2249756.2999268l-.5249023.3249512v6.3234863h-1.2496338v-.9997559h-2.4493408c.3248291,1.574585.9246826,3.024231,1.7745361,4.3739014.7497559-.8497925,1.4996338-1.9245605,2.2244873-3.2492065.9747314.6748657,1.449585,1.1246948,1.449585,1.4246216,0,.1749878-.1500244.2749634-.4748535.2749634-.0999756,0-.2249756-.0249634-.3748779-.0750122-.5749512.6248779-1.3996582,1.324707-2.4744873,2.1245117.9997559,1.4246826,2.2745361,2.6243896,3.8491211,3.6491089-.4749756.3248901-.8997803.7498169-1.199707,1.2496948-2.4494629-2.0494995-4.0490723-4.6738281-4.7988281-7.9230957v7.248291c0,1.1496582-.6998291,1.699585-2.0994873,1.6745605-.0250244-.4498901-.25-.7747803-.6748047-.9248047-.1999512-.0749512-.7749023-.1999512-1.6246338-.3999023v-.5748291c.9246826.125,1.7244873.1749268,2.4244385.1749268.4748535,0,.7247314-.2249146.7247314-.6497803v-8.3979492Zm3.7241211-3.5241699v-2.1994629h-6.6483154v2.1994629h6.6483154Zm0,2.9742432v-2.3994141h-6.6483154v2.3994141h6.6483154Z"/>
        <path class="cls-1" d="m159.7019979,95.977024v.9747925h-4.5489502v15.2212524h-.9997559v-16.1960449h5.5487061Z"/>
        <path class="cls-1" d="m177.6792928,98.8013648h-5.5986328l-.2249756-.5498657h5.3487549l.9997559-1.3496704c.949707.7747803,1.4245605,1.2496948,1.4245605,1.4746094,0,.0999756-.0998535.2249756-.3248291.3249512l-.8498535.4498901c.1999512,2.9492798.8748779,5.5236206,2.0495605,7.6481323,1.574585,2.8493042,4.0240479,5.2987061,7.3231201,7.3232422-.5247803.3248901-.9246826.7747803-1.2246094,1.2996826-3.9240723-2.6993408-6.5983887-6.2485352-8.0480957-10.6724243-1.7745361,5.0737915-5.1237793,8.7728882-10.0725098,11.0473022l-.3498535-.4748535c5.0986328-2.899292,8.3729248-7.3981934,9.7976074-13.4717407-.1500244-.7748413-.2249756-1.7995605-.25-3.0492554Z"/>
        <path class="cls-1" d="m202.5049764,97.0767554l.8497314-.9997559c.7747803.6499023,1.1746826,1.0747681,1.1746826,1.2747192,0,.124939-.0249023.2249146-.1499023.2749634l-.4499512.2749023v6.1984863h-1.2496338v-1.1746826h-5.0987549v13.2467041h-1.3496094v-19.8701172c.5498047.2249756,1.0996094.4748535,1.6495361.7747803h4.6239014Zm-4.9238281.5499268v1.9744873h5.0987549v-1.9744873h-5.0987549Zm0,4.7238159h5.0987549v-2.1744995h-5.0987549v2.1744995Zm9.8476562,3.3241577l.7497559-.9247437c.8997803.6998291,1.3746338,1.1497192,1.3746338,1.3496704,0,.0749512-.0499268.1749268-.1749268.249939l-.5249023.3499146v7.0482788h-1.2496338v-1.2246704h-5.1488037v1.574585h-1.2996826v-9.0477905c.3499756.1499634.8248291.3499146,1.4246826.6248169h4.848877Zm-4.973877.5499268v2.4743652h5.1488037v-2.4743652h-5.1488037Zm5.1488037,5.7485352v-2.6993408h-5.1488037v2.6993408h5.1488037Zm5.1987305-14.8963623l.7747803-.9997559c.8997803.6998291,1.3496094,1.1497803,1.3496094,1.3497314,0,.0999756-.0499268.1749268-.1749268.2749023l-.4498291.3249512v16.3959961c0,1.0997314-.7498779,1.6245728-2.2495117,1.5996094-.0249023-.4749146-.2498779-.7998047-.7248535-.9498291-.2749023-.0999756-.8497314-.2249146-1.6994629-.3748779v-.5748291c.824707.0999756,1.6495361.1499023,2.4493408.1499023.5748291,0,.8747559-.2249146.8747559-.6748047v-10.6723633h-5.3486328v1.0496826h-1.2747803v-7.5731201c.5749512.249939,1.0998535.4498901,1.5246582.6748047h4.9488525Zm-5.1987305.5499268v1.9744873h5.3486328v-1.9744873h-5.3486328Zm5.3486328,4.7238159v-2.1744995h-5.3486328v2.1744995h5.3486328Z"/>
        <path class="cls-1" d="m231.9544393,100.0510596v-3.8990479c1.574707.0750122,2.3494873.2749634,2.3494873.5748901,0,.1999512-.3249512.4248657-1.0247803.6497803v2.6743774h6.6234131l1.2247314-1.574646c.5247803.4499512,1.074707,1.0498047,1.6745605,1.7496338l-.25.3999023h-10.4974365c1.324707.2498779,1.9995117.4998779,1.9995117.7247925,0,.1499634-.2249756.2999268-.7497559.4749146v2.4493408h5.2486572l.8997803-1.0247192c.8997803.6998291,1.3497314,1.1497192,1.3497314,1.3496704,0,.0999756-.0500488.1999512-.2249756.3249512l-.4998779.3999023v6.3984375c0,1.1746826-.7497559,1.7995605-2.2495117,1.7995605,0-.3999023-.2248535-.6748657-.6497803-.8748169-.4249268-.1749878-1.1746826-.3499146-2.2493896-.4749146v-.6497803c1.0246582.1499023,2.0494385.2249146,3.0241699.2249146.5499268,0,.8248291-.2249146.8248291-.6998291v-6.2234497h-5.4736328v11.347168h-1.3746338v-11.347168h-5.1237793v8.8978271h-1.2996826v-10.1725464c.4498291.1749878.8997803.374939,1.2996826.5998535l.1999512.124939h4.9238281v-3.6490479h-8.7978516l-.2750244-.5748901h9.0977783Z"/>
        <path class="cls-1" d="m250.9565145,116.02219v-.9747925h4.5489502v-15.2212524h.9997559v16.1960449h-5.5487061Z"/>
        <path class="cls-1" d="m279.1563436,109.848667c.0999756.7748413.1500244,1.3746948.1500244,1.7995605,0,1.199707-.1500244,2.1244507-.4749756,2.774353-.2248535.4248657-.4997559.6497803-.7998047.6497803-.4498291,0-.6748047-.1999512-.6748047-.6248169,0-.124939.0749512-.3248901.25-.6248169.6748047-1.0498047,1.0246582-2.3244629,1.0246582-3.7491455,0-.0999756,0-.1749268-.0249023-.2749023l.5498047.0499878Zm4.2739258-2.5993652h1.4246826l.8997803-1.0747681c.8248291.6998291,1.2497559,1.1247559,1.2497559,1.324707,0,.0499878-.0500488.0999756-.125.1999512l-.5498047.3999023c-.0250244,3.9990234-.375,6.4234619-1.0247803,7.24823-.3999023.5248413-1.0498047.7748413-1.949585.7748413-.0249023-.4499512-.2749023-.7248535-.7497559-.8997803-.2249756-.0750122-.7998047-.1749878-1.699585-.2999268v-.5748901c.8997803.0750122,1.699585.124939,2.4244385.124939.7247314,0,1.1246338-.2749023,1.2496338-.8497314.3249512-1.2747192.4748535-3.2242432.4998779-5.8236084h-5.0488281v.9747314h-1.2746582v-11.9720459c.4249268.1499634.8997803.3748779,1.4746094.6748047h4.7739258l.9997559-1.2496338c.5748291.5248413.9997559.9747314,1.2496338,1.3496094l-.2249756.4499512h-3.5991211v2.524353h.9997559l.9248047-1.199707c.3999023.3999023.7749023.8497925,1.1748047,1.3746948l-.2249756.3999023h-2.8743896v2.6993408h.9997559l.9498291-1.2247314c.4249268.4748535.8248291.9497681,1.199707,1.3996582l-.2749023.3748779h-2.8743896v2.8743286Zm-3.1491699,2.4744263c.5748291,1.199707.8498535,2.2493896.8498535,3.0742188,0,.7498169-.2249756,1.1247559-.6999512,1.1247559-.3248291,0-.4748535-.1500244-.4748535-.4998779,0,0,0-.0750122.0250244-.1500244,0-.0999756.0250244-.1749268.0250244-.2498779.0249023-.374939.0499268-.7498779.0499268-1.0997314,0-.6248779-.0749512-1.2996826-.2498779-2.0495605l.4748535-.1499023Zm-.25-9.1727905h2.1745605v-2.524353h-2.1745605v2.524353Zm2.1745605.5748901h-2.1745605v2.6993408h2.1745605v-2.6993408Zm0,6.1234741v-2.8743286h-2.1745605v2.8743286h2.1745605Zm-.6248779,2.0994873c.8997803,1.1747437,1.324707,2.2244263,1.324707,3.149231,0,.4998779-.1999512.7498169-.6248779.7498169-.1999512,0-.3748779-.0999756-.4249268-.2749634,0-.0249634-.0250244-.2999268-.0499268-.8497314-.0250244-.8748169-.25-1.7496338-.6998291-2.5744019l.4748535-.1999512Zm1.2496338-.4749146c1.0748291.8997803,1.6246338,1.7995605,1.6246338,2.6494141,0,.4748535-.1749268.6998291-.5498047.6998291-.2750244,0-.4499512-.25-.4749756-.6998291-.0749512-.8248291-.3999023-1.6246338-.949707-2.3994141l.3498535-.25Zm12.4970703-11.0472412l.8747559-1.0997314c.8747559.7497559,1.2996826,1.199707,1.2996826,1.3996582,0,.0999756-.0750732.1999512-.1999512.2999268l-.5499268.3498535v7.5482178h-1.2746582v-1.3996582h-2.5993652c.0250244.2749023.0749512.5248413.125.8247681.5498047,3.5491333,2.2994385,6.4484253,5.1987305,8.6729126-.4998779.3498535-.9248047.7747803-1.2746582,1.324646-2.6994629-2.6743774-4.2740479-6.2734985-4.723877-10.8223267h-2.4743652c-.0250244,5.1987305-1.1247559,8.9477539-3.2993164,11.2471924l-.4748535-.3748779c1.6496582-2.4494019,2.4494629-6.0985107,2.4494629-11.0223389v-7.7230835c.6998291.3248901,1.199707.5998535,1.5246582.7748413h5.3986816Zm-5.5986328.5748291v5.9485474h5.7485352v-5.9485474h-5.7485352Z"/>
        <path class="cls-1" d="m322.2276326,113.9227027c-.4249268.3498535-1.1497803-.125-1.6746826-.3999023-.5247803-.2749634-1.449585-.7498779-2.4993896-1.1247559-.4498291-.1749268-.8997803-.3249512-1.324707-.4498901.0500488.5748901.0250244,1.2496948-.2749023,1.699585-.3748779.5998535-.8997803.9747925-1.5495605,1.1246948-.6499023.1500244-1.3996582.1999512-2.2744141.1500244-.8748779-.0250244-1.6746826-.3499756-2.3745117-.6998291-.6998291-.374939-1.1496582-1.1247559-1.2246094-1.6746216-.0750732-.5998535.1499023-1.2246704.7747803-1.6746216.6497803-.4498291,1.7745361-.7747803,2.7492676-.7998047.8498535-.0249634,1.8496094.0750122,2.7493896.1999512,0-.1499023,0-.3248901-.0250244-.4498291-.0250244-.7748413-.0999756-1.8995361-.0999756-2.6494141,0-.124939-.0250244-.2498779-.0250244-.3999023-.1248779,0-.1999512.0250244-.3248291,0-.8999023,0-1.8746338-.124939-2.5494385-.2498779-.6748047-.1500244-1.5496826-.4749146-2.2244873-.8248291-.2999268-.1499634-.4748535-.4998779-.2749023-.6998291.1499023-.1749268.3748779-.125.6748047-.0250244.25.0999756.4998779.1500244,1.1497803.3249512.6998291.1999512,1.7995605.2249756,2.8742676.249939h.6248779c-.0250244-.5498657-.0250244-1.0747681-.0250244-1.4246216,0-.3499756,0-.8997803.0250244-1.449707-.6748047.125-1.449707.2749634-1.949585.2999268-.8747559.0250244-1.6246338-.1499023-2.2493896-.3999023-.6248779-.2249146-1.1497803-.4748535-1.6246338-.7497559-.3999023-.25-.6748047-.6748657-.4998779-.8748169.2249756-.2249146.5498047,0,.8747559.1499634.3499756.1499634.7998047.3499146,1.324707.4748535.5249023.125,1.3746338.2249756,2.1994629.1500244.5498047-.0500488,1.2996826-.1500244,1.9494629-.2749634,0-.0499878.0250244-.0999756.0250244-.1499634,0-.7998047-.0749512-1.574585-.1248779-2.1494751-.0500488-.5998535-.2750244-1.0497437-.5998535-1.3496704-.3000488-.2999268-.4499512-.6498413-.2750244-.8997803.1500244-.2249756.5998535-.2249756,1.1247559.0499878s.9747314.7998047,1.2496338,1.3746948c.25.5748291.0500488,1.4246216-.0249023,2.1744385-.0250244.1999512-.0500488.4498901-.0749512.7248535.699707-.1749878,1.5495605-.4249268,2.0744629-.6248779.6497803-.249939,1.2996826-.5748291,1.8494873-.6498413.5249023-.0750122.9997559.0750122,1.3746338.4498901.375.3499146.0750732.6998291-.3498535.8747559-.4499512.1749878-1.5246582.3999023-2.4494629.5998535-.8497314.1999512-1.8745117.4249268-2.5993652.5748901-.0249023.249939-.0499268.4998779-.0499268.7498169-.0499268.7248535-.0749512,1.574585-.0999756,2.2744141.3498535-.0249634.6248779-.0499268.9248047-.0749512.5498047-.0499878,1.2246094-.1999512,1.5996094-.3249512.3999023-.124939.3249512-.3498535.0499268-.5248413-.2749023-.1499634-.5748291-.3248901-.8497314-.4998779-.375-.2249146-.5998535-.4998779-.6998291-.6998291-.125-.2249146.0499268-.4498901.3748779-.2249146.3748779.2749023.8248291.5498047,1.574585.7998047.5748291.1999512,1.2247314.3498535,1.5996094.3748779s.6749268.2249756.6499023.5748291c-.0250244.3499756-.5249023.6499023-1.0247803.8997803-.4998779.2249756-1.6246338.5748901-2.4743652.6998291-.4499512.0750122-1.0997314.1500244-1.699585.2249756,0,.6748047.0250244,1.449646.0749512,1.9744873.0499268.5249023.1500244,1.2247314.2498779,1.7995605.7498779.1749878,1.5496826.3999023,2.2745361.6248779.8997803.2999268,1.9244385.6248779,2.7242432,1.074707.8498535.4499512,1.1247559,1.3996582.6999512,1.7496338Zm-6.8984375-2.3994141c-.0749512,0-.1499023-.0250244-.2248535-.0500488-.6499023-.1499023-1.5246582-.2249146-2.1245117-.2498779-.5748291-.0250244-1.074707,0-1.6246338.0749512-.5748291.0999756-1.0496826.3499146-1.1746826.8747559-.125.4749146.1749268.9997559.6748047,1.2497559.5249023.2498779,1.1247559.3999023,1.8745117.3748779.7248535,0,1.3747559-.2249756,1.8996582-.5748291.5247803-.3499756.6247559-.7998047.6748047-1.2996826,0-.125.0249023-.25.0249023-.3999023Z"/>
        <path class="cls-1" d="m335.1560994,102.3255347c-.3249512-.3249512-.5998535-.9248047-.3498535-1.199707.1999512-.25.6247559-.0750122.949707.0499268.375.1500244.7498779.2749634,1.4746094.25.7498779,0,2.1745605-.4499512,2.9743652-.6998291.7747803-.2249756,2.4993896-.7748413,4.0489502-1.1747437,1.4996338-.3999023,3.2242432-.8247681,4.0240479-.9497681.7747803-.125,1.7995605-.0499878,2.2244873.2249756.3999023.2498779.6497803.6998291.4998779.9997559-.1750488.2999268-.4748535.2999268-.8747559.2249146-.3999023-.0499878-.8999023-.1749878-1.4997559-.1999512-.5998535,0-1.7495117.1499634-2.774292.2999268-.0499268,0-.0999756.0249634-.1749268.0249634-.3249512.2749634-.8498535.6499023-1.2746582,1.0247803-.5998535.5498657-1.0247803,1.0247803-1.3996582,1.8745117-.2749023.6499023-.375,1.574646-.5249023,2.5494385-.1749268.9247437-.25,2.524353-.0749512,3.9489746.0999756.8498535.3999023,1.4246826.9747314,1.8745728.4748535.3999023,1.2247314.5498657,2.0245361.4998779.8497314-.0750122,1.3746338-.0249634,1.7745361.0499878.3999023.0999756.8248291.4249268,1.0247803.7248535s-.0250244.6748047-.5499268.7247925c-.5748291.0499878-1.449585.0750122-2.4244385,0-.949707-.0750122-1.8745117-.2999268-2.6992188-.9747925-.6499023-.5248413-.9498291-1.2246704-1.1247559-2.2994385-.1750488-1.1246948-.1999512-2.3244019-.0500488-3.5991211.1750488-1.324646.3999023-2.2493896.5749512-3.024231.1749268-.7998047.5998535-1.5245972,1.0996094-2.0244751.3000488-.2999268.7998047-.7498779,1.199707-1.0247803-.4248047.0999756-.8497314.2249756-1.2995605.3999023-.9248047.3499146-2.3994141.9747314-3.1743164,1.2746582-.824707.2999268-1.7246094.7248535-2.5993652.7998047-.8997803.0999756-1.5996094-.2498779-1.9995117-.6497803Zm13.171875,1.7245483c-.3499756-.374939-.8248291-.7498169-1.449707-1.1747437-.1999512-.1499023-.3249512-.3248901-.1999512-.4998779.0749512-.0999756.2999268-.0999756.4249268-.0749512.3748779,0,.8248291.125,1.3496094.2999268.5249023.1749268,1.2747803.5748291,1.4996338,1.0247803.2249756.3999023,0,.7998047-.3498535.8997803-.3499756.0999756-.8997803-.125-1.2746582-.4749146Zm1.9995117-1.0497437c-.375-.4498901-.8248291-.6998291-1.5496826-1.0247803-.2249756-.0999756-.3249512-.3248901-.2249756-.4748535.0749512-.1499634.2749023-.0999756.4249268-.0999756.3748779-.0250244.8497314.0499878,1.3746338.2249756.4998779.1499023,1.2497559.4998779,1.5246582.9247437.25.3999023.0500488.8247681-.3249512.9247437-.3249512.125-.9248047-.0999756-1.2246094-.4748535Z"/>
        <path class="cls-1" d="m359.856783,110.3235816c0-.1500244.3249512-.25.6248779-.2999268.7498779-.125,1.2247314-.3249512,2.0744629-.7498779,1.3497314-.6497803,2.3244629-1.324646,3.3741455-2.2744141,1.3497314-1.2247314,2.074585-2.2744141,2.8243408-3.5491333.1749268-.2999268.3499756-.6998291.0999756-.8997803-.2999268-.2749634-.5748291-.3999023-.8997803-.5248413-.2749023-.125-.4249268-.2999268-.4249268-.4499512.0250244-.1749268.1999512-.2749023.6499023-.2749023s.8248291.0499878,1.5246582.3249512c.7248535.2999268,1.574585,1.2996826.8747559,2.4743652-.6998291,1.2247314-2.2495117,2.649353-3.9990234,3.8990479-1.2746582.8997803-1.8496094,1.199707-3.1242676,1.7246094-.9997559.4248657-1.7745361.6748047-2.7993164.7998047-.4998779.0499268-.7998047-.0250244-.7998047-.1999512Zm15.6212158-10.1725464c-.3499756-.3499146-.8248291-.7498169-1.449585-1.1497192-.2249756-.125-.3000488-.3249512-.2249756-.4998779.0999756-.0999756.2999268-.0999756.4498291-.0749512.375,0,.8498535.0999756,1.3497314.2749023.5247803.1999512,1.2496338.5998535,1.4996338,1.0247803.2248535.4248657,0,.7998047-.375.8997803-.3498535.0999756-.8996582-.125-1.2496338-.4749146Zm3.9990234,5.9735718c.6248779.949707.6748047,1.9494629-.0250244,2.2493896-.6748047.2999268-1.449585-.1499023-1.7495117-.949707-.3249512-.8997803-.6748047-1.4996338-1.199707-2.4494629-.5499268-.949707-.9997559-1.4996338-1.824585-2.1994629-.3748779-.2999268-.6248779-.4998779-.4498291-.6998291.1749268-.1999512.4997559-.0499268.9246826.1500244.7998047.3498535,1.4996338.8497314,2.3743896,1.5996094.8748779.7247925,1.3497314,1.3496094,1.949585,2.2994385Zm-2.0245361-6.998291c-.3748779-.4749146-.7998047-.6998291-1.5246582-1.0247803-.2248535-.0999756-.3248291-.2999268-.2248535-.4998779.0749512-.0999756.2749023-.0999756.3999023-.0999756.3999023,0,.8497314.0749512,1.3746338.249939.5249023.1499634,1.2746582.4998779,1.5246582.9247437.2749023.4249268.0499268.7998047-.2750244.9248047-.3748779.0999756-.949707-.0749512-1.2746582-.4748535Z"/>
        <path class="cls-1" d="m388.6065389,113.6477393c-.0500488-.1499634.2749023-.3499146.5249023-.4749146,1.0246582-.4748535,1.7995605-.8997803,2.5743408-1.3996582.7747803-.4748535,1.574585-1.0997314,2.6243896-2.0494385,1.074707-.9498291,1.7745361-1.699585,2.524292-2.5494385.7747803-.8497314,1.7745361-2.2744141,2.4494629-3.3241577.6748047-1.0747681,1.0997314-1.8245239,1.2496338-2.4243774.1500244-.5748901-.2248535-.8498535-.949707-.6248779-.4748535.1499634-.7749023.1999512-1.6496582.3999023s-1.4746094.3249512-2.2744141.3499146c-.7998047,0-1.574585-.2749634-2.0245361-.6248169-.5998535-.5249023-.7247314-1.0997314-.4498291-1.3746948.2248535-.249939.6748047-.2749634.9997559-.0750122.3498535.2249756.7747803.3999023,1.2246094.5249023.7498779.1749268,1.8996582.1499634,3.0493164-.0499878,1.1496582-.1999512,1.9245605-.4498901,2.2495117-.5748901.3498535-.124939.7998047-.4248657,1.2995605-.1499023.5249023.2749023.8498535.7497559.9498291,1.6245728.0999756.8997803-.2249756,1.2996826-.7248535,1.699585-.3999023.3248901-.7247314.6248169-1.3496094,1.4246216-.4998779.6998291-1.1746826,1.6246338-2.0994873,2.7493896.824707.2249146,1.8494873.5748291,2.7243652,1.1496582,1.0496826.6499023,1.7995605,1.3746948,2.2744141,1.9995117.4998779.5998535.949707,1.9245605.2248535,2.3744507-.7747803.4749146-1.5245361-.3499146-1.8994141-1.0247192-.3999023-.6998291-.7998047-1.4996338-1.4997559-2.3994141-.6497803-.8248291-1.3496094-1.324707-2.1994629-1.699585-.0249023.0249634-.0499268.0749512-.0499268.0999756-1.199707,1.3496094-2.0994873,2.1994629-3.1242676,3.0742188-.9997559.8747559-1.8745117,1.4746094-3.024292,2.1245117-.7747803.4748535-2.0494385,1.0247192-2.8742676,1.2996826-.3999023.124939-.6998291.0999756-.7497559-.0750122Z"/>
        <path class="cls-1" d="m422.2050496,113.3228492v-.4998779c.9747314-.0250244,1.6495361-.1749878,1.9244385-.4749146.25-.249939.3999023-.7498169.3999023-1.4996338v-10.9973145c0-.5498657-.1999512-.8748169-.5498047-.9747925-.2749023-.0999756-.8747559-.1499023-1.7745361-.1749268v-.5249023c1.5495605-.124939,2.8492432-.4748535,3.8990479-1.0247192v13.6966553c0,.7998047.1749268,1.324646.4748535,1.574646.2999268.2249146.8997803.3498535,1.8496094.3999023v.4998779h-6.2235107Z"/>
        <path class="cls-1" d="m447.7305623,113.3228492v-1.0997314c1.199707-1.5496826,2.7492676-3.2991943,4.5738525-5.2237549,2.2994385-2.4244385,3.4490967-4.348938,3.4490967-5.798584,0-.8997803-.2749023-1.6495972-.7998047-2.2744141-.5748291-.6248779-1.2996826-.9248047-2.1744385-.9248047-.9747314,0-1.824585.2999268-2.4993896.9248047-.3498535.3248901-.5498047.7497559-.6499023,1.2246704.5249023.249939.7749023.6248169.7749023,1.1497192,0,.7998047-.3999023,1.2247314-1.199707,1.2247314s-1.2247314-.4499512-1.2247314-1.3497314.3249512-1.699585.9997559-2.3994141c.9747314-.9997559,2.2493896-1.4996338,3.848999-1.4996338.9498291,0,1.824585.1999512,2.5744629.5748901,1.3996582.7498169,2.0744629,1.9244995,2.0744629,3.4991455,0,.9997559-.3999023,2.0494995-1.1746826,3.1242065-.4749756.6248779-1.4246826,1.5996094-2.8743896,2.9243164-2.0244141,1.8495483-3.4490967,3.3991699-4.348877,4.5738525h5.4487305c1.1246338,0,1.8994141-.2999268,2.2744141-.949707.2498779-.3999023.3999023-1.0747681.5498047-2.0245361h.5249023v4.3239746h-10.1474609Z"/>
        <path class="cls-1" d="m470.5816365,106.5994605c3.0992432-2.5743408,5.3486328-5.923584,6.7733154-10.0475464,1.3497314.4749146,2.0245361.8497925,2.0245361,1.1497192,0,.1999512-.2999268.3499146-.949707.4998779-1.1247559,2.3494263-2.3244629,4.2489624-3.6241455,5.673584-1.0247803,1.0997314-2.2745361,2.1744995-3.8491211,3.1742554l-.3748779-.4498901Zm3.6491699-1.1497192l-.1750488-.5748901h10.3475342l.8497314-.9997559c.8747559.6748657,1.324707,1.1247559,1.324707,1.3497314,0,.0999756-.0749512.2249146-.2249756.3248901l-.4748535.3499146c-.0250244,4.4239502-.3748779,7.2982178-1.0997314,8.6229248-.4748535.8997803-1.3746338,1.3496094-2.6243896,1.3496094,0-.4498291-.2999268-.7747803-.8497314-.9997559-.4249268-.1749268-1.2247314-.3748779-2.3745117-.5498047v-.5998535c1.4997559.1999512,2.6994629.2999268,3.5241699.2999268.7749023,0,1.2996826-.4749146,1.5246582-1.3996582.3748779-1.574646.5748291-3.9740601.5998535-7.1732788h-5.3486328c-.2249756,2.6993408-.8498535,4.8738403-1.9245605,6.4984131-1.1497803,1.7745972-2.9493408,3.149231-5.4237061,4.1740112l-.3249512-.4998779c2.6243896-1.3996582,4.4239502-3.3492432,5.3237305-5.7486572.4998779-1.324646.7998047-2.8242798.9248047-4.4238892h-3.5740967Zm8.3729248-8.8978271c2.0744629,3.6240845,4.598877,6.3234253,7.5731201,8.0980225-.4499512.3248901-.824707.7748413-1.1746826,1.3746948-2.1994629-1.7246094-3.9990234-3.7491455-5.3487549-6.048584-.4998779-.8747559-1.0496826-1.9244995-1.6245117-3.0992432l.5748291-.3248901Z"/>
        <path class="cls-1" d="m512.1048299,95.9520606l.7998047.3999023-8.0981445,19.6951904-.7998047-.3999023,8.0981445-19.6951904Z"/>
        <path class="cls-1" d="m537.2019979,95.977024v.9747925h-4.5490723v15.2212524h-.9997559v-16.1960449h5.5488281Z"/>
        <path class="cls-1" d="m548.4808065,105.1747779c-.7998047,2.4244385-1.8244629,4.6738892-3.0991211,6.6983643l-.5249023-.3748779c1.5495605-2.899292,2.7243652-6.1984863,3.5991211-9.9725342h-3.1491699l-.1999512-.5748901h3.3740234v-4.9738159c1.4997559.0250244,2.2246094.1999512,2.2246094.5249023,0,.1999512-.3000488.3999023-.9499512.6248779v3.8240356h1.2248535l.9746094-1.4246216c.3500977.3248901.8249512.8497314,1.449707,1.574585l-.2998047.4249268h-3.3493652v2.3493652c2.1245117,1.3497314,3.1992188,2.5993652,3.1992188,3.7990723,0,.5499268-.2497559.8498535-.7497559.8498535-.375,0-.5998535-.2749634-.7497559-.8248291-.2749023-1.1497192-.8498535-2.1744385-1.699707-3.1242676v11.597168h-1.2746582v-10.9973145Zm10.7973633,4.6489258v4.5238647h3.7490234l1.1748047-1.4746704c.6748047.5998535,1.1748047,1.1247559,1.4995117,1.574646l-.2998047.4498901h-13.3967285l-.2749023-.5498657h6.2485352v-4.5238647h-4.5490723l-.2497559-.5499268h4.7988281v-3.6990967c1.4746094.0500488,2.1743164.25,2.1743164.5998535,0,.1749878-.2749023.3999023-.8747559.6248779v2.4743652h3.0244141l1.074707-1.4746094c.574707.5998535,1.0246582,1.1247559,1.3244629,1.5496216l-.2497559.4749146h-5.1738281Zm-1.2995605-5.2737427v-4.0490112h-4.3989258l-.25-.5498657h4.6489258v-3.9740601c1.4995117.0250244,2.2243652.25,2.2243652.5748901,0,.1749878-.2749023.3999023-.9248047.6248169v2.774353h2.8994141l.9746094-1.3746948c.375.3499756.8249512.8498535,1.324707,1.4746704l-.2749023.4498901h-4.9238281v4.0490112h3.7490234l1.0249023-1.3746948c.5498047.4749146,1.0495605.9498291,1.4995117,1.4996338l-.25.4249268h-12.5217285l-.25-.5498657h5.4487305Z"/>
        <path class="cls-1" d="m580.2298299,100.4259986l-.25-.5748901h3.9741211c.324707-.5998535.5998535-1.1747437.7998047-1.7995605-1.1499023.124939-2.5244141.2249146-4.1491699.3248901l-.2497559-.5748291c3.848877-.3748779,6.7983398-.9497681,8.8476562-1.7246094,1.0249023.5499268,1.5498047.9248047,1.5498047,1.1747437,0,.0999756-.1750488.1749878-.4499512.1749878-.1750488,0-.3999023-.0250244-.7248535-.0750122-1.2998047.249939-2.3994141.4248657-3.2741699.5248413-.2749023.6748657-.5998535,1.324707-.949707,1.9745483h5.048584l1.1247559-1.4246216c.5749512.5498047,1.0498047,1.0997314,1.4248047,1.5996094l-.1999512.3999023h-4.7988281c1.4995117,1.7245483,3.2990723,2.9492188,5.3986816,3.6740723-.3000488.249939-.625.6748047-.8747559,1.1497192-1.1748047-.5498657-2.1745605-1.2747192-3.0993652-2.0994873v3.1992188h-1.2246094v-.6748657h-4.1740723v.7998047h-1.2246094v-3.2741699c-1.074707.9997559-2.2495117,1.7995605-3.4243164,2.3743896.2749023.4499512.4499512.8248291.4499512,1.199707,0,.5499268-.2248535.8248291-.7248535.8248291-.2998047,0-.5249023-.249939-.6499023-.7747803-.2497559-.8997803-.699707-1.7246094-1.324707-2.4744263v11.8220825h-1.2746582v-10.5723877c-.6748047,1.9995117-1.6494141,4.0240479-2.9240723,6.0985107l-.5-.3249512c1.6745605-3.1741943,2.8242188-6.4234009,3.4240723-9.772583v-.0749512h-3.0490723l-.1999512-.5748901h3.2490234v-4.9487915c1.5498047.0499878,2.3496094.249939,2.3496094.6248779,0,.1999512-.375.4248657-1.0749512.6248169v3.6990967h.9248047l.9748535-1.324646c.4748535.4998779.8747559.9997559,1.2497559,1.5245972l-.2250977.374939h-2.9243164v1.9995117c.6999512.4748535,1.3498535.9997559,1.8496094,1.574585,1.9746094-1.1746826,3.5241699-2.7493286,4.6738281-4.6738281h-3.3740234Zm10.2973633,6.9232788l.7998047-.9747925c.8999023.6499023,1.3496094,1.0997314,1.3496094,1.324707,0,.0499878-.0498047.125-.1247559.1999512l-.5749512.3999023v6.1235352c0,1.0997314-.6748047,1.6245728-2.0495605,1.5996094,0-.3999023-.1999512-.6499023-.5998535-.8248291-.2998047-.125-.9248047-.2749023-1.9245605-.3748779v-.5998535c1.0998535.0999756,1.9746094.1499023,2.5993652.1499023.5,0,.75-.1999512.75-.5998535v-5.8485107h-9.2729492v8.2479248h-1.2495117v-9.4726562c.3249512.125.824707.3499146,1.4995117.6498413h8.7978516Zm-3.1740723,2.2244263l.7746582-.8747559c.8498535.5748291,1.2746582.9747314,1.2746582,1.1746826,0,.0750122-.0498047.1500244-.1748047.2249756l-.4499512.3249512v3.0992432h-1.2246094v-.6248779h-3.2492676v1.0247803h-1.1748047v-4.9738159c.6748047.3248901,1.1247559.5248413,1.3498535.6248169h2.8742676Zm-2.3496094-9.1477051c-.4248047.6748047-.8747559,1.2746582-1.3745117,1.8745117h.0998535c.0500488,0,.0749512.0250244.1000977.0250244l.0498047.0249634c.0251465,0,.0751953,0,.0751953.0249634h4.2739258l.2248535-.2249146c-.3999023-.4498901-.7998047-1.0247192-1.2246094-1.7245483h-2.2246094Zm-1.0246582,2.524353v2.1494751h4.1740723v-2.1494751h-4.1740723Zm.3249512,7.1982422v2.1994629h3.2492676v-2.1994629h-3.2492676Z"/>
        <path class="cls-1" d="m600.9563924,116.02219v-.9747925h4.5488281v-15.2212524h.9997559v16.1960449h-5.548584Z"/>
        <path class="cls-1" d="m632.9803182,105.6746558c0,.1500244-.2749023.3249512-.824707.4749146v10.022522h-1.2497559v-9.772583c-.9748535,1.1746826-1.9746094,2.2244873-3.0993652,3.1741943l-.3999023-.3999023c2.2495117-2.3743896,4.1491699-5.3236694,5.6738281-8.9227905,1.1496582.4248657,1.7243652.7998047,1.7243652,1.1497192,0,.1999512-.2749023.3249512-.8996582.3499146-.6999512,1.3496704-1.3747559,2.4993896-2.0495605,3.4241333.7497559.0999756,1.1247559.2749634,1.1247559.4998779Zm-5.3986816-3.024231c2.1994629-1.8245239,3.9240723-4.0490112,5.1987305-6.6483765,1.2246094.4998779,1.8244629.9248047,1.8244629,1.2746582,0,.1999512-.324707.2999268-.9746094.2999268-1.4997559,2.2244873-3.3991699,4.0490723-5.7485352,5.5236816l-.3000488-.4498901Zm13.4716797,11.222229c.9997559.2749634,2.2744141.3999023,3.8239746.3999023.9748535,0,2.0996094-.0499268,3.3994141-.1499023-.3500977.4748535-.6000977.9747314-.75,1.4746094h-2.3994141c-3.1491699,0-5.4736328-.6998291-6.9482422-2.0494995-.7749023-.7498169-1.3996582-1.7745972-1.8994141-3.0742798-.6000977,2.1744995-1.574707,4.0490723-2.9743652,5.6986084l-.4748535-.3498535c1.4995117-2.3744507,2.3994141-5.4487305,2.7243652-9.1977539,1.3996582.3248901,2.0993652.6248169,2.0993652.8997803,0,.1749268-.2998047.2999268-.8996582.3999023-.1000977.7747803-.1750488,1.2996826-.2250977,1.5495605.7497559,1.824585,1.8496094,3.149292,3.1992188,3.8740845v-8.447937h-5.7236328l-.2497559-.5748291h5.9733887v-3.7491455h-4.473877l-.2248535-.5498047h4.6987305v-4.0490723c1.5246582.0250244,2.2744141.2249756,2.2744141.5748901,0,.2249146-.2998047.4248657-.949707.6248169v2.8493652h2.8244629l1.0996094-1.5246582c.5498047.4998779,1.0498047,1.0497437,1.4995117,1.5996094l-.2248535.4748535h-5.1987305v3.7491455h4.0241699l1.1745605-1.574646c.4499512.4498901.8999023.9747925,1.3496094,1.5245972l.1750488.2249756-.25.3999023h-6.4733887v3.8240967h2.9492188l1.1247559-1.4246826c.4499512.3999023.8498535.8248291,1.199707,1.2996826l.1750488.249939-.25.4248657h-5.1987305v4.598877Z"/>
        <path class="cls-1" d="m666.1539022,104.0750464v5.798584c0,1.0997314-.7746582,1.6496582-2.3244629,1.6246338,0-.4249268-.2248535-.7248535-.6247559-.9248047-.3249512-.1749268-.9748535-.3498535-1.9746094-.4998779v-.5748291c1.2248535.125,2.1745605.1999512,2.9494629.1999512.4248047,0,.6496582-.2249756.6496582-.6498413v-4.9738159h-9.3227539l-.2248535-.5748291h4.4990234v-5.4237061c1.4746094.0750122,2.2243652.25,2.2243652.5499268,0,.1749268-.3249512.3748779-.9248047.5998535v4.2739258h3.7490234v-7.4981689c1.5495605.0250244,2.3493652.2249756,2.3493652.5748291,0,.1999512-.3498535.4249268-1.0246582.6248779v2.4494019h4.1240234l1.0998535-1.5245972c.699707.6748047,1.2246094,1.2246704,1.5244141,1.6745605l-.2749023.4249268h-6.4733887v3.2741699h6.5983887l1.1748047-1.5246582c.574707.4998779,1.1247559,1.0498047,1.5996094,1.6496582l-.25.4498291h-9.1228027Zm-10.5473633,7.4232178c1.8496094-1.5496216,3.3991699-3.6491089,4.598877-6.2984619,1.2995605.5498657,1.9494629.9747314,1.9494629,1.2746582,0,.1999512-.3498535.3249512-1.0996094.3249512-1.2998047,2.1994629-2.9992676,3.8990479-5.098877,5.1237793l-.3498535-.4249268Zm.0249023,4.1739502c6.4985352-1.1746826,11.2722168-3.7240601,14.2966309-7.6480713,1.1247559.5998535,1.6994629,1.074707,1.6994629,1.3996582,0,.1749268-.1999512.2999268-.6247559.2749023l-.5249023-.0499878c-2.3493652,2.3744507-4.9987793,4.098999-7.9230957,5.0987549-1.7746582.6248169-3.973877,1.0997314-6.623291,1.4746704l-.3000488-.5499268Zm13.7717285-10.7223511c1.8994141.7998047,3.3491211,1.6746216,4.2739258,2.6743774.6748047.6998291.9997559,1.2996826.9997559,1.8494873,0,.5748901-.25.8748169-.7749023.8748169-.3249512,0-.5998535-.2749634-.8496094-.8497925-.6750488-1.4246826-1.9995117-2.774292-3.9492188-4.1240234l.3000488-.4248657Z"/>
        <path class="cls-1" d="m687.8802205,97.6766089h10.1726074v.6748657c-2.9743652,4.5488892-4.5239258,9.2227173-4.6738281,14.0715942-.0500488.8747559-.3999023,1.324646-1.0246582,1.324646-.6748047,0-.9997559-.4248657-.9997559-1.2747192,0-2.9992676,1.7243652-7.4731445,5.2236328-13.4466553h-6.1235352c-.7248535,0-1.2497559.3999023-1.5495605,1.199707-.1750488.4998779-.3498535,1.3496094-.4748535,2.5743408h-.5500488v-5.1237793Z"/>
        <path class="cls-1" d="m710.5813924,106.5994605c3.0993652-2.5743408,5.348877-5.923584,6.7734375-10.0475464,1.3496094.4749146,2.0244141.8497925,2.0244141,1.1497192,0,.1999512-.2998047.3499146-.949707.4998779-1.1247559,2.3494263-2.3244629,4.2489624-3.6240234,5.673584-1.0249023,1.0997314-2.2744141,2.1744995-3.8491211,3.1742554l-.375-.4498901Zm3.6491699-1.1497192l-.1748047-.5748901h10.3474121l.8498535-.9997559c.8747559.6748657,1.3244629,1.1247559,1.3244629,1.3497314,0,.0999756-.0749512.2249146-.2248535.3248901l-.4748535.3499146c-.0249023,4.4239502-.375,7.2982178-1.0996094,8.6229248-.4750977.8997803-1.3747559,1.3496094-2.6245117,1.3496094,0-.4498291-.2998047-.7747803-.8498535-.9997559-.4248047-.1749268-1.2246094-.3748779-2.3742676-.5498047v-.5998535c1.4995117.1999512,2.6992188.2999268,3.5241699.2999268.7746582,0,1.2995605-.4749146,1.5246582-1.3996582.3747559-1.574646.574707-3.9740601.5996094-7.1732788h-5.3486328c-.2248535,2.6993408-.8496094,4.8738403-1.9245605,6.4984131-1.1496582,1.7745972-2.9492188,3.149231-5.423584,4.1740112l-.3249512-.4998779c2.6242676-1.3996582,4.4240723-3.3492432,5.3237305-5.7486572.4997559-1.324646.7998047-2.8242798.9248047-4.4238892h-3.5742188Zm8.3730469-8.8978271c2.0744629,3.6240845,4.598877,6.3234253,7.572998,8.0980225-.449707.3248901-.824707.7748413-1.1745605,1.3746948-2.1994629-1.7246094-3.9990234-3.7491455-5.3486328-6.048584-.5-.8747559-1.0498047-1.9244995-1.6247559-3.0992432l.5749512-.3248901Z"/>
      </g>
    </g>
  </g>
</svg>