<?xml version="1.0" encoding="UTF-8"?>
<svg id="_レイヤー_2" data-name="レイヤー 2" xmlns="http://www.w3.org/2000/svg" viewBox="0 0 50 49.9999547">
  <defs>
    <style>
      .cls-1 {
        fill: #969797;
        stroke-width: 0px;
      }
    </style>
  </defs>
  <g id="_レイヤー_1-2" data-name="レイヤー 1">
    <g>
      <g>
        <circle class="cls-1" cx="38.1077239" cy="11.7721274" r="3.0466708"/>
        <path class="cls-1" d="m37.1130696,0H12.886977C5.7810381,0,0,5.7811781,0,12.8868841v24.2262796c0,7.1057993,5.7810381,12.8867909,12.886977,12.8867909h24.2260925c7.1059389,0,12.8869304-5.7809916,12.8869304-12.8867909V12.8868841c0-7.1057061-5.7809915-12.8868841-12.8869304-12.8868841Zm9.0222634,37.1131637c0,4.9748099-4.0473605,9.0221239-9.0222634,9.0221239H12.886977c-4.9749495,0-9.0222634-4.047314-9.0222634-9.0221239V12.8868841C3.8647136,7.9119811,7.9120275,3.8646671,12.886977,3.8646671h24.2260925c4.9749029,0,9.0222634,4.047314,9.0222634,9.0222171v24.2262796Z"/>
      </g>
      <path class="cls-1" d="m25.0001631,13.0571806c-6.5853556,0-11.9427964,5.3575808-11.9427964,11.9427501,0,6.5853558,5.3574408,11.9428433,11.9427964,11.9428433,6.585309,0,11.9427575-5.3574875,11.9427575-11.9428433,0-6.5851694-5.3574485-11.9427501-11.9427575-11.9427501Zm0,20.021206c-4.4543196,0-8.0780828-3.6240895-8.0780828-8.0784559,0-4.4542265,3.6237632-8.078083,8.0780828-8.078083,4.454273,0,8.0780828,3.6238565,8.0780828,8.078083,0,4.4543663-3.6238098,8.0784559-8.0780828,8.0784559Z"/>
    </g>
  </g>
</svg>