<?xml version="1.0" encoding="UTF-8"?>
<svg id="_レイヤー_2" data-name="レイヤー 2" xmlns="http://www.w3.org/2000/svg" viewBox="0 0 267.5708008 134.7059812">
  <defs>
    <style>
      .cls-1 {
        fill: #231815;
        stroke-width: 0px;
      }
    </style>
  </defs>
  <g id="_レイヤー_1-2" data-name="レイヤー 1">
    <g>
      <g>
        <path class="cls-1" d="m70.7269431,33.9721097h3.3082338c1.0696337,0,2.4413293.178799,2.4413293,1.4579346v11.5053838s-3.7213679,1.3658893-10.443941,1.3658893c-6.718961,0-15.7013552-3.6996952-15.7013552-13.9467764,0-10.24076,9.3706952-14.2271658,16.2919339-14.2271658,3.1244681,0,7.0196684.1842172,7.0196684,1.9374411v3.4206604c-2.6296101-2.1455884-3.6969862-2.5434351-7.6924224-2.5434351-4.0116906,0-11.1862279,2.6251589-11.1862279,11.1804219,0,8.5110148,9.6199302,13.5932419,17.6293146,10.3766653v-6.5307435c0-1.3698261-.1083631-3.9962755-1.6665335-3.9962755Z"/>
        <path class="cls-1" d="m120.9672162,47.6041817h8.4771515c-2.3352238-.8772892-3.3082338-3.6960831-4.0934144-5.7500145-.7892443-2.039483-6.9275598-16.9655904-7.5962502-19.0145552-.6971357-2.0435466-1.6561487-2.0435466-2.4557777-2.0435466h-4.8537619c2.3307087.7842776,1.0466065,2.4413293.6583056,3.6088773-.3824313,1.1622576-8.5692601,21.4600119-8.5692601,21.4600119-2.8341454-.7797625-9.9698526-11.2191881-9.9698526-11.2191881,9.4605463-2.7221702,8.0170601-13.8497012-1.2556569-13.8497012h-10.6322218c2.1510067.4849247,1.9568562,2.7370701,1.9568562,4.490294v18.4275886c0,2.5293743-.7833746,3.2214799-2.0489648,3.8902336h7.7944643c-2.1410734-.9693978-1.5703613-3.2165766-1.5703613-4.2866618v-19.8814596h4.2058411c2.2535,0,3.8992639,2.732555,3.8992639,4.5869177,0,3.0039141-2.3492207,4.1814593-4.6740598,5.0537819-2.3496723.8759347-1.0755033,2.8287272,0,4.383737,1.0691821,1.5649431,4.185523,5.9621621,6.0543342,8.1091684,1.8462356,2.14604,3.5064479,2.0345163,4.3796735,2.0345163h7.0192169c-2.7172036-.8669044-1.2597205-3.0025596-.8768377-4.0780629.3986857-1.0809215,2.146943-5.6637756,2.146943-5.6637756h10.531986s1.2737174,3.3082337,2.4413293,6.2484845c1.1820603,2.911354.2799379,3.3041701-.9689463,3.4933539Zm-10.9293172-12.8622428l3.9954362-10.4340074,4.2979497,10.4340074h-8.2933858Z"/>
        <path class="cls-1" d="m206.3857492,47.6041817h8.5019847c-2.3555419-.8772892-3.3226822-3.6960831-4.097478-5.7500145-.7752474-2.039483-6.9293659-16.9655904-7.6061835-19.0145552-.6894599-2.0435466-1.6480215-2.0435466-2.4476505-2.0435466h-4.8664042c2.3537359.7842776,1.0696337,2.4413293.672754,3.6088773-.3883009,1.1622576-8.5837085,21.4600119-8.5837085,21.4600119-.5436213,1.2741689-1.3432504,1.2931324-1.8462356,1.739227h7.023732c-2.7321035-.8669044-1.2701053-3.0025596-.8813529-4.0780629.3864949-1.0809215,2.1550703-5.6637756,2.1550703-5.6637756h10.5279223s1.2841022,3.3082337,2.4494566,6.2484845c1.1635483,2.911354.2821955,3.3041701-1.0019068,3.4933539Zm-10.9080961-12.8622428l3.9954362-10.4340074,4.2875649,10.4340074h-8.2830011Z"/>
        <path class="cls-1" d="m176.3863403,48.1031033c.9730099-.8813528,1.8543628-1.5695215,1.8543628-4.6804442v-18.4320404c0-1.4574831-.1124267-3.1294347-1.8543628-3.7096285h7.4937568c-.7747958.6917175-1.7013,1.5586219-1.7013,3.5208962v18.6207727c0,1.6625332-.3395376,4.1047655,1.8114691,4.6804442h-7.6039259Z"/>
        <path class="cls-1" d="m135.9791115,27.0305532s-.0961722,14.7215088-.0961722,16.3921059c0,1.6625332.1982141,4.1047655,2.3433511,4.6804442h-7.1257739c.9937795-.8813528,1.754127-1.5695215,1.754127-4.6804442,0-3.1140198.2085989-16.983136.2085989-18.4320404,0-1.4574831-.2085989-3.1294347-1.9627258-3.7096285h5.4795585l16.3741092,20.5731771v-16.7610552c0-1.0804699.1982141-3.1204044-2.0449012-3.9001669h7.3099911c-.8669044.6682388-2.1573278.9689463-2.1573278,3.7976735v24.1970182s-2.0345164.373401-5.3427501-3.6179714c-3.3267458-3.9913724-14.7400846-18.5391123-14.7400846-18.5391123Z"/>
        <path class="cls-1" d="m182.5856101,68.8659157c-21.4464032-18.079084-29.6558077-39.3552032-.318768-68.3870195.9201829-.9197314,1.791151-.3729495,1.0691821.4501582-12.856825,14.7029961-27.2004815,38.2160366-.2943863,67.0410601.4171978.4357098.2618774,1.3947228-.4560279.8958012Z"/>
      </g>
      <g>
        <path class="cls-1" d="m110.4582574,11.4899369c1.1630968-.5807096,1.7645118-1.5500432,2.0710889-2.4413293l1.1125274.1358411c-.1024934.2371084-.1738324.4407407-.3476648.755445h1.5541068c.0099333.0437325.0347665.2423981.0428937.2808409l1.1671604-.1797021c-.1002358.8094981-.3332164,1.6041605-.7300961,2.331096-.9788796,1.7582547-2.3162603,2.2183462-3.9480273,2.4996386l-.4212614-.9793311c1.6421518-.2076959,3.2120616-.711584,3.8360522-2.9832088h-2.1162402c-.6790751.8565838-1.2904234,1.1956699-1.5559129,1.3555054l-.6646267-.7747958Zm4.5801451-1.5021828c-.0307029-.1837657-.1801536-.7797625-.2578138-.9874583l.566197-.088045c.1309387.3250892.2230473.6492753.3007075.9743644l-.6090907.1011388Zm.8994134-.1255205c-.0573421-.2812924-.1246175-.5522001-.2718107-.930632l.5765818-.0866262c.1228115.3056741.2393017.6881054.2862591.9161193l-.5910302.1011388Z"/>
        <path class="cls-1" d="m125.713518,10.9092273c-.2189837,2.1650677-1.0610549,3.6713141-4.3837371,3.9092613l-.3147044-.9639797c2.2674969-.0921086,3.1547195-.7269355,3.4491058-1.9916226h-4.1426293v-.9536591h5.391965Zm-.4311947-1.5991938v.9639797h-4.4717821v-.9639797h4.4717821Z"/>
        <path class="cls-1" d="m131.84777,11.3251347c-.6054786-.4159074-1.3477655-.7747958-2.0512223-1.002874l.4763459-.895737c.867356.2618774,1.5541068.5860635,2.1352037.939598l-.5603273.959013Zm-1.9568562,2.3247748c2.4413293-.2076959,3.831537-1.0497029,4.6045268-3.7876761l.9897159.4989216c-1.0326096,3.444139-3.067126,4.0934143-5.2470294,4.403152l-.3472133-1.1143975Z"/>
        <path class="cls-1" d="m141.2879982,12.4290833c-.566197-.3098019-1.2308237-.5711636-1.9220897-.7594444l.3621132-.8732898c.5088548.1128782,1.3328656.3694016,1.9586622.703521l-.3986857.9292132Zm-1.5744249,1.2403054c2.0444496-.178799,3.4843237-.5612945,4.3692887-3.531281l.975719.4745399c-1.0533792,3.1303377-2.6562494,3.8807518-5.0650698,4.1814593l-.2799379-1.1247182Zm2.1406219-2.8043455c-.6334724-.3300558-1.3084839-.5467819-1.9893651-.7165507l.3720465-.8628408c.6257966.1164903,1.4005925.3445042,2.0304528.6542419l-.4131341.9251496Z"/>
        <path class="cls-1" d="m149.0964594,14.0631079c.533688-.2190478,1.6584063-.6501783,1.9342805-2.094116.1024934-.4885368.0903025-.8912861.0903025-1.2348873l1.0854366.0054182c-.0081272.2799379-.018512.4885368-.0573421.8474894.4889883-.2325291.9797826-.5675515,1.2841022-1.2791355h-4.3878007v-.9978431h5.7152481c-.1986656,1.5991938-.8529075,2.4372657-1.9387957,3.0671259l-.6872024-.7075204c-.1756385,1.3220292-.6009634,2.3537358-2.359154,3.2201887l-.6790751-.8267198Z"/>
      </g>
    </g>
    <g>
      <path class="cls-1" d="m13.3713379,73.5275144h-7.8408203l-.3151855-.7701416h7.4909668l1.4001465-1.8902588c1.3300781,1.0852051,1.9951172,1.7502441,1.9951172,2.0653076,0,.1400146-.1398926.3150635-.4550781.4549561l-1.1901855.630127c.2800293,4.1303711,1.2253418,7.7358398,2.8703613,10.7111816,2.2053223,3.9903564,5.6357422,7.4206543,10.2561035,10.2559814-.7351074.4550781-1.295166,1.085083-1.7150879,1.8201904-5.4956055-3.7803955-9.2409668-8.7508545-11.2712402-14.9465332-2.4853516,7.1057129-7.1757812,12.2862549-14.1064453,15.4716797l-.4899902-.6651611c7.140625-4.0604248,11.7260742-10.361084,13.7214355-18.8669434-.2102051-1.085083-.3151855-2.5202637-.3500977-4.2703857Z"/>
      <path class="cls-1" d="m44.6259766,71.1122312l1.1899414-1.4001465c1.0852051.9100342,1.6452637,1.505127,1.6452637,1.7851562,0,.1750488-.0349121.3150635-.2099609.3850098l-.630127.3850098v8.6809082h-1.7502441v-1.6451416h-7.140625v18.552002h-1.8901367v-27.8280029c.7700195.3150635,1.5400391.6651611,2.3100586,1.0852051h6.4758301Zm-6.895752.7700195v2.7653809h7.140625v-2.7653809h-7.140625Zm0,6.6157227h7.140625v-3.0452881h-7.140625v3.0452881Zm13.7915039,4.6555176l1.0500488-1.295166c1.2600098.9801025,1.9250488,1.6101074,1.9250488,1.8901367,0,.1051025-.0698242.2451172-.244873.3500977l-.7351074.4899902v9.8710938h-1.7502441v-1.71521h-7.2106934v2.2052002h-1.8203125v-12.6712646c.4902344.210083,1.1552734.4901123,1.9953613.8751221h6.7907715Zm-6.9658203.7700195v3.465332h7.2106934v-3.465332h-7.2106934Zm7.2106934,8.0509033v-3.7803955h-7.2106934v3.7803955h7.2106934Zm7.2807617-20.8621826l1.0852051-1.4001465c1.2600098.9801025,1.8901367,1.6101074,1.8901367,1.8901367,0,.1400146-.0700684.2451172-.2451172.3850098l-.6298828.4550781v22.9624023c0,1.5401611-1.050293,2.2752686-3.1503906,2.2402344-.0349121-.6650391-.3500977-1.1201172-1.0151367-1.3300781-.3850098-.1400146-1.1901855-.3150635-2.380127-.5251465v-.8050537c1.1550293.1400146,2.3100586.210083,3.4301758.210083.8051758,0,1.2250977-.3150635,1.2250977-.9450684v-14.9466553h-7.4907227v1.4702148h-1.7851562v-10.6060791c.8051758.3499756,1.5402832.6300049,2.1352539.9450684h6.9306641Zm-7.2807617.7700195v2.7653809h7.4907227v-2.7653809h-7.4907227Zm7.4907227,6.6157227v-3.0452881h-7.4907227v3.0452881h7.4907227Z"/>
      <path class="cls-1" d="m82.3562012,75.2776364v-5.4605713c2.2053223.1049805,3.2902832.3850098,3.2902832.8050537,0,.2800293-.4550781.5950928-1.4350586.9101562v3.7453613h9.2758789l1.715332-2.2052002c.7348633.6300049,1.505127,1.4700928,2.3452148,2.4501953l-.3500977.5600586h-14.7016602c1.8552246.3500977,2.800293.7000732,2.800293,1.0151367,0,.2099609-.3149414.4200439-1.0500488.6650391v3.4304199h7.3508301l1.2600098-1.4351807c1.2602539.9801025,1.8903809,1.6102295,1.8903809,1.8902588,0,.1398926-.0700684.2800293-.3151855.4549561l-.6999512.5600586v8.9609375c0,1.6451416-1.0500488,2.5202637-3.1503906,2.5202637,0-.5600586-.3149414-.9450684-.9101562-1.2250977-.5949707-.2449951-1.6450195-.4901123-3.1501465-.6650391v-.9101562c1.4350586.210083,2.8701172.3150635,4.2353516.3150635.7700195,0,1.1550293-.3150635,1.1550293-.9801025v-8.7159424h-7.6657715v15.8917236h-1.9250488v-15.8917236h-7.1757812v12.4613037h-1.8203125v-14.24646c.630127.2449951,1.2602539.5250244,1.8203125.8400879l.2800293.1750488h6.895752v-5.1105957h-12.3212891l-.3852539-.8050537h12.7414551Z"/>
    </g>
    <g>
      <path class="cls-1" d="m111.5163574,92.8805417c2.1054688-3.0772095,3.6170654-6.9101562,4.5349121-11.4989624,1.6464844.4318848,2.4562988.836792,2.4562988,1.2147217,0,.2159424-.3509521.3778687-1.0797119.4858398-1.1607666,4.1298828-2.9692383,7.5310059-5.4255371,10.2033081l-.4859619-.4049072Zm5.2097168,1.7275391c1.5925293.1619263,2.9151611.2699585,3.940918.2699585.5668945,0,.836792-.242981.836792-.7558594v-17.8692017c1.7275391.0269775,2.5643311.2699585,2.5643311.6208496,0,.2159424-.3509521.4588623-1.0797119.7017822v17.3563843c0,1.3766479-.8907471,2.0514526-2.7263184,2.0514526,0-.4859009-.296875-.836792-.9718018-1.1066895-.4318848-.1889648-1.2956543-.3779297-2.564209-.5938721v-.6748047Zm9.3394775-13.6313477c2.4562988,2.2133789,4.3728027,4.5617676,5.668457,7.0181274.7017822,1.3226318,1.0257568,2.3753662,1.0257568,3.1581421,0,.8097534-.296875,1.1876831-.9177246,1.1876831-.4049072,0-.7288818-.4588623-.9718018-1.430603-.7017822-2.8612671-2.4293213-6.0194092-5.2635498-9.5014648l.4588623-.4318848Z"/>
      <path class="cls-1" d="m155.8997803,88.7236203l-.4049072.296936v8.0438843h-1.4306641v-1.7815552h-9.8253174v1.7815552h-1.4306641v-8.6376953c-1.2415771.836792-2.6452637,1.5925293-4.1298828,2.2403564l-.3778076-.4858398c4.2647705-2.2404175,7.6658936-5.668457,10.2032471-10.2572632,1.3496094.4318848,2.0244141.7827759,2.0244141,1.1066895,0,.1889648-.3238525.3508911-.9177246.4318848l.1348877.1619873c3.0231934,3.0231934,6.4243164,5.371521,10.5002441,6.8561401-.4588623.4049072-.8907471.9177856-1.2145996,1.5925903-1.1337891-.539856-2.1324463-1.0797119-2.9422607-1.5925903-.0539551.0809937-.1080322.1619873-.1889648.2429199Zm-16.5466309-5.2365723c2.3483887-1.8624878,4.18396-4.1029053,5.5065918-6.8562012,1.3496094.6208496,2.0244141,1.1067505,2.0244141,1.4036865,0,.2159424-.3778076.3778687-1.133667.4318848-1.5925293,2.2133789-3.6170654,4.0758667-6.0463867,5.5064697l-.3509521-.4858398Zm15.3590088,4.0489502c-1.9436035-1.4036865-3.6981201-3.2121582-5.371582-5.3985596l-.1080322-.1619873c-1.5385742,2.3214111-3.401123,4.2648926-5.6414795,5.8843994.1619873.0540161.4318848.1619873.836792.3509521h9.609375l.6749268-.6748047Zm-.6479492,7.1530762v-5.8574219h-9.8253174v5.8574219h9.8253174Zm-2.2133789-18.031189c4.2648926,2.2943726,6.3973389,4.1568604,6.3973389,5.5335083,0,.5938721-.2969971.8907471-.836792.8907471-.2698975,0-.5938721-.296875-.9716797-.9177246-.9718018-1.6466064-2.6184082-3.3471069-4.9396973-5.0476685l.3508301-.4588623Z"/>
      <path class="cls-1" d="m183.1966553,78.3854245l.9718018-1.1607056c.9987793.7827759,1.5115967,1.2956543,1.5115967,1.5115967,0,.1349487-.1080322.2159424-.2698975.3239136l-.5668945.3778687v16.9785156h-1.4576416v-1.9434814h-14.5490723v2.1864014h-1.4576416v-19.1109009c.5129395.2159424,1.1066895.4859009,1.7275391.836792h14.09021Zm-14.3601074.593811v6.8831787h6.4512939v-6.8831787h-6.4512939Zm6.4512939,7.5040283h-6.4512939v7.3690186h6.4512939v-7.3690186Zm8.0977783-.6208496v-6.8831787h-6.6942139v6.8831787h6.6942139Zm0,7.9898682v-7.3690186h-6.6942139v7.3690186h6.6942139Z"/>
      <path class="cls-1" d="m199.885498,94.2571897v-.539856c1.0527344-.0270386,1.7814941-.1889648,2.0783691-.5128784.2700195-.2698975.4318848-.8098145.4318848-1.6195679v-11.8768311c0-.593811-.2159424-.9447632-.59375-1.0527344-.2969971-.1079712-.9448242-.1619263-1.9165039-.1889038v-.5668945c1.6734619-.1349487,3.0771484-.5128174,4.2108154-1.1066895v14.7920532c0,.8637695.1889648,1.430603.5128174,1.7005615.3239746.2429199.9718018.3778687,1.9975586.4318848v.539856h-6.7211914Z"/>
      <path class="cls-1" d="m226.885498,94.2571897v-.539856c1.0527344-.0270386,1.7814941-.1889648,2.0783691-.5128784.2700195-.2698975.4318848-.8098145.4318848-1.6195679v-11.8768311c0-.593811-.2159424-.9447632-.59375-1.0527344-.2969971-.1079712-.9448242-.1619263-1.9165039-.1889038v-.5668945c1.6734619-.1349487,3.0771484-.5128174,4.2108154-1.1066895v14.7920532c0,.8637695.1889648,1.430603.5128174,1.7005615.3239746.2429199.9718018.3778687,1.9975586.4318848v.539856h-6.7211914Z"/>
      <path class="cls-1" d="m255.6669922,80.3558835v9.7984009h.4318848l1.0257568-1.5385742c.5397949.6478271.9716797,1.2416382,1.2956543,1.7545166l-.2700195.4049072h-11.7687988l-.2159424-.6208496h2.9692383v-9.7984009h-2.5643311l-.1889648-.6208496h2.7532959v-4.2108765c1.5925293.0540161,2.3753662.2699585,2.3753662.5668945,0,.2159424-.3239746.4318848-.9987793.6478271v2.9961548h3.8060303v-4.2108765c1.5925293.0540161,2.3753662.2699585,2.3753662.5668945,0,.2159424-.3239746.4318848-1.0257568.6478271v2.9961548h.4858398l.9718018-1.5115967c.5128174.5938721.9447021,1.133728,1.2686768,1.6465454l-.2969971.4859009h-2.4293213Zm-9.5014648,16.4385986c1.4846191-1.3496094,2.7532959-3.1581421,3.7249756-5.3445435,1.3226318.6208496,1.970459,1.0797119,1.970459,1.3765869,0,.1889648-.2159424.2699585-.6208496.2699585-.1618652,0-.296875-.0269775-.4318848-.0269775-.9716797,1.6195679-2.3482666,3.0231934-4.2108154,4.2108765l-.4318848-.4859009Zm4.3458252-13.9282837h3.8060303v-2.5103149h-3.8060303v2.5103149Zm3.8060303.6208496h-3.8060303v2.8342285h3.8060303v-2.8342285Zm0,3.4550781h-3.8060303v3.2121582h3.8060303v-3.2121582Zm-1.0527344,4.2918701c2.5643311.9717407,3.8330078,1.9974365,3.8330078,3.104126,0,.5668945-.2700195.836792-.8098145.836792-.3509521,0-.5938721-.2429199-.8098145-.7557983-.3239746-.8907471-1.1877441-1.8085327-2.4833984-2.7532349l.2700195-.4318848Zm11.9307861-14.2252197l.9718018-1.133667c.9447021.8097534,1.4035645,1.3226318,1.4035645,1.5925293,0,.0540161-.0269775.1079712-.1079102.1889648l-.6208496.3779297v16.7894897c0,1.4575806-.8098145,2.1864014-2.4564209,2.2134399,0-.4589233-.2429199-.836792-.7017822-1.0527344-.4049072-.1619873-1.1606445-.3509521-2.2944336-.539856v-.6748657c1.0797119.1889648,2.1594238.242981,3.2661133.242981.539917,0,.8098145-.242981.8098145-.7288208v-5.614502h-4.6427002c-.4588623,3.8599854-2.0245361,6.7211914-4.6697998,8.6107178l-.4588623-.4859009c2.6182861-2.4023438,3.9139404-6.208313,3.9139404-11.3909302v-9.1235962c.5668945.242981,1.1066895.4859009,1.6196289.7288208h3.9678955Zm-4.3188477,11.0400391h4.5887451v-5.0206299h-4.4537354v2.3483887c0,.9716797-.0269775,1.8084717-.1080322,2.4832764l-.0269775.1889648Zm.1350098-10.4191895v4.77771h4.4537354v-4.77771h-4.4537354Z"/>
    </g>
    <g>
      <path class="cls-1" d="m40.5273438,129.2491941c-1.0341797,1.5622559-2.3762207,2.9263916-4.048584,4.0925293l-.3520508-.3959961c1.9362793-1.6502686,3.3664551-3.4765625,4.2685547-5.5007324h-3.5644531l-.197998-.5061035h3.8945312v-2.3323975c1.2321777.06604,1.8703613.2200928,1.8703613.4400635,0,.1320801-.2641602.2861328-.7702637.4621582v1.4301758h2.0024414l.8359375-1.1002197c.4401855.4620361.814209.8581543,1.1003418,1.2542725l-.2199707.3520508h-3.71875v.7919922c2.2224121.814209,3.3225098,1.6502686,3.3225098,2.5964355,0,.4400635-.197998.6601562-.5939941.6601562-.197998,0-.3959961-.1540527-.5942383-.4841309-.5058594-.8140869-1.1879883-1.5622559-2.1342773-2.1783447v5.7208252h-1.1000977v-5.3027344Zm1.078125-5.5007324c.5061035-1.1662598.880127-2.3543701,1.1662598-3.5645752,1.1000977.3961182,1.6501465.7260742,1.6501465.9681396,0,.1540527-.2419434.2420654-.7919922.2640381-.2861328.6160889-.7922363,1.3862305-1.4301758,2.3323975h1.8920898l.814209-1.1442871c.3959961.4180908.7260742.8361816,1.012207,1.2542725l-.2199707.3959961h-9.109375l-.197998-.5059814h5.2145996Zm-1.078125-4.2467041v-2.7064209c1.2541504.0440674,1.892334.2200928,1.892334.4841309,0,.1540527-.2641602.3300781-.7922363.5061035v1.7161865h2.0024414l.7919922-1.1881104c.3959961.3740234.7260742.7480469.9682617,1.1000977l.1540527.197998-.2421875.3741455h-8.229248l-.2199707-.4841309h3.6745605Zm-2.3762207.7481689c1.3640137.8140869,2.0681152,1.6942139,2.0681152,2.5743408,0,.5061035-.2419434.7260742-.7041016.7260742-.3078613,0-.4838867-.2199707-.5280762-.7041016-.065918-.7260742-.4179688-1.4962158-1.1220703-2.2883301l.2861328-.3079834Zm9.4172363,4.114502v.3300781c0,2.090332-.197998,3.8725586-.5939941,5.3248291-.4841309,1.7381592-1.3422852,3.2124023-2.5744629,4.4666748l-.3959961-.3300781c1.0561523-1.5183105,1.7602539-3.2564697,2.090332-5.192749.2199707-1.3642578.3300781-2.9484863.3300781-4.7747803v-5.6328125c.5280762.1760254.9460449.3741455,1.2980957.5280762,1.5622559-.4840088,2.8603516-1.1220703,3.9606934-1.9802246.8798828.5720215,1.342041.9901123,1.342041,1.2102051,0,.131958-.1101074.197998-.3520508.197998-.1760254,0-.3520508-.0219727-.5720215-.0880127-1.3203125.4840088-2.7944336.9020996-4.5327148,1.2102051v4.246582h4.4887695l.9240723-1.2982178c.5061035.4400635.9240723.9020996,1.2541504,1.3642578l-.197998.4179688h-2.6843262v9.9455566h-1.1442871v-9.9455566h-2.6403809Z"/>
      <path class="cls-1" d="m70.800293,122.4061765v.814209c0,1.5842285-.550293,2.8164062-1.628418,3.6965332,1.012207.1099854,1.5183105.2860107,1.5183105.5280762,0,.131958-.2419434.2860107-.7260742.4399414v.7922363h5.9848633l1.012207-1.0561523c.4179688.2860107.880127.6820068,1.3640137,1.1881104l-.2199707.3520508h-7.7011719c.0441895.0440674.0661621.06604.1101074.0880127,2.0021973,1.5842285,4.7526855,2.5964355,7.9870605,3.2784424-.4179688.3520508-.7480469.7481689-.9020996,1.2102051-3.234375-1.0341797-5.7868652-2.4863281-7.6350098-4.2906494v5.1047363h-1.1442871v-4.4226074c-2.1123047,1.8262939-4.8186035,3.1464844-8.1411133,3.9825439l-.2199707-.4840088c3.2785645-1.0341797,5.8967285-2.5523682,7.7890625-4.4666748h-7.3930664l-.2199707-.4840088h8.1850586v-1.4963379c-.5280762.3520508-1.2099609.6601562-2.0021973.9241943l-.2199707-.4180908c2.0683594-.9460449,3.1022949-2.4202881,3.1022949-4.4445801v-1.8262939c.2421875.1099854.6162109.2640381,1.1223145.5061035h3.2563477l.5500488-.5941162c.7041016.4841309,1.0561523.8140869,1.0561523.9681396,0,.06604-.0439453.1099854-.1540527.1760254l-.3959961.2640381v3.102417c0,.3300781.2421875.4841309.7041016.4841309.4182129,0,.6821289-.1320801.7702637-.4180908.1540527-.4180908.263916-1.1000977.3078613-2.024292l.5061035.1760254c-.0219727.1760254-.0219727.3520508-.0219727.5280762,0,1.1221924.2419434,1.6502686.7041016,1.6282959,0,.4840088-.1760254.7700195-.5061035.9020996-.263916.131958-.7480469.1760254-1.4741211.1760254-.7700195,0-1.276123-.06604-1.5622559-.1760254-.3300781-.1320801-.4841309-.4180908-.4841309-.9020996v-3.8066406h-3.2783203Zm-3.2785645-3.6965332l.8581543-1.144165c.4179688.3520508.7919922.7921143,1.1220703,1.2542725l-.2419434.3740234h-4.114502c1.0119629.5939941,1.4960938,1.1881104,1.4960938,1.8041992,0,.4841309-.2199707.7260742-.6601562.7260742-.3520508,0-.5280762-.2199707-.5939941-.6380615-.1101074-.7480469-.4621582-1.3421631-1.012207-1.8922119h-.4621582c-.7700195,1.3421631-1.8041992,2.4863281-3.0803223,3.4544678l-.3520508-.3520508c1.4741211-1.4962158,2.5744629-3.3885498,3.2785645-5.7208252,1.1660156.2199707,1.7382812.4400635,1.7382812.6821289,0,.1760254-.2641602.3079834-.8581543.3959961-.1540527.4180908-.3081055.7701416-.4401855,1.0561523h3.3225098Zm-2.090332,4.2246094v2.8164062c1.078125-.1760254,2.1784668-.3959961,3.2785645-.6380615l.065918.4840088c-2.222168.7481689-4.3786621,1.3203125-6.4909668,1.7382812-.1098633.4621582-.2199707.7041016-.3520508.7041016-.263916,0-.5280762-.5939941-.8139648-1.7382812.7700195-.0878906,1.8481445-.197998,3.234375-.3959961v-2.970459h-2.5964355l-.1760254-.4840088h5.126709l.8361816-.9901123c.4621582.4179688.8361816.7919922,1.1000977,1.144043l-.2199707.3300781h-2.9924316Zm10.5615234-4.2246094l.9240723-1.2102051c.4401855.3961182.8581543.8361816,1.2543945,1.3203125l-.2202148.3740234h-5.5888672c1.1442871.5500488,1.6943359,1.1220703,1.6943359,1.7161865,0,.4400635-.2199707.6601562-.6381836.6601562-.329834,0-.527832-.1540527-.5939941-.4620361-.1320801-.7481689-.5280762-1.3642578-1.2321777-1.9143066h-.3300781c-.6821289.9460449-1.4741211,1.7602539-2.4643555,2.4202881l-.3300781-.2860107c1.3203125-1.3862305,2.2443848-2.9484863,2.7285156-4.7087402,1.1000977.1760254,1.6501465.3961182,1.6501465.6601562,0,.1540527-.263916.2860107-.7700195.3959961-.1540527.4180908-.3300781.7481689-.5061035,1.0341797h4.4226074Zm-4.4885254,4.2906494c1.078125.8140869,1.6281738,1.6062012,1.6281738,2.4202881,0,.4841309-.2199707.7261963-.6821289.7261963-.3081055,0-.5061035-.2420654-.5061035-.7921143-.0219727-.7701416-.2861328-1.4522705-.7700195-2.090332l.3300781-.2640381Z"/>
      <path class="cls-1" d="m85.1206055,126.1246823c2.7285156-2.2662354,4.7087402-5.2147217,5.9628906-8.8452148,1.1882324.4180908,1.7822266.7480469,1.7822266,1.012207,0,.1760254-.263916.3079834-.8359375.4399414-.9902344,2.0683594-2.0463867,3.7406006-3.1904297,4.994751-.9023438.9681396-2.0024414,1.9143066-3.3886719,2.7944336l-.3300781-.3961182Zm3.2126465-1.012085l-.1540527-.5061035h9.109375l.7480469-.880127c.7700195.5941162,1.1660156.9901123,1.1660156,1.1882324,0,.0880127-.065918.197998-.197998.2860107l-.4179688.3081055c-.0219727,3.8945312-.3300781,6.4248047-.9680176,7.5910645-.4182129.7921143-1.2102051,1.1881104-2.3105469,1.1881104,0-.3959961-.263916-.6820068-.7480469-.880127-.3740234-.1539307-1.078125-.3299561-2.090332-.4840088v-.5280762c1.3203125.1760254,2.3764648.2640381,3.1025391.2640381.6821289,0,1.144043-.4180908,1.3422852-1.2321777.329834-1.3862305.5058594-3.4985352.527832-6.3149414h-4.7084961c-.197998,2.3763428-.7480469,4.2906494-1.6943359,5.7208252-1.012207,1.5622559-2.5964355,2.7724609-4.7746582,3.6745605l-.2861328-.4400635c2.3103027-1.2321777,3.8947754-2.9484863,4.6867676-5.060791.4399414-1.1661377.7041016-2.4863281.814209-3.8945312h-3.1464844Zm7.3710938-7.8331299c1.8261719,3.1904297,4.048584,5.5667725,6.666748,7.1290283-.3959961.2860107-.7260742.6821289-1.0339355,1.2102051-1.9362793-1.5181885-3.5205078-3.3005371-4.7087402-5.3248291-.4401855-.7700195-.9240723-1.6942139-1.4301758-2.7283936l.5061035-.2860107Z"/>
      <path class="cls-1" d="m113.4355469,120.7999753l.9020996-1.0341797c.4401855.3520508.8581543.7481689,1.2321777,1.1882324l-.197998.3520508h-6.2929688l-.197998-.5061035h4.5546875Zm-.5942383,2.4863281l.7922363-1.012085c.3959961.2860107.7922363.6820068,1.1882324,1.1661377l-.2202148.3300781h-4.7966309l-.197998-.4841309h3.234375Zm.0222168,2.4643555l.7700195-.9901123c.3959961.3079834.7922363.6821289,1.1882324,1.1221924l-.2641602.3740234h-4.7307129l-.2199707-.5061035h3.2565918Zm.329834,2.5303955l.6381836-.7921143c.7700195.5941162,1.1662598.9901123,1.1662598,1.1882324,0,.065918-.0441895.131958-.1540527.197998l-.4179688.2419434v5.4348145h-1.0783691v-1.276123h-2.6184082v1.276123h-1.1000977v-6.8649902c.1320801.0440674.5500488.2420654,1.2321777.5941162h2.3322754Zm-.263916-9.9674072l.7922363-1.0561523c.3959961.3300781.7919922.7260742,1.2099609,1.1881104l-.197998.3520508h-4.8186035l-.197998-.4840088h3.2124023Zm-2.2004395,10.4735107v4.0045166h2.6184082v-4.0045166h-2.6184082Zm10.4956055-.7041016c-.4619141.4620361-1.0341797.946167-1.6501465,1.4521484v3.102417c.880127-.1539307,1.892334-.3959961,3.0144043-.6820068l.1320801.4840088c-1.9362793.7481689-3.6745605,1.2762451-5.2807617,1.6062012-.0661621.4401855-.197998.6601562-.3300781.6601562-.2421875,0-.5061035-.5280762-.748291-1.6062012.748291-.0880127,1.4523926-.1540527,2.1123047-.2640381v-2.5743408c-1.0119629.5500488-2.222168.9901123-3.6083984,1.3861084l-.2419434-.4620361c2.1342773-.7260742,3.8503418-1.7602539,5.1486816-3.102417h-4.5546875l-.197998-.5061035h3.1904297v-1.6062012h-2.0683594l-.197998-.4841309h2.2663574v-1.4521484h-2.5083008l-.1760254-.5061035h2.6843262v-1.8482666c1.2102051.0880127,1.8261719.2640381,1.8261719.5280762,0,.1540527-.263916.3300781-.7480469.4841309v.8360596h2.9265137v-1.8922119c1.1879883.0878906,1.7822266.263916,1.7822266.5059814,0,.1540527-.2421875.2860107-.7041016.4400635v.946167h1.2980957l.748291-.9020996c.3520508.3079834.6599121.6600342.9680176,1.0340576l-.2199707.3741455h-2.7944336v1.4521484h1.0341797l.7700195-.9240723c.2199707.197998.5500488.5500488.9682617,1.012085l-.2202148.3961182h-2.5522461v1.6062012h1.7382812l.7260742-.9241943c.4179688.3741455.7480469.7041016.9902344,1.0341797l-.2202148.3961182h-4.6645508c.3300781.9020996.8139648,1.7161865,1.4082031,2.4643555.7041016-.6380615,1.3642578-1.3642578,1.9362793-2.1783447.8581543.5500488,1.276123.9240723,1.276123,1.144165,0,.1540527-.1540527.197998-.4399414.197998l-.4401855-.0439453c-.4841309.3959961-1.1220703.8140869-2.0021973,1.2541504.8139648.880127,2.0021973,1.6722412,3.5644531,2.3543701-.3959961.3520508-.7041016.7260742-.9240723,1.0561523-2.5524902-1.4301758-4.2246094-3.4985352-4.9509277-6.2489014h-.065918Zm-5.9189453-6.0509033c1.4743652-.6601562,2.640625-1.4742432,3.4985352-2.4423828.9682617.3740234,1.4301758.6821289,1.4301758.880127,0,.1760254-.263916.2640381-.8139648.2640381h-.0219727c-1.1000977.7261963-2.3984375,1.2762451-3.8066406,1.6722412l-.2861328-.3740234Zm4.9287109-3.1904297v-2.090332c1.2324219.0219727,1.8483887.1540527,1.8483887.4180908,0,.131958-.2419434.2860107-.7260742.4620361v1.2102051h3.2124023l.9240723-1.1002197c.4182129.3741455.814209.7921143,1.1662598,1.2321777l-.197998.3741455h-10.6936035l-.2419434-.5061035h4.7084961Zm-.9460449,5.192749v1.4521484h2.9265137v-1.4521484h-2.9265137Zm0,1.9362793v1.6062012h2.9265137v-1.6062012h-2.9265137Zm2.904541-6.2929688c1.4741211.2640381,2.5742188.6160889,3.3222656,1.0561523.550293.3300781.814209.6380615.814209.9681396,0,.3740234-.197998.5721436-.5720215.5721436-.1540527,0-.3300781-.0880127-.4841309-.2640381-.814209-.814209-1.9143066-1.4522705-3.3005371-1.9143066l.2202148-.4180908Z"/>
      <path class="cls-1" d="m137.6794434,123.0663327c0,.1540527-.2419434.3300781-.7700195.5280762v10.9575195h-1.1662598v-10.1875c-.8139648,1.3642578-1.6721191,2.6184082-2.5964355,3.7406006l-.3959961-.3079834c2.0683594-3.036499,3.6306152-6.6889648,4.7087402-11.001709,1.276123.3300781,1.9143066.6381836,1.9143066.9241943,0,.1760254-.3081055.3079834-.9240723.4180908-.4621582,1.5401611-1.0561523,3.0144043-1.7602539,4.4445801.6599121.1101074.9899902.2640381.9899902.4841309Zm7.0410156,4.3126221v5.6328125h3.8945312l1.012207-1.4522705c.4621582.4180908.9020996.9241943,1.3642578,1.5402832l-.2421875.3959961h-12.5637207l-.2419434-.4840088h5.5666504v-5.6328125h-4.3125l-.2202148-.4841309h4.5327148v-4.7526855h-4.8625488l-.2202148-.5059814h9.6813965l.9462891-1.3422852c.5500488.5061035.9899902.9902344,1.2980957,1.4522705l-.2199707.3959961h-5.4128418v4.7526855h2.7724609l.9240723-1.3201904c.4621582.4400635.880127.9241943,1.276123,1.4301758l-.2199707.3741455h-4.7526855Zm-2.9265137-10.5615234c2.2004395,1.1000977,3.3225098,2.15625,3.3225098,3.2124023,0,.5280762-.2419434.7701416-.7260742.7701416-.3300781,0-.5500488-.2640381-.7260742-.7701416-.3081055-.9681396-1.0561523-1.8922119-2.15625-2.7943115l.2858887-.4180908Z"/>
      <path class="cls-1" d="m165.6420898,119.9858884v-3.168457c1.3640137.0219727,2.0461426.1760254,2.0461426.4840088,0,.1540527-.3081055.3520508-.880127.5500488v2.1343994h6.0507812l.8361816-1.012207c.9902344.9241943,1.4963379,1.5181885,1.4963379,1.8043213,0,.1540527-.0881348.2199707-.2861328.2419434l-.6601562.1101074c-.5280762.6600342-1.1220703,1.3421631-1.8701172,2.0021973l-.3740234-.2860107c.3959961-.7480469.7260742-1.5181885.9240723-2.3543701h-13.0039062v.3741455c0,.946167-.1760254,1.7161865-.4841309,2.3322754-.2858887.5280762-.5939941.7921143-.9899902.7921143-.1760254,0-.3742676-.0880127-.5500488-.2640381-.1540527-.131958-.2202148-.2860107-.2202148-.4620361,0-.2199707.1320801-.4400635.3740234-.7041016.7260742-.7260742,1.1003418-1.8702393,1.2102051-3.3884277l.5061035.0439453c.065918.3300781.0881348.5720215.1101074.7701416h5.7648926Zm-.9462891,4.3565674c-1.9802246.4841309-3.8945312.880127-5.7648926,1.1662598l-.263916-.4841309c4.4445801-.8581543,8.0532227-2.024292,10.7814941-3.5205078.9902344.5720215,1.4963379.9901123,1.4963379,1.2321777,0,.1099854-.1540527.1760254-.4182129.1760254-.197998,0-.4399414-.0439453-.7041016-.0880127-1.3200684.4840088-2.6403809.9020996-3.9384766,1.2321777v3.6965332l6.2487793-.8581543.9682617-1.5181885c.5500488.3520508,1.1220703.7921143,1.7382812,1.3201904l-.2202148.4180908-8.7351074,1.1881104v3.8725586c0,.3520508.1101074.5501709.3300781.6601562.263916.06604,1.276123.131958,3.0144043.131958,1.7163086,0,2.7282715-.065918,3.0583496-.1760254.4621582-.1760254.8361816-1.2321777,1.0341797-3.168457l.5280762.2420654c-.0219727.2640381-.0219727.5721436-.0219727.880127,0,.9020996.0878906,1.4742432.2199707,1.6942139.0881348.1760254.2861328.2420654.6162109.2420654-.0661621.7041016-.4182129,1.078125-1.0561523,1.1661377-.6821289.1101074-2.0463867.1760254-4.048584.1760254-2.5305176,0-3.982666-.0880127-4.3566895-.3079834-.3520508-.1981201-.5061035-.6160889-.5061035-1.2762451v-3.9605713l-6.7329102.9241943-.2641602-.5280762,6.9970703-.946167v-3.5865479Z"/>
      <path class="cls-1" d="m187.751709,132.0436277v-.4400635c.8581543-.0220947,1.4521484-.1540527,1.6940918-.4180908.2202148-.2199707.3520508-.6601562.3520508-1.3201904v-9.6813965c0-.4840088-.1760254-.7701416-.4838867-.8581543-.2421875-.0880127-.7702637-.131958-1.5622559-.1539307v-.4621582c1.3640137-.1099854,2.5083008-.4179688,3.432373-.9020996v12.0577393c0,.7041016.1540527,1.1661377.4179688,1.3862305.2641602.197998.7922363.3079834,1.628418.3520508v.4400635h-5.4787598Z"/>
      <path class="cls-1" d="m208.4091797,125.1125974c-.5942383,1.8922119-1.4304199,3.7185059-2.4643555,5.4567871l-.4621582-.3300781c1.3642578-2.5303955,2.3103027-5.3687744,2.8823242-8.5811768h-2.5302734l-.1760254-.5061035h2.7504883v-4.3566895c1.342041.0440674,2.0021973.2200928,2.0021973.5501709,0,.1760254-.3081055.3520508-.9020996.5280762v3.2784424h1.1879883l.814209-1.1221924c.4182129.3961182.7702637.8361816,1.1000977,1.2982178l-.197998.3300781h-2.9042969v2.2003174c.7919922.5059814,1.3862305,1.1221924,1.8481445,1.8041992.3740234.5721436.5942383,1.0561523.5942383,1.4522705,0,.4620361-.2202148.7041016-.6821289.7041016-.2421875,0-.3959961-.1540527-.4621582-.4621582-.197998-.9020996-.5939941-1.8702393-1.2980957-2.8383789v10.0334473h-1.1000977v-9.4393311Zm9.637207-2.970459h2.7285156l.7480469-.880127c.7919922.6160889,1.1882324,1.012207,1.1882324,1.1882324,0,.0880127-.0661621.131958-.1760254.2199707l-.4621582.2860107v5.5228271h-1.1220703v-.8140869h-2.7944336c.0219727.0439453.065918.0880127.1320801.1540527,1.4301758,1.8041992,3.300293,3.234375,5.6108398,4.3126221-.3742676.3079834-.6601562.7041016-.8803711,1.1881104-2.0900879-1.276123-3.7404785-2.9044189-4.9726562-4.9287109v6.1608887h-1.1000977v-5.3907471c-1.5183105,1.8482666-3.4326172,3.4324951-5.7648926,4.7307129l-.3300781-.4180908c2.4423828-1.6062012,4.3786621-3.5424805,5.8308105-5.8088379h-2.5083008v.9901123h-1.1220703v-7.2390137c.4841309.2420654.9020996.4840088,1.2980957.7260742h2.5964355v-2.15625h-4.7966309l-.197998-.4841309h4.9946289v-2.7064209c1.2541504.0220947,1.892334.1981201,1.892334.4401855,0,.1539307-.2641602.3520508-.7922363.5500488v1.7161865h3.3664551l.9902344-1.2321777c.5720215.5280762,1.012207.9681396,1.276123,1.2982178l-.197998.4180908h-5.4348145v2.15625Zm-1.1000977.4841309h-2.7724609v1.9362793h2.7724609v-1.9362793Zm0,2.4422607h-2.7724609v2.090332h2.7724609v-2.090332Zm1.1000977-2.4422607v1.9362793h2.904541v-1.9362793h-2.904541Zm0,2.4422607v2.090332h2.904541v-2.090332h-2.904541Z"/>
    </g>
  </g>
</svg>