<?xml version="1.0" encoding="UTF-8"?>
<svg id="_レイヤー_2" data-name="レイヤー 2" xmlns="http://www.w3.org/2000/svg" viewBox="0 0 243.7725257 94.0231553">
  <defs>
    <style>
      .cls-1 {
        fill: #231815;
        stroke-width: 0px;
      }

      .cls-2 {
        fill: none;
        stroke: #f1f1f1;
        stroke-miterlimit: 10;
      }
    </style>
  </defs>
  <g id="_レイヤー_1-2" data-name="レイヤー 1">
    <rect class="cls-2" x=".5" y=".5" width="242.7725257" height="93.0231553"/>
    <g>
      <path class="cls-1" d="m48.6667771,59.9858996c3.5703125-.9100952,6.7556152-2.3452148,9.5209961-4.3054199,1.5751953.7700195,2.380127,1.295105,2.380127,1.6451416,0,.2449951-.3149414.3500366-.9099121.3500366-.2802734,0-.5600586-.0349731-.7351074-.0349731-3.1154785,1.4351196-6.4057617,2.4501953-9.8361816,3.0452881l-.4199219-.7000732Zm3.1853027-23.8724976c-.3850098-.9801025-1.1901855-1.7852173-2.3803711-2.5202637l.3500977-.5600586c2.6252441.8051147,3.9204102,1.6801758,3.9204102,2.6952515,0,.7000732-.3149414,1.0501709-.9799805,1.0501709-.3850098,0-.7001953-.210083-.9101562-.6651001Zm6.0556641-1.4351196l-4.5854492,5.4955444c-.2800293.2800293-.3850098.6651001-.3850098,1.0150757,0,.210083.0349121.4901123.1398926.8400879.0700684.3500977.1049805.7000732.1049805,1.0501709,0,.3850098-.1049805.7000732-.4199219.9100342-.2451172.1750488-.5251465.2800293-.8051758.2800293-.5949707,0-.875-.2449951-.875-.6650391,0-.3500366.0698242-.7000732.1049805-.9801025.1049805-.2800293.1750488-.6650391.1750488-1.1201172,0-.2800293-.1049805-.5250244-.3151855-.7000732-.2800293-.2449951-.8049316-.4200439-1.5751953-.6300659l.2102051-.5950317c.7348633.1749878,1.1899414.2449951,1.3649902.2449951.420166,0,.8051758-.1400146,1.0852051-.3850098.6650391-.5250854,1.6101074-1.4001465,2.800293-2.5202637,1.0500488-1.0501709,1.925293-1.8902588,2.5202637-2.590332l.4550781.3500977Zm-2.4504395,20.1970825v.9100952h-1.75v-12.0062256c.6298828.2099609,1.295166.4550171,1.9602051.7350464h14.036377l1.1552734-1.1201172c1.1550293.8051147,1.75,1.295105,1.75,1.5401611,0,.1050415-.0698242.2450562-.244873.3500366l-.6652832.4900513v9.6610107h-1.75v-.5600586h-14.4916992Zm0-7.2107544h14.4916992v-2.380249h-14.4916992v2.380249Zm0,.7700806v2.2752075h14.4916992v-2.2752075h-14.4916992Zm0,3.0803223v2.5552368h14.4916992v-2.5552368h-14.4916992Zm10.9562988-15.6466675v.630127c.3500977,1.2250977,1.1901855,2.2752075,2.4152832,3.1502686,1.8552246,1.295166,4.3054199,2.1702881,7.4558105,2.7303467-.630127.6650391-1.0852051,1.2601318-1.295166,1.7851562-4.9355469-1.4351807-7.8759766-3.5703735-8.7858887-6.3006592-.8752441,3.0803223-4.095459,5.180542-9.6960449,6.2306519l-.4550781-.7350464c3.1503906-.7701416,5.5305176-2.0302734,7.140625-3.7803955.9802246-1.0501709,1.4702148-2.2052612,1.4702148-3.3253784v-.3850708h-3.675293c-.9450684,1.1201172-1.9953613,2.1002197-3.220459,2.9753418l-.4550781-.4900513c1.7502441-1.7501831,3.010498-3.8153687,3.8154297-6.2306519,1.715332.2800293,2.590332.6300659,2.590332,1.0151367,0,.2099609-.4550781.4550171-1.295166.6300049-.2099609.3850708-.4899902.8400879-.8400879,1.3302002h10.7460938l1.2250977-1.4351807c1.295166,1.1901245,1.925293,1.9952393,1.925293,2.3102417,0,.1400146-.1049805.2800293-.3850098.3500366l-.9101562.210022c-.7700195.8051147-1.8552246,1.5751343-3.1152344,2.3452759l-.5251465-.4901123c.8051758-.9100342,1.4353027-1.7151489,1.7851562-2.5202637h-5.9155273Zm7.3857422,24.1175537c-1.8552246-1.2250977-4.8654785-2.4502563-9.1359863-3.6053467l.3850098-.6651001c7.2458496,1.1201172,10.8862305,2.4152222,10.8862305,3.885437,0,.6650391-.2800293.9801025-.8752441.9801025-.244873,0-.6650391-.210083-1.2600098-.5950928Z"/>
      <path class="cls-1" d="m92.2073045,49.4497668c-1.295166,2.7303467-3.1503906,5.3205566-5.390625,7.770874l-.630127-.5950928c2.7653809-3.5354004,4.760498-7.2807617,5.9506836-11.1661377h-5.2155762l-.3149414-.8051147h5.6005859v-12.2863159c2.0302734,0,3.045166.2450562,3.045166.6651001,0,.2800293-.4199219.5600586-1.2600098.875061v10.7461548h2.590332l1.3649902-2.1002197c.5952148.6300659,1.2250977,1.4001465,1.8552246,2.3102417l-.3500977.5950928h-5.4604492v2.5202637c3.5703125,1.295105,5.3554688,2.6952515,5.3554688,4.3054199,0,.7351074-.3149414,1.1201172-.9799805,1.1201172-.3850098,0-.7351074-.3150635-1.0151367-.9100952-.6650391-1.3301392-1.7851562-2.5552368-3.3603516-3.675354v11.7612305h-1.7851562v-11.1312256Zm-4.760498-14.4564819c2.2402344,2.2402344,3.3603516,4.4104614,3.3603516,6.5457153,0,1.0150757-.3500977,1.505127-1.0852051,1.505127-.4899902,0-.7700195-.3500366-.8051758-1.0151367-.1398926-2.4501953-.8049316-4.6204834-2.0651855-6.5456543l.5952148-.4900513Zm7.5256348,7.8408203c1.1201172-2.6602783,1.9602051-5.3555298,2.5202637-8.0158081,1.715332.5250244,2.590332.9801025,2.590332,1.3651123,0,.2449951-.3500977.4200439-1.0852051.5250244-.9099121,2.1352539-2.0651855,4.305481-3.3952637,6.475708l-.630127-.3500366Zm13.9665527,8.5408936v-18.6569214c2.0651855.1049805,3.1152344.3499756,3.1152344.8050537,0,.210022-.4199219.4900513-1.1899414.7700806v16.62677l1.295166-.3500977.9450684-2.5202637.3498535.3500977c.5952148.5600586,1.1201172,1.1201172,1.6103516,1.6801758l-.1750488.7000732-3.9204102.9801025v8.8209229h-1.925293v-8.3659058l-9.3459473,2.380249-.5251465-.7000732,9.7661133-2.5202637Zm-8.6809082-8.9259644c1.9602051.8751221,3.3603516,1.8201904,4.340332,2.8703613.7351074.8050537,1.0852051,1.505127,1.0852051,2.1351929,0,.7350464-.3500977,1.1201172-1.0500488,1.1201172-.4550781,0-.7700195-.2800293-.9802246-.8051147-.5600586-1.6451416-1.7851562-3.2203369-3.7453613-4.7254639l.3500977-.5950928Zm1.4350586-6.8956909c1.8552246.7000732,3.1503906,1.4701538,4.0605469,2.3452759.8051758.8050537,1.2250977,1.505127,1.2250977,2.2052002,0,.7351074-.2800293,1.1201172-.9101562,1.1201172-.5600586,0-.9450684-.3850098-1.2600098-1.1201172-.5251465-1.4001465-1.6801758-2.7302856-3.465332-3.9904175l.3498535-.5600586Z"/>
      <path class="cls-1" d="m134.2075486,38.703673l1.505127-1.8901978c.7702637.7350464,1.4353027,1.4351196,1.9602051,2.1002197l-.3149414.5950317h-11.9711914l-.2800293-.8050537h9.1008301Zm-1.505127,3.9554443l1.4702148-1.8201904c.6650391.6650391,1.2600098,1.3300781,1.8552246,2.0301514l-.3500977.5600586h-8.7509766l-.3149414-.7700195h6.0905762Zm.0351562,3.9204102l1.4350586-1.7852173c.630127.5600586,1.2600098,1.2251587,1.8552246,1.9951782l-.3850098.5950928h-8.7160645l-.3149414-.8050537h6.1257324Zm.2797852,4.0253906l1.1552734-1.4351807c1.2250977,1.0151367,1.8200684,1.6452026,1.8200684,1.9252319,0,.1400146-.1049805.2800293-.2800293.4200439l-.7700195.4550171v8.1208496h-1.7150879v-1.5401611h-4.6906738v2.0302734h-1.75v-10.9912109c.6999512.2800293,1.3649902.6651001,2.0302734,1.0151367h4.2001953Zm-.454834-15.8566895l1.4001465-1.8201904c.8049316.7351074,1.4350586,1.4001465,1.8549805,2.0302734l-.3498535.5600586h-8.0859375l-.244873-.7701416h5.4255371Zm-4.0256348,16.6617432v6.3707275h4.6906738v-6.3707275h-4.6906738Zm17.2219238-14.4914551v2.4152222h3.220459l1.2949219-1.5401611c.420166.3500366,1.0151367.9100952,1.7851562,1.7852173l-.2797852.5600586h-6.020752v2.7652588h4.6555176l1.4350586-1.71521c.7351074.630127,1.3652344,1.2601318,1.8901367,1.8552246l-.3149414.6300659h-16.1716309l-.3500977-.7700806h7.0708008v-2.7652588h-5.2504883l-.3151855-.8051147h5.5656738v-2.4152222h-6.020752l-.3149414-.8051147h6.3356934v-3.7803955c2.0651855.0349731,3.1152344.3150024,3.1152344.8400879,0,.2800293-.4550781.5600586-1.3300781.8400879v2.1002197h4.1655273l1.4001465-1.6801758.3498535.3150024c.3850098.4200439.8752441.9101562,1.4702148,1.5401611l-.2800293.630127h-7.1057129Zm3.2553711,9.1708984l1.1201172-1.3300781c1.295166.9100342,1.9602051,1.5401611,1.9602051,1.8201904,0,.1400146-.1049805.2800293-.2800293.3850098l-.7351074.4900513v10.361084c0,1.6801758-1.0151367,2.5202637-3.0102539,2.5202637,0-.6300659-.3151855-1.0150757-.9802246-1.2601318-.5249023-.210022-1.4350586-.4200439-2.6601562-.5950317v-.8751221c1.4350586.1750488,2.6953125.2449951,3.7102051.2449951.8051758,0,1.1552734-.3150024,1.1552734-.9801025v-2.9052734h-8.7158203v6.6157227h-1.7502441v-15.5066528c.6999512.2450562,1.4001465.5950317,2.1352539,1.0150757h8.0507812Zm.2800293,3.3953857v-2.6252441h-8.7158203v2.6252441h8.7158203Zm0,.8050537h-8.7158203v2.8703613h8.7158203v-2.8703613Z"/>
      <path class="cls-1" d="m178.833281,39.2637316h8.9609375l1.6101074-2.1352539c.9101562.8400879,1.6101074,1.5751953,2.170166,2.3103027l-.3149414.6300049h-12.3913574c.8051758,3.2904053,1.9953613,6.0556641,3.6054688,8.2608643,1.8901367-2.0301514,3.5002441-4.0953979,4.9355469-6.265625,1.5400391,1.0151367,2.3103027,1.7851562,2.3103027,2.2052002,0,.2450562-.2451172.3500977-.7001953.3500977-.2099609,0-.4550781,0-.8051758-.0700684-1.505127,1.5751953-3.2553711,3.0453491-5.1804199,4.4804688,2.0651855,2.4503174,5.0754395,4.4454956,8.9958496,6.0906982-.6298828.5250244-1.1550293,1.1550903-1.6101074,1.8901367-3.7453613-1.9251709-6.5456543-4.2004395-8.4008789-6.8607178-1.4702148-2.0651855-2.4853516-4.4804688-3.1853027-7.2457275v14.7365723c0,1.8901367-1.1552734,2.8352661-3.465332,2.8352661-.0700684-.7350464-.4550781-1.2251587-1.1901855-1.505188-.5251465-.2099609-1.6101074-.4200439-3.1503906-.6650391v-.8400879c1.8552246.1750488,3.465332.3150635,4.7956543.3150635.6999512,0,1.0849609-.3500977,1.0849609-1.085144v-16.62677h-12.3562012l-.2451172-.8050537h12.6013184v-6.9656982c2.1704102.0349731,3.2553711.3150024,3.2553711.8050537,0,.2449951-.4550781.5600586-1.3300781.8751221v5.2855225Zm-2.8354492,10.0810547c-3.1501465,2.5202637-6.1606445,4.6204834-8.9958496,6.265625,0,.9451294-.1398926,1.4001465-.4199219,1.4001465-.4902344,0-1.0852051-.875061-1.8552246-2.6602783,3.675293-1.505127,7.3156738-3.4302979,10.9912109-5.8105469l.2797852.8050537Zm-8.3308105-7.350769c1.8903809.8400879,3.3603516,1.8551636,4.3405762,2.9403076.6999512.8400879,1.0849609,1.5751343,1.0849609,2.2402344,0,.8400879-.4199219,1.2251587-1.1550293,1.2251587-.5600586,0-.875-.2800293-1.0500488-.8400879-.5600586-1.9252319-1.7851562-3.6054077-3.6054688-5.0055542l.3850098-.5600586Zm14.3166504-8.855896c1.4699707.5250244,2.6601562,1.1900635,3.4301758,1.9602051.8051758.7350464,1.1901855,1.4700928,1.1901855,2.1351929,0,.7700806-.3850098,1.1550903-1.1201172,1.1550903-.5600586,0-.9450684-.3850098-1.1550293-1.1201172-.2800293-1.1900635-1.1901855-2.380249-2.6953125-3.5703125l.3500977-.5600586Z"/>
    </g>
  </g>
</svg>