<?xml version="1.0" encoding="UTF-8"?>
<svg id="_レイヤー_2" data-name="レイヤー 2" xmlns="http://www.w3.org/2000/svg" viewBox="0 0 243.7725257 94.0231553">
  <defs>
    <style>
      .cls-1 {
        fill: #231815;
        stroke-width: 0px;
      }

      .cls-2 {
        fill: none;
        stroke: #f1f1f1;
        stroke-miterlimit: 10;
      }
    </style>
  </defs>
  <g id="_レイヤー_1-2" data-name="レイヤー 1">
    <rect class="cls-2" x=".5" y=".5" width="242.7725257" height="93.0231553"/>
    <g>
      <path class="cls-1" d="m68.8289154,34.5732409l1.2600098-1.505188c1.3303223,1.0501709,2.0302734,1.7502441,2.0302734,2.0652466,0,.1400146-.1049805.2450562-.2800293.3500366l-.875.5250244v15.4016113h-1.8203125v-1.8551636h-3.5002441v7.350769c0,.5250244.1750488.8400879.6298828.9801025.4550781.1400146,1.6103516.2449951,3.4304199.2449951,1.8901367,0,3.0102539-.3150024,3.3603516-.9100342.3500977-.5600586.630127-2.0652466.8051758-4.5155029l.875.3500366c0,2.1002197.0700684,3.4303589.2099609,3.9204102.1750488.5600586.5600586.8400879,1.1901855.8051147-.0349121.9450684-.4550781,1.505127-1.3300781,1.7151489-.8051758.210022-2.4853516.3150024-4.970459.3150024-2.9052734,0-4.6906738-.1749878-5.2856445-.5600586-.4899902-.3150024-.7700195-1.0150757-.7700195-2.0651855v-7.6307983h-3.2553711c-.2800293,3.5353394-1.505127,6.1256714-3.5703125,7.8757935-1.7851562,1.505188-4.4455566,2.5552979-8.0158691,3.0803223l-.420166-.8050537c6.265625-1.2601318,9.6259766-4.6904907,10.1162109-10.151062h-3.3254395v2.0302124h-1.8200684v-18.0268555c.5600586.2099609,1.2949219.5600586,2.2050781,1.0150757h13.1264648Zm-13.5114746.8051147v3.7453613h13.826416v-3.7453613h-13.826416Zm13.826416,4.5154419h-13.826416v3.9204102h13.826416v-3.9204102Zm0,4.7255249h-13.826416v4.1303711h13.826416v-4.1303711Z"/>
      <path class="cls-1" d="m104.4934662,38.7387072c1.1552734-1.8902588,2.2053223-4.095459,3.1503906-6.68573,2.0302734.6651001,3.0454102,1.2251587,3.0454102,1.7151489,0,.2800293-.5251465.4550781-1.505127.5250854-1.1201172,1.6452026-2.3103027,3.0803223-3.5705566,4.4454956h5.7756348l1.1901855-1.4702148c1.4702148,1.3651733,2.2402344,2.2402344,2.2402344,2.590332,0,.1049805-.1401367.2449951-.4550781.3499756l-.9799805.3150635c-.8752441,1.0501099-1.8552246,2.0302124-2.9404297,2.9052734l-.5949707-.4550171c.8400879-1.505188,1.3649902-2.6253052,1.6101074-3.4303589h-20.7922363v.4550781c0,1.6101074-.244873,2.9052734-.875,3.885376-.4550781.7351074-.9802246,1.085083-1.505127,1.085083-.8051758,0-1.1552734-.3850098-1.1552734-1.1201172,0-.3850098.1401367-.6650391.4550781-.9450684,1.295166-1.1901245,1.9953613-2.9753418,2.1352539-5.2505493l.7351074.0349731c.1049805.6651001.1750488.9801025.1750488,1.0501709h13.8613281Zm-1.3300781,9.065918c0,.2449951-.4550781.4900513-1.3300781.7351074v1.8551636h8.9609375l1.6801758-2.2052612c.7700195.7351074,1.4702148,1.505188,2.1000977,2.4152832l-.3850098.5950928h-12.2512207v6.6506348c0,1.5751953-1.1201172,2.4152832-3.3952637,2.4503174v-.0350342c0-.5600586-.2451172-.9100952-.7702637-1.1901245-.6298828-.2800293-1.9951172-.5950317-4.0603027-.9100952v-.8400879c2.3452148.2449951,4.1303711.3500366,5.2854004.3500366.7351074,0,1.0852051-.3150024,1.0852051-.9451294v-5.5305176h-12.3913574l-.3850098-.8051147h12.6713867v-3.7103882c.2451172.0350342.7700195.1400146,1.6801758.3150635l.1750488-.1050415c1.4350586-.9100952,2.6953125-1.8551636,3.8154297-2.9053345h-13.1264648l-.3500977-.8050537h13.581543l1.295166-1.295166c1.5400391,1.1901855,2.2751465,1.9602051,2.2751465,2.2402344,0,.1750488-.1398926.2800293-.4899902.3500977l-.8752441.1400146c-1.4350586.9450684-3.1853027,1.8551636-5.3203125,2.7302246.3498535.1400146.5249023.3150635.5249023.4550781Zm-12.0412598-15.2966309c3.220459,1.1201172,4.8305664,2.4503174,4.8305664,3.9204102,0,.8400879-.3850098,1.2251587-1.1201172,1.2251587-.4550781,0-.8051758-.3500366-1.0852051-1.0150757-.5600586-1.295166-1.5400391-2.4503174-3.045166-3.5003662l.4199219-.630127Zm6.7207031-.4899902c2.8703613,1.3300781,4.2705078,2.800293,4.2705078,4.3054199,0,.7700806-.3850098,1.1901245-1.1201172,1.1901245-.5600586,0-.9101562-.3850708-1.0852051-1.1201172-.3149414-1.2601318-1.1550293-2.5202637-2.5551758-3.8153687l.4899902-.5600586Z"/>
      <path class="cls-1" d="m140.4732025,45.7044055v12.1112671c0,1.7501831-1.0148926,2.6253052-3.045166,2.6253052-.1401367,0-.2800293-.0350342-.420166-.0350342,0-.6300659-.4550781-1.0501099-1.295166-1.3301392-.6298828-.2450562-1.9250488-.4900513-3.8154297-.7700806v-.9100952c2.2053223.2450562,3.9904785.3500366,5.4257812.3500366.8049316,0,1.2250977-.3500366,1.2250977-1.0151367v-11.026123h-12.2514648l-.3149414-.7700806h23.1723633l1.4001465-1.6452026c1.5402832,1.3302002,2.2753906,2.1702881,2.2753906,2.5202637,0,.1400146-.1049805.2800293-.3850098.3500977l-1.0852051.2449951c-1.7502441,1.8552246-3.9553223,3.6403809-6.5808105,5.4605713l-.5949707-.6300659c1.9953613-1.7852173,3.6755371-3.6403809,4.970459-5.5305786h-8.6809082Zm-.9450684-5.180542c2.4853516-1.6101685,4.515625-3.0452881,6.020752-4.4104614h-16.1018066l-.4199219-.8051147h16.626709l1.3300781-1.505127c1.6101074,1.3301392,2.3803711,2.1702271,2.3803711,2.590271,0,.1400146-.1052246.2450562-.3850098.3150024l-1.1901855.2450562c-1.8903809,1.3301392-4.4804688,2.800293-7.8408203,4.4104614,1.3300781.8751221,1.9951172,1.6801758,1.9951172,2.380249,0,.7351074-.3149414,1.085083-.9450684,1.085083-.3500977,0-.8400879-.3150024-1.3652344-.9450684-1.3649902-1.6451416-3.5703125-3.1853027-6.7207031-4.6204834l.420166-.7000732c2.590332.7700806,4.5153809,1.5751953,5.7404785,2.2752686l.4550781-.3150635Z"/>
      <path class="cls-1" d="m163.536679,58.0957018c.9101562-2.4502563,1.4702148-5.3555298,1.6801758-8.7509155,1.925293.3850098,2.9052734.8050537,2.9052734,1.2250977,0,.1750488-.3500977.3500977-1.0852051.5250854-.6650391,2.9752808-1.6101074,5.390564-2.8701172,7.3157349l-.630127-.3150024Zm3.6054688-12.6362915l.2099609-.2450562c2.2053223-2.5202637,3.9904785-5.7406006,5.9155273-9.3460083,1.6101074.7351074,2.3803711,1.295166,2.3803711,1.71521,0,.2800293-.4550781.4200439-1.3303223.4200439-2.1000977,2.8703003-4.1652832,5.3555908-6.1254883,7.3857422,1.925293-.1049805,3.8154297-.2449951,5.6005859-.4550171-.3149414-.7700806-.8400879-1.5751343-1.6452637-2.4852905l.4550781-.4550171c2.590332,1.6801758,3.885498,3.3603516,3.885498,5.0755005,0,.8400879-.3500977,1.295166-1.050293,1.295166-.4899902,0-.8049316-.4200439-.9099121-1.2250977-.0351562-.4200439-.1750488-.9101562-.3850098-1.4351807-1.5402832.3150635-2.5554199.5250244-3.0454102.6300659v14.246521h-1.8552246v-13.9315186l-.3500977.0700684c-.8049316.1400146-1.9951172.2800293-3.5354004.4899902-.244873.630127-.454834.9451294-.6298828.9451294-.3500977,0-.7351074-.875061-1.1201172-2.590271,1.3649902,0,2.4501953,0,3.2202148-.0700073l.3151855-.0349731Zm2.4501953-13.4764404c1.7851562.6300659,2.6953125,1.1201172,2.6953125,1.5401611,0,.2800293-.420166.4200439-1.1901855.4900513-1.1550293,1.6801758-2.2751465,3.1152954-3.3603516,4.2704468,1.0852051.8751221,1.6101074,1.71521,1.6101074,2.5552979,0,.7700195-.3498535,1.1900635-1.0849609,1.1900635-.420166,0-.7702637-.3850098-.9802246-1.1201172-.4199219-1.3651123-1.505127-2.6602783-3.2202148-3.9204102l.4199219-.5600586c.9450684.3850708,1.8203125.8751221,2.6252441,1.3651733.9802246-1.7501831,1.7851562-3.7103882,2.4853516-5.8106079Zm3.6052246,16.7317505c2.0302734,1.9951782,3.0805664,3.9553833,3.0805664,5.8106079,0,.9801025-.3500977,1.4351807-1.0852051,1.4351807-.5600586,0-.8400879-.3850708-.8752441-1.2251587-.0349121-1.6452026-.5949707-3.5003662-1.6801758-5.6355591l.5600586-.3850708Zm15.4367676-10.3261108l1.2600098-1.6451416c1.2250977,1.1201172,1.8552246,1.7851562,1.8552246,1.9952393,0,.1400146-.1049805.3150024-.3149414.4899902l-.6650391.5600586c-.0351562,9.3460083-.5251465,15.3666382-1.5402832,17.9919434-.6650391,1.7151489-1.9602051,2.5552368-3.8503418,2.5552368-.0349121-.6651001-.420166-1.1550903-1.1901855-1.4351196-.5600586-.210083-1.7150879-.4901123-3.465332-.8400879v-.8400879c1.8552246.2800293,3.4304199.4200439,4.6904297.4200439,1.1201172,0,1.8552246-.4901123,2.1704102-1.4702148.875-2.59021,1.3300781-8.2608643,1.3649902-16.9767456h-8.7158203c-.8752441,2.1002197-2.1003418,4.0953979-3.6755371,6.0206299l-.6298828-.4900513c2.1352539-3.3253174,3.5354004-7.560791,4.2004395-12.7062988,2.0300293.3150024,3.0803223.7000732,3.0803223,1.1201172,0,.2449951-.420166.4899902-1.2602539.7350464-.5249023,1.9602051-1.0151367,3.4653931-1.4001465,4.5154419h8.0859375Zm-8.8908691,5.2855835c1.6450195.9801025,2.9052734,2.1002197,3.7453613,3.2553101.8400879,1.1551514,1.2600098,2.1002197,1.2600098,3.010376,0,.9100342-.3500977,1.3300781-1.0500488,1.3300781-.5949707,0-.9101562-.3850098-1.0852051-1.2601318-.3850098-1.9602051-1.505127-3.885376-3.3251953-5.7755737l.4550781-.5600586Z"/>
    </g>
  </g>
</svg>