<?xml version="1.0" encoding="UTF-8"?>
<svg id="_レイヤー_2" data-name="レイヤー 2" xmlns="http://www.w3.org/2000/svg" xmlns:xlink="http://www.w3.org/1999/xlink" viewBox="0 0 50 50">
  <defs>
    <style>
      .cls-1 {
        fill: #969797;
      }

      .cls-1, .cls-2 {
        stroke-width: 0px;
      }

      .cls-2 {
        fill: none;
      }

      .cls-3 {
        clip-path: url(#clippath);
      }
    </style>
    <clipPath id="clippath">
      <rect class="cls-2" width="50" height="50"/>
    </clipPath>
  </defs>
  <g id="_レイヤー_1-2" data-name="レイヤー 1">
    <g class="cls-3">
      <path class="cls-1" d="m20.7295103,45.6201093c-8.8256348.9107326-15.3975785-1.8101009-20.1453121-4.2511102,0,0,9.4253601.7735929,15.6015312-2.5010697-9.9044156-1.9661261-10.701286-10.3477317-10.701286-10.3477317,3.073894,1.3304964,7.1112243,1.2365628,7.1112243,1.2365628C2.6421167,27.2288998,3.4352539,18.172521,3.4352539,18.172521c1.7565187,2.79396,6.672026,3.468349,6.672026,3.468349C-1.0172286,15.387839,3.4266347,4.1999759,3.4266347,4.1999759c5.4256361,7.5735356,14.8787755,12.048033,20.3981256,12.352123,0,0-.5304417-8.1203375,6.9066677-9.408012,7.4372741-1.2876196,10.9971959,3.2631336,10.9971959,3.2631336l6.6247024-1.484106-5.3122681,3.862804,6.3747436-.6438098-4.9581095,3.219104s2.1631065,27.5869789-23.728182,30.2588967Z"/>
    </g>
  </g>
</svg>