<?xml version="1.0" encoding="UTF-8"?>
<svg id="_レイヤー_2" data-name="レイヤー 2" xmlns="http://www.w3.org/2000/svg" xmlns:xlink="http://www.w3.org/1999/xlink" viewBox="0 0 50 50">
  <defs>
    <style>
      .cls-1 {
        fill: #969797;
      }

      .cls-1, .cls-2 {
        stroke-width: 0px;
      }

      .cls-2 {
        fill: none;
      }

      .cls-3 {
        clip-path: url(#clippath);
      }
    </style>
    <clipPath id="clippath">
      <rect class="cls-2" width="50" height="50"/>
    </clipPath>
  </defs>
  <g id="_レイヤー_1-2" data-name="レイヤー 1">
    <g class="cls-3">
      <path class="cls-1" d="m45.1428608,11.0807524l.0006465-.0184985s-8.9950263-1.2016044-20.538858-1.2016044c-11.5438898,0-19.7502451,1.1808682-19.7502451,1.1808682l-.0007459.0045749c-2.6694971.3123356-4.8536583,2.8954569-4.8536583,5.7400928v16.4394145c0,2.8446359,2.1845092,5.4244752,4.8544042,5.7329321,0,0,8.2063553,1.1808185,19.7502451,1.1808185,11.5438317,0,20.538858-1.2017039,20.538858-1.2017039,2.6710884-.2970197,4.8564927-2.8674109,4.8564927-5.7120467v-16.4394145c0-2.8446359-2.1857027-5.4120932-4.8571392-5.705433Zm-24.5475585,20.9247446v-14.023923l12.9469343,7.0120112-12.9469343,7.0119118Z"/>
    </g>
  </g>
</svg>