<?xml version="1.0" encoding="UTF-8"?>
<svg id="_レイヤー_2" data-name="レイヤー 2" xmlns="http://www.w3.org/2000/svg" viewBox="0 0 615.6791806 128.3857422">
  <defs>
    <style>
      .cls-1 {
        fill: #231815;
      }

      .cls-1, .cls-2 {
        stroke-width: 0px;
      }

      .cls-2 {
        fill: #040000;
      }
    </style>
  </defs>
  <g id="_レイヤー_1-2" data-name="レイヤー 1">
    <g>
      <path class="cls-1" d="m22.5154613,47.2539062c1.3706055-1.4428711,2.5249023-3.1020508,3.6791992-5.1220703-.4326172-.1445312-.793457-.2885742-1.2263184-.5053711-4.689209-2.3085938-7.6472168-6.2041016-9.3786621-10.027832-1.5871582-3.534668-2.1643066-8.3686523-1.0820312-14.2841797-.505127.5771484-1.0102539,1.2260742-1.4428711,1.8032227-1.8037109,2.453125-3.8959961,5.699707-4.9057617,9.8115234-1.0822754,3.9682617-1.947998,6.4208984-.7937012,10.6054688.7214355,2.8134766.9377441,5.1220703-.2885742,5.5546875-1.298584.4331055-2.597168-.793457-3.895752-3.390625-1.2265625-2.597168-2.0922852-5.84375-2.3808594-9.1621094-.2885742-3.5351562.1445312-7.0703125.9379883-10.1000977.8657227-3.1743164,1.0100098-5.9155273.793457-7.9360352-.2163086-2.0195312-1.0820312-4.2563477-2.0200195-5.6269531-.5771484-.793457-.7211914-1.9477539-.144043-2.3085938.6491699-.5048828,1.6591797.3608398,2.4526367,1.2988281.7216797.9375,2.5251465,3.1020508,3.0302734,5.2661133.7211914,2.8139648.4326172,5.2666016-.2165527,8.440918-.5771484,3.246582-1.0100098,6.8535156-.4328613,10.2441406.0722656-1.3706055.3608398-2.6689453,1.0820312-4.9052734,1.2988281-4.2568359,2.8137207-8.2246094,6.8537598-12.480957,1.0100098-1.0825195,2.0200195-1.9477539,3.0300293-2.8139648,1.3706055-3.0297852,3.6071777-5.6269531,6.8535156-6.2041016,1.947998-.3608398,3.4628906-.1445312,4.6894531.3608398,3.7514648-.793457,8.0078125-.2885742,11.7592773,1.7314453,3.8237305,2.0200195,6.1323242,6.0600586,7.0703125,9.9555664.8657227,3.8959961.793457,8.440918-.2165527,12.1201172-1.1542969,4.0400391-3.1743164,7.7915039-7.142334,10.7495117-3.1020508,2.3085938-6.78125,3.1743164-10.3164062,2.597168-1.2265625,1.8037109-2.3085938,3.1743164-3.7514648,4.7617188-1.7314453,1.8754883-3.6071777,3.6791992-5.9157715,5.1220703-.7937012.4326172-1.6594238.6494141-1.8757324.2885742-.2885742-.2163086-.1442871-.9379883.5048828-1.4428711,1.2988281-.9379883,2.9580078-2.5253906,4.6894531-4.4008789Zm5.1220703-7.7915039c1.1542969-2.3085938,1.947998-4.6894531,2.453125-7.7915039.5771484-3.4628906.5771484-7.3588867.4326172-9.5952148-.2163086-4.184082-.8657227-7.8632812-2.4526367-10.8212891-.4331055-.7939453-1.0102539-1.4428711-1.7314453-1.8037109-1.0822754.3608398-2.0922852.793457-3.246582,1.3706055-1.8037109.9379883-3.4628906,1.9477539-4.9780273,3.1743164-.6491699,1.7314453-1.0097656,3.8237305-1.0820312,5.84375-.1442871,4.4008789.5048828,8.8017578,2.2363281,12.1923828,1.5151367,2.8134766,4.545166,6.2763672,8.3686523,7.4306641Zm3.3188477-31.0214844c.4326172.6489258.8657227,1.2983398,1.2263184,2.0195312,1.7314453,3.3911133,2.3806152,6.3486328,2.6691895,10.1723633.2165527,3.3188477,0,7.7192383-.793457,10.9658203-.9379883,3.5351562-1.7314453,5.5551758-3.3186035,8.2963867,4.1843262-.144043,7.5029297-1.7314453,10.0280762-5.7714844,2.6691895-4.2563477,3.2463379-10.4604492,2.597168-15.1499023-.6494141-4.6171875-4.0400391-8.9458008-7.8637695-9.9555664-1.7314453-.4331055-3.246582-.5771484-4.5449219-.5771484Z"/>
      <path class="cls-1" d="m116.7293284,50.355957c-3.895752.4331055-10.2443848.6494141-15.1501465.6494141-4.9057617-.0722656-9.9558105-1.0820312-12.0480957-3.6791992-2.0200195-2.5249023-2.2363281-6.2045898-.3605957-9.1625977,1.7314453-2.6689453,4.0400391-4.6171875,7.286377-6.6367188-1.5869141-.8662109-2.8134766-2.453125-3.1020508-3.9682617-.4328613-1.8754883.1442871-5.8432617.3608398-8.3686523.2163086-2.597168.5048828-5.4106445.5771484-7.5029297.0720215-2.0917969-.4331055-3.9677734-1.0102539-4.8334961-.6491699-.8657227-1.2983398-1.9477539-1.0097656-2.597168.5771484-1.1542969,2.092041-.3608398,3.0297852.4326172.9379883.7939453,2.453125,2.7416992,3.0302734,4.1123047.5771484,1.2988281.2885742,3.246582-.1445312,4.6894531-.4326172,1.5869141-1.1542969,3.6074219-1.5148926,6.1323242-.4328613,2.4526367-.7214355,5.987793-.7937012,7.9355469-.0720215,1.2265625.4331055,2.0922852,1.5874023,3.3188477,4.2563477-2.597168,9.1621094-4.9780273,13.418457-7.1425781,1.1542969-.6489258.7216797-2.0917969,0-3.0297852-.7211914-.8657227.2165527-1.5151367,1.3708496-1.3706055.7937012.144043,1.8757324.5048828,2.9577637,1.4428711,1.2265625,1.0097656,2.3808594,3.8955078.0722656,4.9780273-9.5229492,4.4726562-15.9438477,7.0698242-20.6330566,10.4604492-4.545166,3.246582-5.338623,6.7094727-2.9577637,9.3789062,1.9477539,2.0922852,5.987793,2.9575195,9.8115234,2.8857422,3.8234863,0,8.0078125-.7216797,10.2441406-1.4428711,2.3085938-.7939453,6.4931641-1.2265625,7.6474609.5771484,1.0820312,1.7314453-.6494141,2.5249023-2.6694336,2.7412109Z"/>
      <path class="cls-1" d="m192.258137,38.4526367c1.5148926-4.3291016,1.5869141-8.6572266,1.1542969-12.0483398-.4331055-3.3183594-1.2988281-5.6992188-3.6074219-7.6469727-2.3085938-2.0200195-5.1943359-2.5253906-7.8635254-2.1645508s-4.7614746,1.5874023-6.2766113,3.0302734c-2.3085938,2.1640625-3.2463379,4.7612305-3.2463379,7.6469727,0,3.1025391,1.8034668,5.3388672,2.7414551,6.8535156.9379883,1.4433594,1.5151367,4.0400391-.1442871,4.9780273-1.6594238.8657227-3.5349121-.5771484-4.9777832-2.8857422-1.4428711-2.2363281-2.0922852-5.6992188-2.3085938-8.9458008-.1445312-3.3183594.2163086-6.78125.8657227-9.1621094.6491699-2.3085938,1.0820312-4.7617188,1.2263184-7.1420898.1442871-2.2368164-.6491699-3.7514648-1.6594238-4.6894531-.8657227-.7211914-1.2983398-1.3706055-1.1542969-2.0200195.2165527-.6494141,1.3708496-.793457,2.2365723-.5048828.9377441.2885742,1.8034668.5048828,3.4628906,2.6689453,1.5871582,2.1645508,1.298584,5.3388672.4328613,7.6474609-.8657227,2.3808594-2.2363281,5.1220703-2.0200195,7.6474609.4328613-1.1542969,1.1542969-2.453125,2.3808594-3.5351562,1.5869141-1.4428711,4.6171875-3.390625,8.0078125-3.8237305s6.8535156,0,9.7392578,2.3085938c2.0922852,1.7314453,4.4008789,4.0400391,5.4829102,8.3686523,1.1542969,4.5449219,1.0102539,7.4306641.4331055,10.8212891-.5771484,3.3911133-1.4428711,6.0605469-3.8237305,9.234375-2.4528809,3.1748047-5.2666016,5.2666016-8.2243652,6.6376953-3.0300293,1.4423828-5.6994629,2.1640625-8.3686523,2.5966797-2.597168.5053711-4.3286133.5771484-5.338623.5053711-1.0820312,0-1.5871582-.3608398-1.5871582-.6494141.0720215-.3608398.3605957-.6494141,1.298584-.7211914,1.298584-.1445312,2.7414551-.2890625,4.4008789-.6494141,4.184082-1.0102539,7.5749512-2.453125,10.5327148-5.1220703,2.9580078-2.6694336,4.9057617-5.2666016,6.2045898-9.234375Z"/>
      <path class="cls-1" d="m267.4019359,26.8139648c.1442871,2.6450195,0,4.4248047-.6252441,6.6367188-.6733398,2.2128906-2.1643066,4.5693359-4.6652832,6.0605469-2.4528809,1.4907227-4.7133789,2.2602539-7.935791,2.8857422-3.2224121.625-6.1081543.3847656-7.7434082.0478516-.480957-.0478516-.7214355-.2402344-.6733398-.480957,0-.2407227.2885742-.4331055.6733398-.3847656.4328613.0483398,1.3947754.144043,2.5490723.144043,1.8757324-.0478516,3.895752-.2880859,5.7714844-.8173828,1.8757324-.5771484,3.9438477-1.4912109,5.8676758-2.8378906s3.6552734-3.9916992,4.1362305-6.8291016c.480957-2.7416992.1442871-5.3867188-.6252441-7.9360352-.8657227-2.8857422-2.2124023-4.6171875-4.2324219-5.9638672-2.1162109-1.3950195-5.338623-2.0678711-8.3686523-1.7797852-.3847656.0483398-.817627.1445312-1.2504883.1923828.0961914.9619141.0961914,2.5009766.1442871,3.7036133,0,1.5874023-.1442871,3.8959961-.7214355,6.5893555-.5290527,2.7412109-1.5390625,6.0117188-3.3666992,8.4648438-1.8276367,2.4042969-4.0400391,4.0400391-6.3005371,4.0400391-2.2124023,0-3.8476562-1.2988281-4.9057617-3.6552734-1.0581055-2.3569336-1.2504883-4.3769531-.6252441-7.1665039.5771484-2.6450195,1.5871582-4.8095703,3.2224121-6.6850586,1.6352539-1.9238281,3.4628906-3.6074219,6.15625-5.050293,2.7895508-1.4428711,6.1081543-2.1645508,9.0900879-2.1162109,2.9338379.0483398,5.6271973.7695312,7.6472168,2.0200195,2.260498,1.3466797,3.9919434,3.1743164,5.0500488,5.0498047.9619141,1.7797852,1.5390625,3.2226562,1.7314453,5.8681641Zm-18.5649414-10.7255859c-2.1643066.5771484-4.2805176,1.5390625-6.0600586,2.7895508-2.5490723,1.8276367-4.7614746,4.4248047-5.7233887,7.0698242-1.0100098,2.6455078-1.0100098,5.6274414-.3847656,7.3105469.6733398,1.6357422,2.3085938,1.972168,4.2324219,1.3466797,1.8757324-.5771484,3.4628906-1.7314453,4.857666-3.9433594,1.3947754-2.1645508,2.3566895-4.6171875,2.7895508-7.7436523.3847656-2.6450195.3847656-4.9057617.2885742-6.8295898Z"/>
      <path class="cls-1" d="m292.8885081,35.1821289c.6733398-2.7412109,2.597168-5.4345703,5.0500488-7.5029297,1.2023926-1.0097656,2.6452637-1.7792969,4.1843262-2.4042969,0-.0483398.0480957-.1445312.0480957-.1923828,0-1.1542969.1442871-3.2226562.2404785-4.6171875-1.5871582.2402344-3.1262207.0478516-4.0881348-.4331055-.817627-.4331055-1.298584-1.2026367-1.0100098-1.5390625.3847656-.5288086,1.298584-.0483398,1.6833496.0961914.3847656.1923828,1.0100098.3369141,1.9238281.3369141.5290527,0,1.0581055-.0966797,1.5871582-.1923828,0-1.2988281.1442871-3.8959961.1442871-4.6655273,0-.9619141-.480957-1.4428711-1.0100098-1.8754883-.480957-.3847656-.5771484-.9140625-.3366699-1.2509766.3366699-.3847656,1.4909668.1445312,2.1643066.5771484.6733398.4331055,1.298584.9619141,1.5390625,1.6835938.2404785.625-.0480957,1.4428711-.1442871,2.453125-.0480957.5771484-.1442871,1.4423828-.1442871,2.3564453.7214355-.3369141,1.3466797-.8657227,1.7314453-1.1542969.6252441-.625,1.2504883-1.1064453,2.0200195-1.3466797.7695312-.2885742,1.5871582-.2885742,2.0681152.1445312.480957.3364258.3847656.8652344-.0480957,1.4907227-.4328613.5771484-1.4909668,1.2983398-2.7895508,1.8754883-.9138184.3369141-1.9238281.6738281-3.0300293.9619141v.2890625c0,1.0576172-.0480957,2.7412109-.0961914,4.2802734.5290527-.1445312.9619141-.2885742,1.4428711-.3369141-.0480957-.144043-.0961914-.3364258-.1442871-.4326172-.3847656-.625-.6252441-1.2504883-.3366699-1.4428711.4328613-.3847656,1.0100098,0,1.3466797.5288086.2404785.2890625.3847656.5771484.5290527,1.1064453,3.5109863-.4326172,6.6853027-.1445312,9.8115234,1.1064453,3.0300293,1.2021484,4.7614746,3.7993164,5.1943359,6.9736328.4328613,3.2226562-.480957,6.7333984-3.0300293,8.9941406-2.8376465,2.4526367-5.0981445,3.4628906-8.2724609,4.184082-2.5009766.5288086-6.15625.6733398-6.8295898.5771484-.6252441-.0483398-.9138184-.3364258-.9138184-.5771484s.3847656-.3847656.817627-.4331055c.480957,0,3.6071777-.2402344,6.6853027-.9619141,3.078125-.7211914,6.15625-2.7412109,7.8876953-5.5791016,1.5871582-2.6450195,1.7314453-5.4345703.6252441-8.2724609-.8657227-2.1162109-3.0300293-3.3183594-5.1943359-3.7993164-2.0200195-.480957-4.2324219-.5288086-6.5410156-.2885742.0480957,1.9716797-.3847656,3.6074219-1.8757324,6.5888672-.3847656.7695312-.7695312,1.4433594-1.1062012,2.1162109,0,.9619141.0961914,1.8759766.0961914,2.5009766.0480957,1.2026367.0480957,2.1162109-.480957,3.0302734-.480957.9140625-1.3466797,1.0097656-1.779541.7695312-.4328613-.1923828-.3366699-1.1542969-.3847656-2.2124023v-.1923828c-.480957.5771484-.9619141,1.2026367-1.4909668,1.7797852-1.5390625,1.7792969-4.1843262,2.9814453-6.2524414,1.8271484-2.0681152-1.1542969-2.2124023-4.1357422-1.4909668-6.9257812Zm2.8857422,3.7519531c.9619141.5771484,2.6933594-.0483398,3.559082-.8662109.9138184-.8173828,1.9719238-1.9238281,2.7414551-2.9335938v-2.9335938c0-.7216797,0-2.9824219.0480957-4.90625-.8657227.3847656-1.6352539.9140625-2.5009766,1.5874023-1.7314453,1.2983398-3.1262207,3.1264648-3.8476562,5.0981445-.7214355,1.9716797-.9619141,4.3286133,0,4.9541016Zm10.3886719-12.4091797c0-.144043.0480957-.2880859.0480957-.4326172-.5771484.0961914-1.1062012.1923828-1.6352539.3369141-.0480957,1.4423828-.0480957,3.4145508-.0480957,4.6650391.0961914-.1445312.1923828-.3369141.2404785-.4326172.7695312-1.2988281,1.2023926-3.1264648,1.3947754-4.1367188Z"/>
      <path class="cls-1" d="m372.3389476,40.0883789c-1.779541,2.0195312-3.9438477,3.1738281-6.3967285,3.7993164-2.4528809.6733398-4.8095703.5771484-7.6953125.0483398-2.9338379-.6254883-4.0881348-1.6357422-4.0881348-3.078125-.0480957-1.4433594,1.8276367-2.5976562,3.4147949-2.8857422,1.6352539-.3369141,3.559082-.2407227,5.0019531.9135742,1.2504883,1.0102539,1.2023926,2.1645508.6252441,3.3188477,2.3085938-.2890625,4.4729004-.9619141,6.0119629-2.2128906,1.8757324-1.5390625,2.7414551-3.703125,2.7414551-5.9155273.0480957-2.2124023-1.5871582-4.9057617-4.2805176-6.1079102-2.6933594-1.1542969-5.5791016-1.2509766-8.5610352-.2890625-3.0300293.9619141-4.9538574,2.453125-6.3967285,4.3769531-1.4428711,1.8759766-2.5009766,4.1362305-2.8857422,5.3867188s-.817627,1.9238281-1.4428711,2.2607422c-.2885742.144043-.817627.3847656-1.5871582-.2407227-.5290527-.4331055-.5771484-1.4428711-.5290527-2.1162109.0480957-.6254883,1.2504883-2.1645508,2.1162109-3.2705078.9138184-1.1542969,2.1643066-2.934082,3.7995605-4.7133789s4.2324219-4.9541016,5.2905273-6.15625c1.0100098-1.2504883,4.3286133-5.2421875,4.857666-5.9638672.5290527-.6733398.7695312-1.2021484.5290527-1.3945312-.2404785-.2407227-1.0581055.0957031-1.5390625.3847656-.5290527.3364258-2.8857422,1.7314453-4.2324219,2.5009766-1.3947754.7211914-2.4047852,1.0576172-3.6071777,1.0576172s-2.0200195-.625-2.5009766-1.0576172c-.480957-.4814453-.6733398-1.2026367-.5290527-1.5390625.1923828-.4814453.6733398-.5292969,1.0581055-.3847656.4328613.0957031,1.0100098.2880859,1.6352539.2880859.6252441.0483398,1.2023926-.0478516,2.6933594-.6728516,1.4428711-.5771484,3.3666992-1.4912109,5.0019531-2.3569336s2.6452637-1.4907227,3.559082-1.5390625c.9619141-.0483398,1.9238281.5288086,2.5490723,1.2504883.6252441.6733398.6733398,1.1064453.5771484,1.5390625s-.3366699.6733398-1.0100098,1.1064453c-.6733398.3847656-2.1162109,1.6347656-3.4147949,2.9335938-1.298584,1.3466797-2.8857422,3.3183594-4.0400391,4.5693359,0,0-1.1542969,1.25-3.4147949,3.6069336.6733398-.480957,1.3466797-.8657227,2.6452637-1.3466797,1.8757324-.6733398,3.8476562-1.0581055,6.3005371-.8178711,2.5009766.2407227,4.5209961,1.0102539,6.3486328,2.3085938,1.8276367,1.2988281,3.2705078,3.2226562,3.5109863,6.012207.2404785,2.6450195-.480957,4.5688477-2.1162109,6.3969727Zm-13.8515625-.7695312c-1.5390625.0478516-2.5009766.9619141-1.8276367,1.9238281.3847656.5288086,1.5871582,1.0097656,3.6071777,1.0576172,1.8757324-1.6831055.1923828-2.9814453-1.779541-2.9814453Z"/>
      <path class="cls-1" d="m423.5804027,55.6948242v2.8857422h-3.6074219v-15.2944336c-3.6791992,2.4526367-7.7192383,4.4008789-12.1921387,6.0600586l-.7214355-1.4428711c7.7915039-3.4628906,14.0678711-8.1523438,18.8295898-13.9238281h-17.8195801l-.6491699-1.6591797h19.7670898c1.2988281-1.659668,2.2365723-3.246582,2.9580078-4.6894531h-8.6572266v2.1645508h-3.6791992V11.1821289c1.2263184.5048828,2.7412109,1.1542969,4.4006348,1.9477539h28.4245605l2.3808594-2.6694336c2.597168,1.8759766,3.8955078,3.1025391,3.8955078,3.7519531,0,.2163086-.144043.4326172-.4326172.5771484l-1.6594238,1.1542969v13.7070312h-3.6071777v-2.0200195h-16.8095703c-1.2263184,2.0922852-2.1640625,3.6791992-2.8857422,4.6894531h26.8374023l3.1743164-4.0400391c1.8037109,1.5869141,3.1743164,3.1020508,4.1845703,4.5449219l-.6494141,1.1542969h-19.262207c4.9777832,4.6171875,11.7592773,7.7915039,20.2001953,9.5952148-1.2265625,1.1542969-2.1645508,2.3085938-2.7416992,3.6069336-3.6069336-1.1542969-7.2143555-2.7412109-10.6772461-4.9780273v16.3769531h-3.6069336v-2.8857422h-25.3945312Zm2.1640625-48.3364258h-16.8093262l-.6491699-1.6591797h17.4584961V0c4.0400391.2163086,6.0600586.6489258,6.0600586,1.4428711,0,.5048828-.793457,1.0097656-2.5249023,1.6591797v2.597168h14.0678711V0c3.9680176.144043,5.9880371.5771484,5.9880371,1.4428711,0,.4326172-.7937012.9375-2.4528809,1.5146484v2.7416992h11.1821289l2.9580078-4.0400391c1.6591797,1.3706055,3.0300293,2.8857422,4.2563477,4.4731445l-.7211914,1.2260742h-17.675293v4.1123047h-3.5351562v-4.1123047h-14.0678711v4.1123047h-3.5351562v-4.1123047Zm-4.2563477,11.9760742h29.7231445v-4.6171875h-29.7231445v4.6171875Zm0,6.7089844h29.7231445v-5.0498047h-29.7231445v5.0498047Zm2.0922852,20.2724609h25.3945312v-5.6992188h-25.3945312v5.6992188Zm0,7.7915039h25.3945312v-6.2041016h-25.3945312v6.2041016Zm24.8173828-15.0776367c-1.8759766-1.659668-3.5351562-3.3188477-4.9780273-5.050293h-13.130127c-1.3708496,1.7314453-3.0300293,3.390625-4.8337402,5.050293h22.9418945Z"/>
      <path class="cls-1" d="m531.2127269,39.0297852c.2165527-3.0302734-.5048828-5.7714844-3.3183594-7.5029297-3.1022949-1.8037109-6.7817383-1.9482422-9.739502-1.0825195-2.597168.793457-5.8435059,3.0302734-8.5129395,5.2666016-2.2363281,1.8037109-4.9057617,4.3286133-5.84375,5.3383789-1.0097656.9379883-2.092041,1.0102539-3.5349121,1.0102539-1.5148926,0-1.7314453-.6494141-2.6691895-2.2363281-.9379883-1.5874023-1.5874023-3.1020508-1.2265625-4.7617188.3608398-1.5869141.793457-4.2563477,1.3706055-7.3583984.5771484-2.9580078.7937012-6.637207,1.0822754-9.1625977.3605957-2.5249023,1.0100098-3.7509766,2.597168-4.5449219,1.5871582-.7211914,4.689209-1.4428711,5.9880371-1.5869141,1.3706055-.1445312,3.3183594-.3608398,3.6069336-1.0820312.2885742-.7939453-.5048828-2.0922852-1.8754883-3.1748047-1.1542969-.9375-2.7416992-1.6591797-4.1123047-2.1640625-.7214355-.2885742-1.6591797-.6494141-1.5151367-1.2265625.1445312-.6494141.7937012-.6494141,1.5151367-.7211914.6494141-.0722656,1.6591797-.1445312,2.7414551.0717773,2.0200195.2890625,4.0400391,1.2988281,5.4829102,2.453125,1.5871582,1.2265625,2.6691895,2.6694336,3.3908691,4.6171875.5771484,1.6591797.2163086,2.8857422-.3608398,3.390625-.5048828.4331055-1.2265625.7216797-2.0200195.5048828-.8657227-.2880859-2.4528809-.8652344-4.1123047-1.0820312-1.6591797-.2885742-4.2563477,0-5.5549316.4331055-1.298584.3608398-2.2365723,1.0097656-2.3806152,2.0922852-.1445312,1.0097656-.505127,3.0297852-.8657227,5.987793-.2885742,2.9575195-.7216797,6.8535156-.9379883,8.440918-.2163086,1.7314453-.5771484,3.6069336.4328613,4.1118164,1.0822754.5053711,2.0200195.3608398,3.7514648-.7211914,1.8757324-1.0820312,4.4729004-2.9580078,7.5029297-4.6171875,2.9577637-1.5874023,5.4829102-2.453125,8.0800781-2.6694336,5.8435059-.3608398,9.5949707.6494141,12.7692871,3.9677734,2.8857422,3.0302734,3.5351562,7.5751953,2.0922852,10.7495117-2.2363281,4.7617188-5.7714844,7.2866211-9.0900879,9.0898438-3.3908691,1.8037109-8.729248,3.0302734-12.3366699,3.3911133-3.6791992.3608398-6.4926758.2885742-7.5029297.2163086-.9377441-.0722656-2.092041-.2885742-2.092041-.9379883.0720215-.5771484,1.0100098-.6489258,2.0200195-.5771484,1.8034668.0722656,4.4729004-.144043,7.286377-.6489258,4.1845703-.8662109,7.7915039-2.2368164,11.1103516-4.2568359,4.3286133-2.6689453,6.4926758-5.5546875,6.78125-9.0175781Z"/>
      <path class="cls-1" d="m579.6878245,18.46875c.2163086-2.3808594.7211914-6.7094727.7211914-8.1523438s-.9377441-3.0297852-1.2263184-3.6069336c-.3605957-.5771484-.4328613-1.4433594.0720215-1.8759766.4331055-.4326172,1.2988281-.0722656,2.0200195.2885742.6494141.3608398,1.8037109,1.0102539,2.8137207,2.3085938,1.0822754,1.2983398.5771484,3.1743164.2165527,4.9780273-.3608398,1.8754883-1.2265625,5.2666016-1.5874023,7.1420898-.2885742,1.8037109-1.2263184,8.5131836-1.4428711,11.0380859-.2885742,2.4526367-.7211914,6.78125-.2885742,10.027832.4331055,3.246582,2.0200195,5.6269531,3.8237305,7.3583984,1.8757324,1.8037109,5.4829102,2.5976562,7.6472168,2.453125,2.2365723-.0722656,4.7614746-.7216797,6.3486328-1.5151367,1.5148926-.793457,4.689209-2.4526367,6.5651855-3.6069336,1.8034668-1.0820312,4.5449219-3.1025391,5.6992188-3.9677734,1.0820312-.7939453,2.8134766-2.453125,3.1743164-2.7416992.3608398-.4331055.9379883-.5771484,1.2265625-.3608398.2885742.2885742.2885742.7216797-.0722656,1.1542969-.3608398.5048828-1.4428711,1.7314453-2.8857422,3.0302734-1.5151367,1.2983398-4.6171875,4.1123047-8.3686523,6.8535156-3.7514648,2.8134766-7.935791,4.1845703-11.2543945,4.5449219-3.3186035.3608398-7.2866211-.793457-9.6672363-2.5249023-2.4528809-1.7314453-4.689209-4.8334961-5.2663574-8.1523438-.6494141-3.390625,0-7.574707.144043-10.2441406.2165527-2.6694336,1.3708496-12.1923828,1.5874023-14.4287109Z"/>
    </g>
    <g>
      <path class="cls-2" d="m215.1812327,120.1713867c0-1.625-.3007812-2.2871094-.6918945-3.159668-.2106934-.4814453-4.2429199-7.1010742-5.2958984-8.6660156-.7524414-1.1132812-1.5046387-1.8657227-2.0463867-2.2270508-.4511719-.3007812-1.0229492-.4814453-1.2937012-.4814453-.1506348,0-.3010254-.0595703-.3010254-.2104492,0-.1201172.1203613-.2104492.3911133-.2104492.5717773,0,2.8286133.090332,2.9790039.090332.2106934,0,1.3540039-.090332,2.5275879-.090332.3310547,0,.3913574.090332.3913574.2104492,0,.1206055-.1806641.1508789-.451416.2709961-.2407227.1201172-.3913574.3007812-.3913574.5415039,0,.3608398.1506348.722168.3913574,1.1733398.4814453.8730469,4.994873,8.6362305,5.5366211,9.5087891.5715332-1.2636719,4.3930664-7.8535156,4.994873-8.8466797.3911133-.6318359.5117188-1.1435547.5117188-1.5341797,0-.421875-.1206055-.7524414-.4814453-.8427734-.2709961-.090332-.451416-.1503906-.451416-.3007812,0-.1206055.1804199-.1806641.4814453-.1806641.7822266,0,1.7451172.090332,1.9858398.090332.1806641,0,2.347168-.090332,2.9187012-.090332.2106934,0,.3913574.0600586.3913574.1806641,0,.1503906-.1506348.2402344-.3913574.2402344-.3308105,0-.9025879.1206055-1.3840332.421875-.6018066.3608398-.9328613.7216797-1.5947266,1.5341797-.9929199,1.2036133-5.2058105,8.2749023-5.7473145,9.5688477-.451416,1.0834961-.451416,2.0161133-.451416,3.0092773v2.5874023c0,.4814453,0,1.7456055.090332,3.0092773.0603027.8725586.3310547,1.5341797,1.2336426,1.6547852.4213867.0600586,1.083252.1206055,1.3540039.1206055.1806641,0,.2407227.0898438.2407227.1806641,0,.1503906-.1503906.2402344-.4814453.2402344-1.6547852,0-3.5505371-.0898438-3.7009277-.0898438-.1506348,0-2.0461426.0898438-2.9489746.0898438-.3310547,0-.4814453-.0600586-.4814453-.2402344,0-.0908203.0603027-.1806641.2407227-.1806641.2709961,0,.6318359-.0605469.902832-.1206055.6018066-.1206055.8725586-.7822266.9326172-1.6547852.090332-1.2636719.090332-2.527832.090332-3.0092773v-2.5874023Z"/>
      <path class="cls-2" d="m249.2344554,118.1547852c0,4.3330078.9628906,6.1992188,2.2568359,7.4326172,1.4743652,1.3842773,2.8283691,1.6552734,4.543457,1.6552734,1.8354492,0,3.6411133-.8730469,4.7241211-2.1669922,1.3842773-1.7148438,1.7453613-4.2724609,1.7453613-7.3720703v-3.7612305c0-4.6938477,0-5.5366211-.0603027-6.4995117-.0600586-1.0229492-.3007812-1.5043945-1.2937012-1.7148438-.2407227-.0605469-.7521973-.0908203-1.0231934-.0908203-.1203613,0-.2407227-.0595703-.2407227-.1801758,0-.1806641.1503906-.2407227.4814453-.2407227,1.3540039,0,3.0090332.090332,3.1896973.090332.2106934,0,1.6247559-.090332,2.5275879-.090332.3310547,0,.4814453.0600586.4814453.2407227,0,.1206055-.1203613.1801758-.2407227.1801758-.2106934,0-.3911133.0302734-.7524414.0908203-.8122559.1801758-1.0529785.6616211-1.1132812,1.7148438-.0600586.9628906-.0600586,1.8056641-.0600586,6.4995117v3.2197266c0,3.2495117-.361084,6.8608398-2.7683105,8.9970703-2.1665039,1.9257812-4.4233398,2.2265625-6.1987305,2.2265625-1.0229492,0-4.0622559-.1206055-6.1984863-2.1362305-1.4746094-1.4140625-2.6179199-3.5205078-2.6179199-7.9140625v-4.3930664c0-4.6938477,0-5.5366211-.0603027-6.4995117-.0600586-1.0229492-.3007812-1.5043945-1.2937012-1.7148438-.2407227-.0605469-.7521973-.0908203-1.0231934-.0908203-.1203613,0-.2407227-.0595703-.2407227-.1801758,0-.1806641.1503906-.2407227.4814453-.2407227,1.3540039,0,3.1896973.090332,3.4604492.090332s2.0761719-.090332,2.9790039-.090332c.3310547,0,.4814453.0600586.4814453.2407227,0,.1206055-.1203613.1801758-.2407227.1801758-.2106934,0-.3911133.0302734-.7524414.0908203-.8122559.1201172-1.0529785.6616211-1.1132812,1.7148438-.0600586.9628906-.0600586,1.8056641-.0600586,6.4995117v4.2124023Z"/>
      <path class="cls-2" d="m296.586262,119.2382812c0,2.8886719,0,5.2661133.1503906,6.5297852.090332.8725586.270752,1.5341797,1.173584,1.6547852.4211426.0600586,1.083252.1206055,1.3540039.1206055.1806641,0,.2407227.0898438.2407227.1806641,0,.1503906-.1503906.2402344-.4814453.2402344-1.6550293,0-3.5507812-.0898438-3.7011719-.0898438s-2.0461426.0898438-2.9487305.0898438c-.3310547,0-.4814453-.0600586-.4814453-.2402344,0-.0908203.0600586-.1806641.2407227-.1806641.270752,0,.6318359-.0605469.9025879-.1206055.6018066-.1206055.7521973-.7822266.8728027-1.6547852.1503906-1.2636719.1503906-3.6411133.1503906-6.5297852v-12.7280273c-1.4746094.0302734-2.9790039.0302734-4.4533691.0600586-1.8657227.0297852-2.5878906.2407227-3.0693359.9628906-.3308105.5112305-.4211426.722168-.5114746.9331055-.090332.2402344-.1806641.3007812-.3007812.3007812-.090332,0-.1506348-.090332-.1506348-.2709961,0-.3007812.6018066-2.8886719.6621094-3.1293945.0600586-.1806641.1804199-.5717773.3007812-.5717773.2106934,0,.5114746.3012695,1.3239746.3608398.8725586.0908203,2.0161133.1508789,2.3771973.1508789h11.2839355c.9628906,0,1.6547852-.0600586,2.1362305-.1508789.451416-.0595703.722168-.1503906.8427734-.1503906.1503906,0,.1503906.1806641.1503906.3613281,0,.902832-.090332,2.9790039-.090332,3.3100586,0,.2709961-.090332.3911133-.2106934.3911133-.1503906,0-.2106934-.090332-.2407227-.5117188,0-.1201172-.0300293-.2104492-.0300293-.3310547-.090332-.9023438-.8125-1.5947266-3.7011719-1.6547852-1.2636719-.0297852-2.5275879-.0297852-3.7912598-.0600586v12.7280273Z"/>
      <path class="cls-2" d="m324.3802074,116.5600586c0-4.8745117,3.5505371-11.7651367,11.8557129-11.7651367,6.7702637,0,11.8254395,4.2729492,11.8254395,11.2836914,0,6.7402344-4.7543945,12.3071289-12.0061035,12.3071289-8.2446289,0-11.6750488-6.4091797-11.6750488-11.8256836Zm20.7924805.3613281c0-7.2216797-4.3933105-11.1035156-9.1474609-11.1035156-5.0251465,0-8.786377,3.3100586-8.786377,9.8999023,0,7.0112305,4.2126465,11.5249023,9.6289062,11.5249023,2.7080078,0,8.3049316-1.5649414,8.3049316-10.3212891Z"/>
      <path class="cls-2" d="m372.1826976,113.9423828c0-4.6938477,0-5.5366211-.0600586-6.4995117-.0600586-1.0229492-.3007812-1.5043945-1.2939453-1.7148438-.2407227-.0605469-.7521973-.0908203-1.0229492-.0908203-.1203613,0-.2407227-.0595703-.2407227-.1801758,0-.1806641.1503906-.2407227.4814453-.2407227,1.3540039,0,3.2497559.090332,3.4001465.090332.3310547,0,2.6179199-.090332,3.5505371-.090332,1.895752,0,3.9118652.1806641,5.5065918,1.3242188.7521973.5410156,2.076416,2.015625,2.076416,4.0917969,0,2.2265625-.9328613,4.4536133-3.6411133,6.9511719,2.4675293,3.1591797,4.5136719,5.8374023,6.2587891,7.703125,1.625,1.7148438,2.9189453,2.0458984,3.6711426,2.1665039.5715332.090332.9929199.090332,1.173584.090332.1503906,0,.270752.0898438.270752.1806641,0,.1801758-.1806641.2402344-.722168.2402344h-2.1364746c-1.6850586,0-2.4372559-.1503906-3.2197266-.5712891-1.2939453-.6923828-2.3469238-2.1669922-4.0620117-4.4238281-1.263916-1.6547852-2.6782227-3.6708984-3.2800293-4.453125-.1203613-.1201172-.2106934-.1806641-.3911133-.1806641l-3.7011719-.0600586c-.1503906,0-.2106934.090332-.2106934.2407227v.722168c0,2.8886719,0,5.2661133.1506348,6.5297852.0900879.8725586.270752,1.5341797,1.173584,1.6547852.4211426.0600586,1.0830078.1206055,1.3540039.1206055.1804199,0,.2407227.0898438.2407227.1806641,0,.1503906-.1503906.2402344-.4814453.2402344-1.6550293,0-3.5507812-.0898438-3.7011719-.0898438-.0300293,0-1.9257812.0898438-2.8286133.0898438-.3308105,0-.4814453-.0600586-.4814453-.2402344,0-.0908203.0603027-.1806641.2407227-.1806641.2709961,0,.6320801-.0605469.902832-.1206055.6018066-.1206055.7521973-.7822266.8725586-1.6547852.1503906-1.2636719.1503906-3.6411133.1503906-6.5297852v-5.2958984Zm2.4072266,2.6176758c0,.1503906.0603027.2709961.2106934.3613281.451416.2705078,1.8356934.4814453,3.1594238.4814453.722168,0,1.5649414-.090332,2.2568359-.5717773,1.0532227-.722168,1.8354492-2.347168,1.8354492-4.6337891,0-3.7612305-1.9858398-6.0180664-5.2055664-6.0180664-.9025879,0-1.7150879.090332-2.0161133.1806641-.1503906.0600586-.2407227.1806641-.2407227.3608398v9.8393555Z"/>
      <path class="cls-2" d="m411.7119945,113.9423828c0-4.6938477,0-5.5366211-.0600586-6.4995117-.0600586-1.0229492-.361084-1.534668-1.0229492-1.6850586-.3310547-.090332-.722168-.1206055-.9328613-.1206055-.1203613,0-.2407227-.0595703-.2407227-.1801758,0-.1806641.1503906-.2407227.4814453-.2407227.9929199,0,2.8886719.090332,3.0390625.090332s2.0461426-.090332,2.9489746-.090332c.3308105,0,.4814453.0600586.4814453.2407227,0,.1206055-.1206055.1801758-.2407227.1801758-.2106934,0-.3913574.0302734-.7524414.0908203-.8125.1503906-1.0532227.6616211-1.1132812,1.7148438-.0600586.9628906-.0600586,1.8056641-.0600586,6.4995117v5.2958984c0,2.8886719,0,5.2661133.1503906,6.5297852.090332.8725586.270752,1.5341797,1.1733398,1.6547852.4213867.0600586,1.0532227.1206055,1.2338867.1206055.270752,0,.361084.0898438.361084.1806641,0,.1503906-.1203613.2402344-.451416.2402344-1.6550293,0-3.5808105-.0898438-3.7312012-.0898438s-2.0461426.0898438-2.9489746.0898438c-.3308105,0-.4814453-.0600586-.4814453-.2402344,0-.0908203.0603027-.1806641.3310547-.1806641.1806641,0,.5117188-.0302734.7824707-.090332.6018066-.1206055.7822266-.8125.9025879-1.6850586.1503906-1.2636719.1503906-3.6411133.1503906-6.5297852v-5.2958984Z"/>
    </g>
  </g>
</svg>